<?xml version="1.0" encoding="utf-8"?>
<!-- Generator: Adobe Illustrator 26.0.3, SVG Export Plug-In . SVG Version: 6.00 Build 0)  -->
<svg version="1.1" id="Layer_1" xmlns="http://www.w3.org/2000/svg" xmlns:xlink="http://www.w3.org/1999/xlink" x="0px" y="0px"
	 viewBox="0 0 316.5 217.1" style="enable-background:new 0 0 316.5 217.1;" xml:space="preserve">
<style type="text/css">
	.st0{opacity:0.1;fill:#020203;enable-background:new    ;}
	.st1{clip-path:url(#SVGID_00000117635345042546487240000011270905060040150922_);}
	.st2{fill:#EB593B;}
	.st3{fill:#FDC20B;}
	.st4{fill:#FFFFFF;}
</style>
<path id="SHADOW" class="st0" d="M305.8,113.7c0,22.1-1.6,41.8-3.4,57.2c-2.4,20.3-18.6,36.1-39,38c-23.6,2.2-59.2,4.6-105.2,4.6
	s-81.5-2.3-105.2-4.6c-20.3-1.9-36.6-17.7-39-38c-1.8-15.4-3.4-35.1-3.4-57.2s1.6-41.8,3.4-57.2c2.4-20.3,18.6-36.1,39-38
	c23.6-2.2,59.2-4.6,105.2-4.6s81.5,2.3,105.2,4.6c20.3,1.9,36.6,17.7,39,38C304.2,72,305.8,91.7,305.8,113.7z"/>
<g>
	<defs>
		<path id="SVGID_1_" d="M305.8,108.6c0,22.1-1.6,41.8-3.4,57.2c-2.4,20.3-18.6,36.1-39,38c-23.6,2.2-59.2,4.6-105.2,4.6
			s-81.5-2.3-105.2-4.6c-20.3-1.9-36.6-17.7-39-38c-1.8-15.4-3.4-35.1-3.4-57.2s1.6-41.8,3.4-57.2c2.4-20.3,18.6-36.1,39-38
			c23.6-2.2,59.2-4.6,105.2-4.6s81.5,2.3,105.2,4.6c20.3,1.9,36.6,17.7,39,38C304.2,66.8,305.8,86.5,305.8,108.6z"/>
	</defs>
	<clipPath id="SVGID_00000168087274042416951990000007816723548381450678_">
		<use xlink:href="#SVGID_1_"  style="overflow:visible;"/>
	</clipPath>
	<g style="clip-path:url(#SVGID_00000168087274042416951990000007816723548381450678_);">
		<rect x="12" y="7.1" class="st2" width="292.7" height="200"/>
		<g>
			<path class="st3" d="M73.4,56.9L78.3,72h15.8c1.3,0,1.8,1.6,0.8,2.4l-12.7,9.4L87,98.9c0.4,1.2-1,2.2-2,1.5L72.2,91l-12.7,9.4
				c-1,0.7-2.4-0.3-2-1.5l4.9-15.1l-12.7-9.4c-1-0.7-0.5-2.4,0.8-2.4h15.8L71,56.9C71.4,55.7,73.1,55.7,73.4,56.9z"/>
			<polygon class="st3" points="105.1,23.2 99.3,29.2 91.8,25.5 95.7,32.9 89.9,39 98.1,37.6 102,45 103.2,36.7 111.4,35.3 
				103.9,31.5 			"/>
			<polygon class="st3" points="134.7,59.2 126.5,59.6 123.6,51.8 121.4,59.8 113.2,60.2 120.1,64.8 117.9,72.8 124.3,67.6 
				131.2,72.2 128.3,64.4 			"/>
			<polygon class="st3" points="137.8,107 130.3,100.5 134.2,91.3 125.7,96.4 118.3,89.9 120.5,99.6 112,104.7 121.9,105.6 
				124.1,115.3 127.9,106.1 			"/>
			<polygon class="st3" points="101.8,138.8 100.9,130.4 108.6,127 100.4,125.2 99.5,116.7 95.3,124.1 87.1,122.3 92.7,128.6 
				88.5,136 96.2,132.5 			"/>
		</g>
	</g>
</g>
<g id="FRAME">
	<path class="st4" d="M158.3,208.6c-46.6,0-82.4-2.5-104.1-4.5c-10.7-1-20.9-5.7-28.6-13.2s-12.7-17.6-13.9-28.3
		c-2.2-19-3.3-38.2-3.3-56.9c0-18.8,1.1-37.9,3.3-56.9C12.9,38,17.8,28,25.5,20.4c7.7-7.5,17.9-12.2,28.6-13.2
		c21.8-2.1,57.5-4.5,104.1-4.5s82.4,2.5,104.1,4.5c10.7,1,20.9,5.7,28.6,13.2s12.7,17.6,13.9,28.3c2.2,19,3.3,38.2,3.3,56.9
		s-1.1,37.9-3.3,56.9c-1.2,10.7-6.2,20.7-13.9,28.3c-7.7,7.5-17.9,12.2-28.6,13.2C240.6,206.1,204.9,208.6,158.3,208.6z M158.3,11.8
		c-46.3,0-81.7,2.4-103.3,4.5c-8.7,0.8-16.9,4.6-23.1,10.7c-6.2,6-10.2,14.1-11.2,22.8c-2.2,18.7-3.3,37.4-3.3,55.9
		s1.1,37.2,3.3,55.9c1,8.6,5,16.7,11.2,22.8s14.4,9.9,23.1,10.7c21.6,2,57,4.5,103.3,4.5s81.7-2.4,103.3-4.5
		c8.7-0.8,16.9-4.6,23.1-10.7c6.2-6.1,10.2-14.2,11.2-22.8c2.2-18.7,3.3-37.4,3.3-55.9c0-18.4-1.1-37.2-3.3-55.9
		c-1-8.6-5-16.7-11.2-22.8s-14.4-9.9-23.1-10.7C240,14.2,204.6,11.8,158.3,11.8z"/>
</g>
</svg>
