<?xml version="1.0" encoding="utf-8"?>
<!-- Generator: Adobe Illustrator 26.0.3, SVG Export Plug-In . SVG Version: 6.00 Build 0)  -->
<svg version="1.1" id="Layer_1" xmlns="http://www.w3.org/2000/svg" xmlns:xlink="http://www.w3.org/1999/xlink" x="0px" y="0px"
	 viewBox="0 0 316.5 217.1" style="enable-background:new 0 0 316.5 217.1;" xml:space="preserve">
<style type="text/css">
	.st0{opacity:0.1;fill:#020203;enable-background:new    ;}
	.st1{clip-path:url(#SVGID_00000074435100814846308190000016611792131452587404_);}
	.st2{fill:#FDC30B;}
	.st3{fill:#3D2A16;}
	.st4{fill:#EB593B;}
	.st5{fill:#FFFFFF;}
</style>
<path id="SHADOW" class="st0" d="M305.8,113.7c0,22.1-1.6,41.8-3.4,57.2c-2.4,20.3-18.6,36.1-39,38c-23.6,2.2-59.2,4.6-105.2,4.6
	s-81.5-2.3-105.2-4.6c-20.3-1.9-36.6-17.7-39-38c-1.8-15.4-3.4-35.1-3.4-57.2s1.6-41.8,3.4-57.2c2.4-20.3,18.6-36.1,39-38
	c23.6-2.2,59.2-4.6,105.2-4.6s81.5,2.3,105.2,4.6c20.3,1.9,36.6,17.7,39,38C304.2,72,305.8,91.7,305.8,113.7z"/>
<g>
	<defs>
		<path id="SVGID_1_" d="M305.5,105.9c0,22.1-1.6,41.8-3.4,57.2c-2.4,20.3-18.6,36.1-39,38c-23.6,2.2-59.2,4.6-105.2,4.6
			s-81.5-2.3-105.2-4.6c-20.3-1.9-36.6-17.7-39-38c-1.8-15.4-3.4-35.1-3.4-57.2s1.6-41.8,3.4-57.2c2.4-20.3,18.6-36.1,39-38
			C76.5,8.4,112.1,6.1,158,6.1s81.5,2.3,105.2,4.6c20.3,1.9,36.6,17.7,39,38C303.9,64.1,305.5,83.8,305.5,105.9z"/>
	</defs>
	<clipPath id="SVGID_00000026152950826358755610000005288363788238800291_">
		<use xlink:href="#SVGID_1_"  style="overflow:visible;"/>
	</clipPath>
	<g style="clip-path:url(#SVGID_00000026152950826358755610000005288363788238800291_);">
		<rect x="10.1" y="140.5" class="st2" width="295.4" height="65.2"/>
		<rect x="10.1" y="2.5" class="st3" width="295.4" height="68.4"/>
		<rect x="10.1" y="71" class="st4" width="295.4" height="69.5"/>
	</g>
</g>
<g id="FRAME">
	<path class="st5" d="M158.3,208.6c-46.6,0-82.4-2.5-104.1-4.5c-10.7-1-20.9-5.7-28.6-13.2s-12.7-17.6-13.9-28.3
		c-2.2-19-3.3-38.2-3.3-56.9c0-18.8,1.1-37.9,3.3-56.9C12.9,38,17.8,28,25.5,20.4c7.7-7.5,17.9-12.2,28.6-13.2
		c21.8-2.1,57.5-4.5,104.1-4.5s82.4,2.5,104.1,4.5c10.7,1,20.9,5.7,28.6,13.2s12.7,17.6,13.9,28.3c2.2,19,3.3,38.2,3.3,56.9
		s-1.1,37.9-3.3,56.9c-1.2,10.7-6.2,20.7-13.9,28.3c-7.7,7.5-17.9,12.2-28.6,13.2C240.6,206.1,204.9,208.6,158.3,208.6z M158.3,11.8
		c-46.3,0-81.7,2.4-103.3,4.5c-8.7,0.8-16.9,4.6-23.1,10.7c-6.2,6-10.2,14.1-11.2,22.8c-2.2,18.7-3.3,37.4-3.3,55.9
		s1.1,37.2,3.3,55.9c1,8.6,5,16.7,11.2,22.8s14.4,9.9,23.1,10.7c21.6,2,57,4.5,103.3,4.5s81.7-2.4,103.3-4.5
		c8.7-0.8,16.9-4.6,23.1-10.7c6.2-6.1,10.2-14.2,11.2-22.8c2.2-18.7,3.3-37.4,3.3-55.9c0-18.4-1.1-37.2-3.3-55.9
		c-1-8.6-5-16.7-11.2-22.8s-14.4-9.9-23.1-10.7C240,14.2,204.6,11.8,158.3,11.8z"/>
</g>
</svg>
