<?xml version="1.0" encoding="UTF-8"?> <!-- Generator: Adobe Illustrator 26.0.3, SVG Export Plug-In . SVG Version: 6.00 Build 0) --> <svg xmlns="http://www.w3.org/2000/svg" xmlns:xlink="http://www.w3.org/1999/xlink" version="1.1" id="Layer_1" x="0px" y="0px" viewBox="0 0 316.5 217.1" style="enable-background:new 0 0 316.5 217.1;" xml:space="preserve"> <style type="text/css"> .st0{opacity:0.1;fill:#020203;enable-background:new ;} .st1{clip-path:url(#SVGID_00000000206146681398143370000016000118386547279498_);} .st2{fill:#E84524;} .st3{fill:#FDC30B;} .st4{fill:#FFFFFF;} .st5{fill:#BF3618;} .st6{fill:#FFDB0A;} .st7{fill:none;} .st8{fill:#3B8B67;} .st9{fill:#3F529E;} .st10{fill:#CA3742;} .st11{fill:#DF67A2;} .st12{fill:#F9D993;} .st13{fill:#484998;} .st14{clip-path:url(#SVGID_00000050659470093577376800000010138017760546863274_);fill:#3F529E;} </style> <path id="SHADOW" class="st0" d="M305.8,113.7c0,22.1-1.6,41.8-3.4,57.2c-2.4,20.3-18.6,36.1-39,38c-23.6,2.2-59.2,4.6-105.2,4.6 s-81.5-2.3-105.2-4.6c-20.3-1.9-36.6-17.7-39-38c-1.8-15.4-3.4-35.1-3.4-57.2s1.6-41.8,3.4-57.2c2.4-20.3,18.6-36.1,39-38 c23.6-2.2,59.2-4.6,105.2-4.6s81.5,2.3,105.2,4.6c20.3,1.9,36.6,17.7,39,38C304.2,72,305.8,91.7,305.8,113.7z"></path> <g> <g> <g> <g> <defs> <path id="SVGID_1_" d="M307.4,106.6c0,22.1-1.6,41.8-3.4,57.2c-2.4,20.3-18.6,36.1-39,38c-23.6,2.2-59.2,4.6-105.2,4.6 s-81.5-2.3-105.2-4.6c-20.3-1.9-36.6-17.7-39-38c-1.8-15.4-3.4-35.1-3.4-57.2s1.6-41.8,3.4-57.2c2.4-20.3,18.6-36.1,39-38 c23.6-2.2,59.2-4.6,105.2-4.6s81.5,2.3,105.2,4.6c20.3,1.9,36.6,17.7,39,38C305.8,64.8,307.4,84.6,307.4,106.6z"></path> </defs> <clipPath id="SVGID_00000176014420453627539730000000032498576504484758_"> <use xlink:href="#SVGID_1_" style="overflow:visible;"></use> </clipPath> <g style="clip-path:url(#SVGID_00000176014420453627539730000000032498576504484758_);"> <rect x="12.4" y="6.8" class="st2" width="295" height="55.3"></rect> <rect x="12.4" y="156.2" class="st2" width="295" height="53.5"></rect> <rect x="12.4" y="60.8" class="st3" width="295" height="95.4"></rect> </g> </g> </g> </g> </g> <g id="FRAME"> <path class="st4" d="M158.3,208.6c-46.6,0-82.4-2.5-104.1-4.5c-10.7-1-20.9-5.7-28.6-13.2s-12.7-17.6-13.9-28.3 c-2.2-19-3.3-38.2-3.3-56.9c0-18.8,1.1-37.9,3.3-56.9C12.9,38,17.8,28,25.5,20.4c7.7-7.5,17.9-12.2,28.6-13.2 c21.8-2.1,57.5-4.5,104.1-4.5s82.4,2.5,104.1,4.5c10.7,1,20.9,5.7,28.6,13.2s12.7,17.6,13.9,28.3c2.2,19,3.3,38.2,3.3,56.9 s-1.1,37.9-3.3,56.9c-1.2,10.7-6.2,20.7-13.9,28.3c-7.7,7.5-17.9,12.2-28.6,13.2C240.6,206.1,204.9,208.6,158.3,208.6z M158.3,11.8 c-46.3,0-81.7,2.4-103.3,4.5c-8.7,0.8-16.9,4.6-23.1,10.7c-6.2,6-10.2,14.1-11.2,22.8c-2.2,18.7-3.3,37.4-3.3,55.9 s1.1,37.2,3.3,55.9c1,8.6,5,16.7,11.2,22.8s14.4,9.9,23.1,10.7c21.6,2,57,4.5,103.3,4.5s81.7-2.4,103.3-4.5 c8.7-0.8,16.9-4.6,23.1-10.7c6.2-6.1,10.2-14.2,11.2-22.8c2.2-18.7,3.3-37.4,3.3-55.9c0-18.4-1.1-37.2-3.3-55.9 c-1-8.6-5-16.7-11.2-22.8s-14.4-9.9-23.1-10.7C240,14.2,204.6,11.8,158.3,11.8z"></path> </g> <g> <g> <g> <g> <path class="st5" d="M81.5,101c0,0-0.1,0-0.2,0c-0.1,0-0.3-0.3-0.3-0.3l-0.2-0.1l-0.2-0.2c0,0-0.2-0.3-0.1-0.6 c0.1-0.3,0.2-0.3,0.4-0.4c0.1-0.1,0.4-0.2,0.4-0.2s0.2-0.1,0.3-0.1S82,99,82,99s0.1,0,0.2-0.1c0.1,0,0.2,0,0.2,0 c0.1,0,0.2-0.1,0.3-0.1s0.4,0,0.5,0s0.3,0,0.4,0c0.1,0,0.5,0,0.6,0s0.2,0,0.3,0s0.3,0.1,0.4,0.1s0.4,0.2,0.6,0.2 c0.1,0,0.5,0.1,0.6,0.2c0.2,0.1,0.2,0.2,0.3,0.3c0.1,0.1,0.1,0.2,0.1,0.3c0,0.1,0,0.2,0,0.3c0,0.1-0.1,0.2-0.1,0.2l-0.2,0.3 l-0.2,0.2c0,0-0.2,0.1-0.3,0.1s-1.4-0.2-2.2-0.2C82.8,100.8,81.5,101,81.5,101L81.5,101z"></path> <path class="st6" d="M83.3,99.2c0-0.4,0.2-0.7,0.4-0.7s0.4,0.3,0.4,0.7c0,0.4-0.2,0.7-0.4,0.7C83.4,99.8,83.3,99.6,83.3,99.2 L83.3,99.2z"></path> <path class="st6" d="M83.5,99.2c0-0.3,0.1-0.6,0.2-0.6s0.2,0.3,0.2,0.6c0,0.4-0.1,0.6-0.2,0.6S83.5,99.5,83.5,99.2L83.5,99.2z"></path> <path class="st6" d="M83.4,98.5c0-0.1,0.1-0.2,0.3-0.2c0.1,0,0.3,0.1,0.3,0.2s-0.1,0.2-0.3,0.2S83.4,98.6,83.4,98.5L83.4,98.5z"></path> <polygon class="st6" points="83.8,98.3 83.8,98.5 83.4,98.5 83.4,98.3 83.6,98.3 83.6,98 83.4,98 83.4,97.8 83.6,97.8 83.6,97.7 83.7,97.7 83.7,97.8 83.9,97.8 83.9,98 83.7,98 83.7,98.3 "></polygon> <g> <polygon class="st7" points="83.8,98.3 83.8,98.5 83.4,98.5 83.4,98.3 83.6,98.3 83.6,98 83.4,98 83.4,97.8 83.6,97.8 83.6,97.7 83.7,97.7 83.7,97.8 83.9,97.8 83.9,98 83.7,98 83.7,98.3 "></polygon> </g> <polygon class="st6" points="84,98.3 84,98.5 83.3,98.5 83.3,98.3 83.6,98.3 83.6,98 83.4,98 83.4,97.8 83.6,97.8 83.6,97.7 83.7,97.7 83.7,97.8 83.9,97.8 83.9,98 83.7,98 83.7,98.3 "></polygon> <g> <polygon class="st7" points="84,98.3 84,98.5 83.3,98.5 83.3,98.3 83.6,98.3 83.6,98 83.4,98 83.4,97.8 83.6,97.8 83.6,97.7 83.7,97.7 83.7,97.8 83.9,97.8 83.9,98 83.7,98 83.7,98.3 "></polygon> </g> <path class="st6" d="M83.7,100.8h-1.3v-0.3l-0.1-0.3l-0.1-0.4c-0.4-0.5-0.7-0.8-0.8-0.7c0-0.1,0.1-0.2,0.1-0.2 c0.3-0.2,1,0.3,1.5,1c0,0.1,0.1,0.1,0.1,0.2h1.1c0-0.1,0.1-0.1,0.1-0.2c0.5-0.8,1.2-1.2,1.5-1c0.1,0,0.1,0.1,0.1,0.2 c-0.1-0.1-0.4,0.2-0.8,0.7l-0.1,0.4l-0.1,0.3v0.3H83.7L83.7,100.8z"></path> <path class="st6" d="M81.7,101.5c-0.1-0.2-0.2-0.3-0.2-0.3c0.5-0.2,1.3-0.3,2.1-0.3s1.6,0.1,2.1,0.3c0,0-0.1,0.1-0.1,0.3 c0,0.1-0.1,0.2-0.1,0.2c-0.5-0.1-1.1-0.2-1.9-0.2c-0.8,0-1.5,0.1-1.9,0.2C81.8,101.7,81.7,101.6,81.7,101.5L81.7,101.5 L81.7,101.5z"></path> <path class="st6" d="M83.7,102.2c0.7,0,1.4-0.1,1.7-0.2c0.2,0,0.3-0.1,0.3-0.2l-0.1-0.1c-0.4-0.1-1.1-0.2-1.8-0.2 s-1.4,0.1-1.8,0.2c-0.1,0-0.1,0.1-0.1,0.1c0,0.1,0.1,0.2,0.3,0.2C82.2,102.1,83,102.2,83.7,102.2L83.7,102.2z"></path> <path class="st6" d="M85.8,100.8l-0.2-0.1c0,0-0.2,0.1-0.4,0.1s-0.3-0.3-0.3-0.3s-0.2,0.2-0.4,0.2s-0.3-0.2-0.3-0.2 s-0.2,0.1-0.4,0.1s-0.3-0.2-0.3-0.2s-0.2,0.2-0.3,0.2c-0.2,0-0.3-0.1-0.3-0.1s-0.1,0.2-0.3,0.2s-0.4-0.2-0.4-0.2 s-0.1,0.2-0.3,0.3c-0.1,0-0.3-0.1-0.3-0.1s0,0.1-0.1,0.1l-0.1,0.1v0.1c0.5-0.1,1.3-0.2,2.1-0.2s1.6,0.1,2.1,0.3L85.8,100.8 L85.8,100.8z"></path> <path class="st6" d="M83.7,100.2L83.7,100.2c0.1,0.1,0.1,0.1,0.1,0.1c0,0.2,0.1,0.3,0.3,0.3c0.1,0,0.2-0.1,0.3-0.2v-0.1v0.1 c0,0.1,0.1,0.2,0.3,0.2s0.3-0.1,0.3-0.3l0,0l0.1-0.1l0.1,0.1v0.1c0,0.1,0.1,0.3,0.3,0.3c0.1,0,0.2,0,0.2-0.1l0.1-0.1v0.1 c0,0.1,0,0.2,0.1,0.2c0,0,0.1,0,0.2-0.1c0.1-0.1,0.2-0.2,0.2-0.2v0.1c0,0-0.1,0.2-0.3,0.3c-0.1,0-0.2,0.1-0.3,0.1 s-0.1-0.1-0.2-0.2c-0.1,0-0.1,0.1-0.2,0.1c-0.2,0-0.3-0.1-0.4-0.2c-0.1,0.1-0.2,0.1-0.3,0.1s-0.3-0.1-0.3-0.2 c-0.1,0.1-0.2,0.1-0.3,0.1c-0.2,0-0.3-0.1-0.4-0.2c-0.1,0.1-0.2,0.2-0.4,0.2c-0.1,0-0.2,0-0.3-0.1c-0.1,0.1-0.2,0.2-0.3,0.2 s-0.2-0.1-0.3-0.1c-0.1,0.1-0.2,0.2-0.4,0.2c-0.1,0-0.2,0-0.2-0.1c0,0.1-0.1,0.1-0.2,0.2c-0.1,0-0.2,0-0.3-0.1s-0.3-0.3-0.3-0.3 v-0.1c0,0,0.1,0.1,0.2,0.2c0.1,0.1,0.2,0.1,0.2,0.1c0.1,0,0.1-0.1,0.1-0.2v-0.1l0.1,0.1c0.1,0.1,0.1,0.1,0.2,0.1 c0.2,0,0.3-0.1,0.3-0.3v-0.1v-0.1l0.1,0.1l0,0c0,0.2,0.1,0.3,0.3,0.3c0.1,0,0.3-0.1,0.3-0.2v-0.1v0.1c0,0.1,0.2,0.2,0.3,0.2 c0.2,0,0.3-0.1,0.3-0.3C83.6,100.2,83.6,100.2,83.7,100.2L83.7,100.2L83.7,100.2z"></path> <path class="st6" d="M83.7,101c-0.8,0-1.6,0.1-2.1,0.3h-0.1v-0.1c0.5-0.2,1.3-0.3,2.1-0.3s1.6,0.1,2.1,0.3c0,0,0.1,0.1,0,0.1 c0,0-0.1,0.1-0.1,0C85.2,101.1,84.5,101,83.7,101L83.7,101z"></path> <path class="st4" d="M82.9,101.2c0-0.1,0.1-0.1,0.1-0.1c0.1,0,0.1,0.1,0.1,0.1l-0.1,0.1C82.9,101.3,82.9,101.2,82.9,101.2 L82.9,101.2z"></path> <g> <path class="st7" d="M82.9,101.2c0-0.1,0.1-0.1,0.1-0.1c0.1,0,0.1,0.1,0.1,0.1l-0.1,0.1C82.9,101.3,82.9,101.2,82.9,101.2z"></path> </g> <path class="st5" d="M83.7,101.2h-0.3c0,0-0.1,0-0.1-0.1c0,0,0-0.1,0.1-0.1h0.5c0,0,0.1,0,0.1,0.1c0,0,0,0.1-0.1,0.1H83.7 L83.7,101.2z"></path> <g> <path class="st7" d="M83.7,101.2h-0.3c0,0-0.1,0-0.1-0.1c0,0,0-0.1,0.1-0.1h0.5c0,0,0.1,0,0.1,0.1c0,0,0,0.1-0.1,0.1H83.7 L83.7,101.2z"></path> </g> <path class="st8" d="M82.3,101.3h-0.2c0,0-0.1,0-0.1-0.1c0,0,0-0.1,0.1-0.1h0.2h0.2c0,0,0.1,0,0.1,0.1c0,0,0,0.1-0.1,0.1H82.3 L82.3,101.3z"></path> <g> <path class="st7" d="M82.3,101.3h-0.2c0,0-0.1,0-0.1-0.1c0,0,0-0.1,0.1-0.1h0.2h0.2c0,0,0.1,0,0.1,0.1c0,0,0,0.1-0.1,0.1H82.3 L82.3,101.3z"></path> </g> <polygon class="st5" points="81.6,101.6 81.6,101.3 81.8,101.3 81.7,101.6 "></polygon> <g> <polygon class="st7" points="81.6,101.6 81.6,101.3 81.8,101.3 81.7,101.6 "></polygon> </g> <path class="st4" d="M84.2,101.2c0-0.1,0.1-0.1,0.1-0.1c0.1,0,0.1,0.1,0.1,0.1l-0.1,0.1L84.2,101.2L84.2,101.2z"></path> <g> <path class="st7" d="M84.2,101.2c0-0.1,0.1-0.1,0.1-0.1c0.1,0,0.1,0.1,0.1,0.1l-0.1,0.1L84.2,101.2z"></path> </g> <path class="st8" d="M85,101.3h0.2c0,0,0.1,0,0.1-0.1c0,0,0-0.1-0.1-0.1H85h-0.2c0,0-0.1,0-0.1,0.1c0,0,0,0.1,0.1,0.1H85 L85,101.3z"></path> <g> <path class="st7" d="M85,101.3h0.2c0,0,0.1,0,0.1-0.1c0,0,0-0.1-0.1-0.1H85h-0.2c0,0-0.1,0-0.1,0.1c0,0,0,0.1,0.1,0.1H85 L85,101.3z"></path> </g> <polygon class="st5" points="85.7,101.6 85.7,101.3 85.5,101.3 85.6,101.6 "></polygon> <g> <polygon class="st7" points="85.7,101.6 85.7,101.3 85.5,101.3 85.6,101.6 "></polygon> </g> <path class="st6" d="M85.8,100.6L85.8,100.6c0-0.1-0.1-0.1-0.1,0s0,0.1,0,0.1S85.7,100.7,85.8,100.6L85.8,100.6z"></path> <g> <path class="st7" d="M85.8,100.6L85.8,100.6c0-0.1-0.1-0.1-0.1,0s0,0.1,0,0.1S85.7,100.7,85.8,100.6z"></path> </g> <path class="st6" d="M84.4,100.3c0-0.1,0-0.1-0.1-0.1c0,0-0.1,0-0.1,0.1C84.3,100.3,84.3,100.3,84.4,100.3 C84.4,100.5,84.4,100.3,84.4,100.3L84.4,100.3z"></path> <g> <path class="st7" d="M84.4,100.3c0-0.1,0-0.1-0.1-0.1c0,0-0.1,0-0.1,0.1C84.3,100.3,84.3,100.3,84.4,100.3 C84.4,100.5,84.4,100.3,84.4,100.3z"></path> </g> <path class="st6" d="M82.9,100.3c0-0.1,0-0.1,0.1-0.1c0,0,0.1,0,0.1,0.1C83,100.3,83,100.3,82.9,100.3 C82.9,100.5,82.9,100.3,82.9,100.3L82.9,100.3z"></path> <g> <path class="st7" d="M82.9,100.3c0-0.1,0-0.1,0.1-0.1c0,0,0.1,0,0.1,0.1C83,100.3,83,100.3,82.9,100.3 C82.9,100.5,82.9,100.3,82.9,100.3z"></path> </g> <path class="st6" d="M81.6,100.6L81.6,100.6c0-0.1,0.1-0.1,0.1,0s0,0.1,0,0.1C81.6,100.7,81.6,100.7,81.6,100.6L81.6,100.6z"></path> <g> <path class="st7" d="M81.6,100.6L81.6,100.6c0-0.1,0.1-0.1,0.1,0s0,0.1,0,0.1C81.6,100.7,81.6,100.7,81.6,100.6z"></path> </g> <polygon class="st6" points="83.7,99.6 83.4,99.7 83.6,100.1 83.7,100.2 83.7,100.1 83.9,99.7 "></polygon> <g> <polygon class="st7" points="83.7,99.6 83.4,99.7 83.6,100.1 83.7,100.2 83.7,100.1 83.9,99.7 "></polygon> </g> <polygon class="st6" points="83.1,100.2 83.2,100.2 83.6,100.2 83.6,100.2 83.6,100.1 83.2,100 "></polygon> <g> <polygon class="st7" points="83.1,100.2 83.2,100.2 83.6,100.2 83.6,100.2 83.6,100.1 83.2,100 "></polygon> </g> <polygon class="st6" points="84.2,100.2 84.1,100.2 83.7,100.2 83.7,100.2 83.7,100.1 84.1,100 "></polygon> <g> <polygon class="st7" points="84.2,100.2 84.1,100.2 83.7,100.2 83.7,100.2 83.7,100.1 84.1,100 "></polygon> </g> <polygon class="st6" points="82.1,99.8 81.9,99.8 82.2,100.2 82.2,100.2 82.3,100.2 82.4,99.8 "></polygon> <g> <polygon class="st7" points="82.1,99.8 81.9,99.8 82.2,100.2 82.2,100.2 82.3,100.2 82.4,99.8 "></polygon> </g> <polygon class="st6" points="81.7,100.3 81.9,100.5 82.2,100.2 82.2,100.2 82.2,100.2 81.8,100.2 "></polygon> <g> <polygon class="st7" points="81.7,100.3 81.9,100.5 82.2,100.2 82.2,100.2 82.2,100.2 81.8,100.2 "></polygon> </g> <polygon class="st6" points="82.7,100.2 82.7,100.3 82.3,100.2 82.2,100.2 82.3,100.2 82.6,100 "></polygon> <g> <polygon class="st7" points="82.7,100.2 82.7,100.3 82.3,100.2 82.2,100.2 82.3,100.2 82.6,100 "></polygon> </g> <polygon class="st6" points="81.4,100.3 81.3,100.6 80.9,100.7 80.9,100.6 80.9,100.6 81.2,100.2 "></polygon> <g> <polygon class="st7" points="81.4,100.3 81.3,100.6 80.9,100.7 80.9,100.6 80.9,100.6 81.2,100.2 "></polygon> </g> <path class="st6" d="M82.1,100.2c0-0.1,0.1-0.1,0.1-0.1c0.1,0,0.1,0.1,0.1,0.1l-0.1,0.1C82.2,100.3,82.1,100.3,82.1,100.2 L82.1,100.2z"></path> <g> <path class="st7" d="M82.1,100.2c0-0.1,0.1-0.1,0.1-0.1c0.1,0,0.1,0.1,0.1,0.1l-0.1,0.1C82.2,100.3,82.1,100.3,82.1,100.2z"></path> </g> <polygon class="st6" points="85.2,99.8 85.4,99.8 85.1,100.2 85.1,100.2 85,100.2 84.9,99.8 "></polygon> <g> <polygon class="st7" points="85.2,99.8 85.4,99.8 85.1,100.2 85.1,100.2 85,100.2 84.9,99.8 "></polygon> </g> <polygon class="st6" points="85.6,100.3 85.4,100.5 85.1,100.2 85.1,100.2 85.1,100.2 85.5,100.2 "></polygon> <g> <polygon class="st7" points="85.6,100.3 85.4,100.5 85.1,100.2 85.1,100.2 85.1,100.2 85.5,100.2 "></polygon> </g> <polygon class="st6" points="84.6,100.2 84.6,100.3 85,100.2 85.1,100.2 85,100.2 84.7,100 "></polygon> <g> <polygon class="st7" points="84.6,100.2 84.6,100.3 85,100.2 85.1,100.2 85,100.2 84.7,100 "></polygon> </g> <polygon class="st6" points="85.9,100.3 85.9,100.6 86.3,100.7 86.4,100.6 86.4,100.6 86.1,100.2 "></polygon> <g> <polygon class="st7" points="85.9,100.3 85.9,100.6 86.3,100.7 86.4,100.6 86.4,100.6 86.1,100.2 "></polygon> </g> <path class="st6" d="M83.5,100.2c0-0.1,0.1-0.1,0.1-0.1c0.1,0,0.1,0.1,0.1,0.1c0,0.1-0.1,0.1-0.1,0.1L83.5,100.2L83.5,100.2z"></path> <g> <path class="st7" d="M83.5,100.2c0-0.1,0.1-0.1,0.1-0.1c0.1,0,0.1,0.1,0.1,0.1c0,0.1-0.1,0.1-0.1,0.1L83.5,100.2z"></path> </g> <path class="st6" d="M84.9,100.2c0-0.1,0.1-0.1,0.1-0.1c0.1,0,0.1,0.1,0.1,0.1l-0.1,0.1C85,100.3,84.9,100.3,84.9,100.2 L84.9,100.2z"></path> <g> <path class="st7" d="M84.9,100.2c0-0.1,0.1-0.1,0.1-0.1c0.1,0,0.1,0.1,0.1,0.1l-0.1,0.1C85,100.3,84.9,100.3,84.9,100.2z"></path> </g> <path class="st6" d="M80.8,100.6c0,0-0.1-0.1-0.2-0.2c-0.1,0-0.2-0.1-0.2-0.1s0.1-0.1,0.2-0.1c0,0,0.1,0,0.1,0.1l0,0 c0,0,0.1,0,0.1,0.1C80.9,100.5,80.9,100.6,80.8,100.6C80.9,100.6,80.9,100.6,80.8,100.6L80.8,100.6z"></path> <g> <path class="st7" d="M80.8,100.6c0,0-0.1-0.1-0.2-0.2c-0.1,0-0.2-0.1-0.2-0.1s0.1-0.1,0.2-0.1c0,0,0.1,0,0.1,0.1l0,0 c0,0,0.1,0,0.1,0.1C80.9,100.5,80.9,100.6,80.8,100.6C80.9,100.6,80.9,100.6,80.8,100.6z"></path> </g> <path class="st6" d="M80.8,100.6h0.1c0.1,0,0.1,0.1,0,0.1L80.8,100.6L80.8,100.6L80.8,100.6z"></path> <g> <path class="st7" d="M80.8,100.6h0.1c0.1,0,0.1,0.1,0,0.1L80.8,100.6L80.8,100.6z"></path> </g> <path class="st6" d="M86.4,100.6c0,0,0.1-0.1,0.2-0.2c0.1,0,0.2-0.1,0.2-0.1s-0.1-0.1-0.2-0.1c0,0-0.1,0-0.1,0.1l0,0 c0,0-0.1,0-0.1,0.1C86.4,100.5,86.4,100.6,86.4,100.6L86.4,100.6L86.4,100.6z"></path> <g> <path class="st7" d="M86.4,100.6c0,0,0.1-0.1,0.2-0.2c0.1,0,0.2-0.1,0.2-0.1s-0.1-0.1-0.2-0.1c0,0-0.1,0-0.1,0.1l0,0 c0,0-0.1,0-0.1,0.1C86.4,100.5,86.4,100.6,86.4,100.6L86.4,100.6z"></path> </g> <path class="st6" d="M86.4,100.6h-0.1c0,0-0.1,0.1,0,0.1L86.4,100.6L86.4,100.6L86.4,100.6z"></path> <g> <path class="st7" d="M86.4,100.6h-0.1c0,0-0.1,0.1,0,0.1L86.4,100.6L86.4,100.6z"></path> </g> <rect x="80.6" y="102.2" class="st6" width="6.1" height="1.6"></rect> <path class="st6" d="M81.3,104.8h0.1H86h0.1c-0.2-0.1-0.3-0.2-0.3-0.4c0-0.2,0.1-0.3,0.3-0.4H86h-4.6h-0.1l0,0 c0.2,0.1,0.3,0.2,0.3,0.4C81.5,104.6,81.4,104.8,81.3,104.8L81.3,104.8z"></path> <path class="st6" d="M81.4,104.8H86c0.2,0,0.3,0.1,0.3,0.2s-0.1,0.2-0.3,0.2h-4.6c-0.2,0-0.3-0.1-0.3-0.2S81.2,104.8,81.4,104.8 L81.4,104.8z"></path> <path class="st6" d="M81.4,103.8H86c0.2,0,0.3,0.1,0.3,0.2s-0.1,0.2-0.3,0.2h-4.6c-0.2,0-0.3-0.1-0.3-0.2S81.2,103.8,81.4,103.8 L81.4,103.8z"></path> <path class="st9" d="M87.9,130.8c-0.4,0-0.8-0.1-1.1-0.2c-0.3-0.1-0.6-0.2-1.1-0.2c-0.4,0-0.8,0.1-1.1,0.2s-0.7,0.2-1.1,0.2 c-0.4,0-0.8-0.1-1.1-0.2c-0.3-0.1-0.6-0.2-1-0.2s-0.8,0.1-1.1,0.2s-0.7,0.2-1.1,0.2v0.7c0.4,0,0.8-0.1,1.1-0.2s0.6-0.2,1.1-0.2 c0.4,0,0.8,0.1,1,0.2c0.3,0.1,0.7,0.2,1.1,0.2c0.4,0,0.8-0.1,1.1-0.2s0.7-0.2,1.1-0.2c0.4,0,0.8,0.1,1.1,0.2 c0.3,0.1,0.7,0.2,1.1,0.2V130.8L87.9,130.8z"></path> <path class="st4" d="M87.9,131.4c-0.4,0-0.8-0.1-1.1-0.2s-0.6-0.2-1.1-0.2c-0.4,0-0.8,0.1-1.1,0.2c-0.3,0.1-0.7,0.2-1.1,0.2 c-0.4,0-0.8-0.1-1.1-0.2s-0.6-0.2-1-0.2s-0.8,0.1-1.1,0.2c-0.3,0.1-0.7,0.2-1.1,0.2v0.7c0.4,0,0.8-0.1,1.1-0.2 c0.3-0.1,0.6-0.2,1.1-0.2c0.4,0,0.8,0.1,1,0.2c0.3,0.1,0.7,0.2,1.1,0.2c0.4,0,0.8-0.1,1.1-0.2c0.3-0.1,0.7-0.2,1.1-0.2 c0.4,0,0.8,0.1,1.1,0.2s0.7,0.2,1.1,0.2V131.4L87.9,131.4z"></path> <path class="st9" d="M87.9,132c-0.4,0-0.8-0.1-1.1-0.2c-0.3-0.1-0.6-0.2-1.1-0.2c-0.4,0-0.8,0.1-1.1,0.2s-0.7,0.2-1.1,0.2 c-0.4,0-0.8-0.1-1.1-0.2c-0.3-0.1-0.6-0.2-1-0.2s-0.8,0.1-1.1,0.2s-0.7,0.2-1.1,0.2v0.7c0.4,0,0.8-0.1,1.1-0.2s0.6-0.2,1.1-0.2 c0.4,0,0.8,0.1,1,0.2c0.3,0.1,0.7,0.3,1.1,0.3c0.4,0,0.8-0.1,1.1-0.2s0.7-0.2,1.1-0.2c0.4,0,0.8,0.1,1.1,0.2 c0.3,0.1,0.7,0.2,1.1,0.2V132L87.9,132z"></path> <path class="st4" d="M87.9,133.4c-0.4,0-0.8-0.1-1.1-0.2s-0.7-0.2-1.1-0.2c-0.4,0-0.8,0.1-1.1,0.2c-0.3,0.1-0.7,0.2-1.1,0.2 c-0.4,0-0.8-0.1-1.1-0.3c-0.3-0.1-0.6-0.2-1-0.2s-0.8,0.1-1.1,0.2c-0.3,0.1-0.7,0.2-1.1,0.2v-0.7c0.4,0,0.8-0.1,1.1-0.3 c0.3-0.1,0.6-0.2,1.1-0.2c0.4,0,0.8,0.1,1,0.2c0.3,0.1,0.7,0.3,1.1,0.3c0.4,0,0.8-0.1,1.1-0.2c0.3-0.1,0.7-0.2,1.1-0.2 c0.4,0,0.8,0.1,1.1,0.2s0.7,0.2,1.1,0.2V133.4L87.9,133.4z"></path> <path class="st9" d="M87.9,134c-0.4,0-0.8-0.1-1.1-0.2c-0.3-0.1-0.7-0.2-1.1-0.2c-0.4,0-0.8,0.1-1.1,0.2s-0.7,0.2-1.1,0.2 c-0.4,0-0.8-0.1-1.1-0.3c-0.3-0.1-0.6-0.2-1-0.2s-0.8,0.1-1.1,0.2c-0.3,0.2-0.7,0.3-1.1,0.3v-0.7c0.4,0,0.8-0.1,1.1-0.3 c0.3-0.1,0.6-0.2,1.1-0.2c0.4,0,0.8,0.1,1,0.2c0.3,0.2,0.7,0.3,1.1,0.3c0.4,0,0.8-0.1,1.1-0.2s0.7-0.2,1.1-0.2 c0.4,0,0.8,0.1,1.1,0.2c0.3,0.1,0.7,0.2,1.1,0.2V134L87.9,134z"></path> <path class="st6" d="M81.3,128c0,0.1,0,0.1,0,0.2c0,0.4-0.3,0.7-0.8,0.7h6.3c-0.4,0-0.8-0.3-0.8-0.7c0-0.1,0-0.1,0-0.2h-0.1 H81.3C81.3,128.1,81.3,128.1,81.3,128L81.3,128z"></path> <path class="st6" d="M81.4,127.6H86c0.2,0,0.3,0.1,0.3,0.2s-0.1,0.2-0.3,0.2h-4.6c-0.2,0-0.3-0.1-0.3-0.2 C81.1,127.7,81.2,127.6,81.4,127.6L81.4,127.6z"></path> <rect x="80.5" y="128.9" class="st6" width="6.3" height="1.6"></rect> <path class="st5" d="M80,122c-0.6,0.4-1,0.7-1,0.9c0,0.2,0.2,0.3,0.5,0.5c0.4,0.3,0.7,0.9,0.5,1.1c0.4-0.3,0.6-0.7,0.6-1.2 C80.7,122.7,80.4,122.2,80,122L80,122z"></path> <rect x="81.4" y="105.5" class="st4" width="4.5" height="21.9"></rect> <path class="st5" d="M90.4,113.7c-1-0.4-2.6-0.7-4.5-0.8c-0.7,0-1.4,0.1-2.1,0.2c-2.7,0.4-4.7,1.5-4.5,2.4v0.1l-1-2.3 c-0.2-1,2.1-2.1,5-2.6c0.9-0.2,1.8-0.2,2.6-0.2c1.9,0,3.5,0.2,4.5,0.6V113.7L90.4,113.7z"></path> <path class="st5" d="M81.4,116.3c-1.2-0.1-2.1-0.4-2.2-0.9c-0.1-0.4,0.3-0.9,1.1-1.3c0.3,0,0.7,0.1,1.1,0.1L81.4,116.3 L81.4,116.3z"></path> <path class="st5" d="M85.9,114.8c0.8,0.1,1.4,0.3,1.6,0.5l0,0c0.1,0.3-0.5,0.9-1.7,1.6L85.9,114.8L85.9,114.8z"></path> <path class="st5" d="M78.6,120.6c-0.1-0.4,1.1-1.1,2.8-1.7c0.8-0.3,1.4-0.6,2.2-0.9c2.4-1,4.1-2.2,3.9-2.7l0,0 c0.1,0.1,0.3,2.3,0.3,2.3c0.2,0.4-1.4,1.6-3.6,2.6c-0.7,0.3-2.2,0.9-2.9,1.1c-1.2,0.4-2.5,1.2-2.4,1.6L78.6,120.6L78.6,120.6z"></path> <path class="st6" d="M81.1,112.6c0.5-0.2,0.9-0.4,0.7-0.9c-0.1-0.3-0.4-0.3-0.8-0.2l-0.7,0.3l0.7,1.7c0.1,0,0.1-0.1,0.2-0.1 c0.1,0,0.2,0,0.2-0.1L81.1,112.6L81.1,112.6z M80.8,111.8l0.2-0.1c0.2-0.1,0.3,0,0.4,0.2c0.1,0.2,0,0.3-0.1,0.4 c-0.1,0-0.1,0.1-0.2,0.1L80.8,111.8L80.8,111.8z"></path> <path class="st6" d="M82.9,111.1c-0.1,0-0.2,0-0.2,0.1c-0.1,0-0.2,0-0.2,0l0.4,1.7l1.2-0.2v-0.1v-0.1c-0.2,0.1-0.4,0.1-0.7,0.2 L82.9,111.1L82.9,111.1z"></path> <path class="st6" d="M85.3,112.6c0.2-0.6,0.5-1.2,0.8-1.8H86c-0.1,0-0.1,0-0.2,0c-0.1,0.4-0.3,0.9-0.5,1.3 c-0.2-0.4-0.5-0.8-0.7-1.2c-0.1,0-0.2,0-0.3,0s-0.2,0-0.3,0c0.3,0.6,0.7,1.1,1,1.7h0.1C85.2,112.6,85.2,112.6,85.3,112.6 L85.3,112.6z"></path> <path class="st6" d="M87.8,111.2c0-0.1,0.1-0.2,0.1-0.2c-0.1-0.1-0.3-0.1-0.5-0.2c-0.5,0-0.8,0.2-0.8,0.5 c-0.1,0.6,0.9,0.6,0.9,1c0,0.2-0.2,0.3-0.4,0.2c-0.2,0-0.4-0.1-0.4-0.3h-0.1c0,0.1-0.1,0.2-0.1,0.3c0.1,0.1,0.3,0.1,0.5,0.2 c0.5,0,0.9-0.1,0.9-0.5c0.1-0.6-0.9-0.6-0.9-1c0-0.2,0.1-0.3,0.4-0.2C87.6,111.1,87.7,111.2,87.8,111.2L87.8,111.2L87.8,111.2z"></path> <path class="st5" d="M124.6,100.5c0,0-0.2,0.2-0.3,0.2s-0.3-0.1-0.3-0.1s-0.1,0.1-0.3,0.2c-0.2,0-0.4-0.2-0.4-0.2 s-0.2,0.2-0.3,0.3c-0.1,0-0.3-0.1-0.3-0.1s-0.1,0.1-0.2,0.2c-0.1,0-0.1,0-0.1,0l-0.2-0.1l-0.2-0.2l-0.2-0.1l-0.1-0.3v-0.2 c0-0.2,0.2-0.4,0.6-0.5c0.2-0.1,0.4,0,0.6,0c0.2-0.1,0.5-0.2,0.9-0.2s0.7,0.1,0.8,0.2c0.2-0.1,0.5-0.2,0.8-0.2 c0.4,0,0.7,0.1,0.9,0.2c0.1,0,0.3,0,0.6,0c0.4,0.1,0.7,0.3,0.6,0.5c0,0,0,0.1,0,0.2l-0.1,0.3l-0.2,0.1l-0.2,0.2l-0.2,0.1h-0.1 c-0.1-0.1-0.2-0.2-0.2-0.2s-0.2,0.1-0.3,0.1c-0.1-0.1-0.3-0.3-0.3-0.3s-0.2,0.2-0.4,0.2s-0.3-0.2-0.3-0.2s-0.2,0.2-0.3,0.1 C124.8,100.7,124.6,100.5,124.6,100.5L124.6,100.5z"></path> <path class="st6" d="M124.2,99.2c0-0.3,0.2-0.5,0.4-0.5s0.4,0.2,0.4,0.5s-0.2,0.5-0.4,0.5C124.4,99.8,124.2,99.6,124.2,99.2 L124.2,99.2z"></path> <path class="st6" d="M124.4,99.2c0-0.3,0.1-0.5,0.2-0.5c0.1,0,0.2,0.2,0.2,0.5s-0.1,0.5-0.2,0.5S124.4,99.6,124.4,99.2 L124.4,99.2z"></path> <g> <path class="st7" d="M124.4,99.2c0-0.3,0.1-0.5,0.2-0.5c0.1,0,0.2,0.2,0.2,0.5s-0.1,0.5-0.2,0.5S124.4,99.6,124.4,99.2z"></path> </g> <path class="st6" d="M122.7,101.5c-0.1-0.2-0.2-0.3-0.2-0.3c0.5-0.2,1.3-0.3,2.1-0.3s1.6,0.1,2.1,0.3c0,0-0.1,0.1-0.1,0.3 c0,0.1-0.1,0.2-0.1,0.2c-0.5-0.1-1.1-0.2-1.9-0.2c-0.8,0-1.5,0.1-1.9,0.2C122.7,101.7,122.7,101.6,122.7,101.5L122.7,101.5 L122.7,101.5z"></path> <path class="st6" d="M124.6,102.2c0.7,0,1.4-0.1,1.7-0.2c0.2,0,0.3-0.1,0.3-0.2c0,0,0-0.1-0.1-0.1c-0.4-0.1-1.1-0.2-1.8-0.2 s-1.4,0.1-1.8,0.2c-0.1,0-0.1,0.1-0.1,0.1c0,0.1,0.1,0.2,0.3,0.2C123.2,102.1,123.9,102.2,124.6,102.2L124.6,102.2z"></path> <path class="st4" d="M126.2,99.6c0-0.1,0.1-0.1,0.1-0.1c0.1,0,0.1,0.1,0.1,0.1c0,0.1-0.1,0.1-0.1,0.1L126.2,99.6L126.2,99.6z"></path> <g> <path class="st7" d="M126.2,99.6c0-0.1,0.1-0.1,0.1-0.1c0.1,0,0.1,0.1,0.1,0.1c0,0.1-0.1,0.1-0.1,0.1L126.2,99.6z"></path> </g> <g> <path class="st7" d="M126.2,99.2c0-0.1,0.1-0.1,0.1-0.1c0.1,0,0.1,0,0.1,0.1s-0.1,0.1-0.1,0.1 C126.2,99.2,126.2,99.2,126.2,99.2z M125.8,98.8c0-0.1,0.1-0.1,0.1-0.1c0.1,0,0.1,0.1,0.1,0.1c0,0.1-0.1,0.1-0.1,0.1 C125.9,99,125.8,99,125.8,98.8z M125.5,98.8c0-0.1,0.1-0.1,0.1-0.1c0.1,0,0.1,0.1,0.1,0.1c0,0.1-0.1,0.1-0.1,0.1 C125.5,98.8,125.5,98.8,125.5,98.8z M125.1,98.8c0-0.1,0.1-0.1,0.1-0.1c0.1,0,0.1,0,0.1,0.1s-0.1,0.1-0.1,0.1 C125.1,98.8,125.1,98.8,125.1,98.8z"></path> </g> <g> <path class="st7" d="M127.6,100c0-0.1,0.1-0.1,0.1-0.1c0.1,0,0.1,0.1,0.1,0.1l-0.1,0.1C127.6,100.1,127.6,100.1,127.6,100z M127.5,99.6c0-0.1,0.1-0.1,0.1-0.1c0.1,0,0.1,0.1,0.1,0.1l-0.1,0.1L127.5,99.6z M127.2,99.2c0-0.1,0.1-0.1,0.1-0.1 c0.1,0,0.1,0,0.1,0.1s-0.1,0.1-0.1,0.1L127.2,99.2z M126.9,99.1c0-0.1,0.1-0.1,0.1-0.1c0.1,0,0.1,0.1,0.1,0.1 c0,0.1-0.1,0.1-0.1,0.1C126.9,99.2,126.9,99.1,126.9,99.1z M126.5,99.1c0-0.1,0.1-0.1,0.1-0.1c0.1,0,0.1,0,0.1,0.1 s-0.1,0.1-0.1,0.1C126.5,99.2,126.5,99.2,126.5,99.1z"></path> </g> <path class="st6" d="M126.7,100.8l-0.2-0.1c0,0-0.2,0.1-0.4,0.1s-0.3-0.3-0.3-0.3s-0.2,0.2-0.4,0.2s-0.3-0.2-0.3-0.2 s-0.2,0.1-0.4,0.1s-0.3-0.2-0.3-0.2s-0.2,0.2-0.3,0.2c-0.2,0-0.3-0.1-0.3-0.1s-0.1,0.2-0.3,0.2s-0.4-0.2-0.4-0.2 s-0.1,0.2-0.3,0.3c-0.1,0-0.3-0.1-0.3-0.1s0,0.1-0.1,0.1l-0.1,0.1v0.1c0.5-0.1,1.3-0.2,2.1-0.2s1.6,0.1,2.1,0.3L126.7,100.8 L126.7,100.8z"></path> <path class="st4" d="M122.7,99.6c0-0.1,0.1-0.1,0.1-0.1c0.1,0,0.1,0.1,0.1,0.1c0,0.1-0.1,0.1-0.1,0.1L122.7,99.6L122.7,99.6z"></path> <g> <path class="st7" d="M122.7,99.6c0-0.1,0.1-0.1,0.1-0.1c0.1,0,0.1,0.1,0.1,0.1c0,0.1-0.1,0.1-0.1,0.1L122.7,99.6z"></path> </g> <g> <path class="st7" d="M122.8,99.2c0-0.1,0.1-0.1,0.1-0.1c0.1,0,0.1,0,0.1,0.1s-0.1,0.1-0.1,0.1 C122.8,99.2,122.8,99.2,122.8,99.2z M123.1,98.8c0-0.1,0.1-0.1,0.1-0.1c0.1,0,0.1,0.1,0.1,0.1c0,0.1-0.1,0.1-0.1,0.1 C123.2,99,123.1,99,123.1,98.8z M123.5,98.8c0-0.1,0.1-0.1,0.1-0.1c0.1,0,0.1,0.1,0.1,0.1c0,0.1-0.1,0.1-0.1,0.1 C123.5,98.8,123.5,98.8,123.5,98.8z M123.9,98.8c0-0.1,0.1-0.1,0.1-0.1c0.1,0,0.1,0,0.1,0.1s-0.1,0.1-0.1,0.1 C123.9,98.8,123.9,98.8,123.9,98.8z"></path> </g> <g> <path class="st7" d="M121.4,100c0-0.1,0.1-0.1,0.1-0.1c0.1,0,0.1,0.1,0.1,0.1l-0.1,0.1C121.4,100.1,121.4,100.1,121.4,100z M121.4,99.6c0-0.1,0.1-0.1,0.1-0.1c0.1,0,0.1,0.1,0.1,0.1l-0.1,0.1L121.4,99.6z M121.7,99.2c0-0.1,0.1-0.1,0.1-0.1 c0.1,0,0.1,0,0.1,0.1s-0.1,0.1-0.1,0.1L121.7,99.2z M122.1,99.1c0-0.1,0.1-0.1,0.1-0.1c0.1,0,0.1,0.1,0.1,0.1 c0,0.1-0.1,0.1-0.1,0.1C122.1,99.2,122.1,99.1,122.1,99.1z M122.5,99.1c0-0.1,0.1-0.1,0.1-0.1c0.1,0,0.1,0,0.1,0.1 s-0.1,0.1-0.1,0.1C122.5,99.2,122.5,99.2,122.5,99.1z"></path> </g> <path class="st6" d="M124.6,100.2L124.6,100.2c0.1,0.1,0.1,0.1,0.1,0.1c0,0.2,0.1,0.3,0.3,0.3c0.1,0,0.3-0.1,0.3-0.2v-0.1v0.1 c0,0.1,0.2,0.2,0.3,0.2c0.2,0,0.3-0.1,0.3-0.3l0,0l0.1-0.1l0.1,0.1v0.1c0,0.1,0.1,0.3,0.3,0.3c0.1,0,0.2,0,0.2-0.1l0.1-0.1v0.1 c0,0.1,0,0.2,0.1,0.2c0,0,0.1,0,0.2-0.1c0.1-0.1,0.2-0.2,0.2-0.2v0.1c0,0-0.1,0.2-0.3,0.3c-0.1,0-0.2,0.1-0.3,0.1 s-0.2-0.1-0.2-0.2c-0.1,0-0.1,0.1-0.2,0.1c-0.2,0-0.3-0.1-0.4-0.2c-0.1,0.1-0.2,0.1-0.3,0.1s-0.3-0.1-0.3-0.2 c-0.1,0.1-0.2,0.1-0.3,0.1c-0.2,0-0.3-0.1-0.4-0.2c-0.1,0.1-0.2,0.2-0.4,0.2c-0.1,0-0.2,0-0.3-0.1c-0.1,0.1-0.2,0.2-0.3,0.2 s-0.2-0.1-0.3-0.1c-0.1,0.1-0.2,0.2-0.4,0.2c-0.1,0-0.2,0-0.2-0.1c0,0.1-0.1,0.1-0.2,0.2c-0.1,0-0.2,0-0.3-0.1s-0.3-0.3-0.3-0.3 v-0.1c0,0,0.1,0.1,0.2,0.2c0.1,0.1,0.2,0.1,0.2,0.1c0.1,0,0.1-0.1,0.1-0.2v-0.1l0.1,0.1c0.1,0.1,0.1,0.1,0.2,0.1 c0.2,0,0.3-0.1,0.3-0.3v-0.1l0.1-0.1l0.1,0.1l0,0c0,0.2,0.1,0.3,0.3,0.3s0.3-0.1,0.3-0.2v-0.1v0.1c0,0.1,0.2,0.2,0.3,0.2 c0.2,0,0.3-0.1,0.3-0.3C124.5,100.2,124.5,100.2,124.6,100.2L124.6,100.2L124.6,100.2z"></path> <path class="st6" d="M124.6,101c-0.8,0-1.6,0.1-2.1,0.3h-0.1c0,0,0-0.1,0.1-0.1C123,101,123.8,100.8,124.6,101 c0.8-0.1,1.6,0,2.1,0.2l0.1,0.1c0,0-0.1,0.1-0.1,0C126.2,101.1,125.4,101,124.6,101L124.6,101z"></path> <path class="st4" d="M123.8,101.2c0-0.1,0.1-0.1,0.1-0.1c0.1,0,0.1,0.1,0.1,0.1l-0.1,0.1C123.9,101.3,123.8,101.2,123.8,101.2 L123.8,101.2z"></path> <g> <path class="st7" d="M123.8,101.2c0-0.1,0.1-0.1,0.1-0.1c0.1,0,0.1,0.1,0.1,0.1l-0.1,0.1C123.9,101.3,123.8,101.2,123.8,101.2z "></path> </g> <path class="st5" d="M124.6,101.2h-0.3c-0.1,0-0.1,0-0.1-0.1c0,0,0-0.1,0.1-0.1h0.5c0,0,0.1,0,0.1,0.1c0,0,0,0.1-0.1,0.1H124.6 L124.6,101.2z"></path> <g> <path class="st7" d="M124.6,101.2h-0.3c-0.1,0-0.1,0-0.1-0.1c0,0,0-0.1,0.1-0.1h0.5c0,0,0.1,0,0.1,0.1c0,0,0,0.1-0.1,0.1H124.6 L124.6,101.2z"></path> </g> <path class="st8" d="M123.3,101.3h-0.2c0,0-0.1,0-0.1-0.1c0,0,0-0.1,0.1-0.1h0.2h0.2c0,0,0.1,0,0.1,0.1c0,0,0,0.1-0.1,0.1H123.3 L123.3,101.3z"></path> <g> <path class="st7" d="M123.3,101.3h-0.2c0,0-0.1,0-0.1-0.1c0,0,0-0.1,0.1-0.1h0.2h0.2c0,0,0.1,0,0.1,0.1c0,0,0,0.1-0.1,0.1 H123.3L123.3,101.3z"></path> </g> <polygon class="st5" points="122.5,101.6 122.6,101.3 122.8,101.3 122.7,101.6 "></polygon> <g> <polygon class="st7" points="122.5,101.6 122.6,101.3 122.8,101.3 122.7,101.6 "></polygon> </g> <path class="st4" d="M125.2,101.2c0-0.1,0.1-0.1,0.1-0.1c0.1,0,0.1,0.1,0.1,0.1l-0.1,0.1C125.2,101.3,125.2,101.2,125.2,101.2 L125.2,101.2z"></path> <g> <path class="st7" d="M125.2,101.2c0-0.1,0.1-0.1,0.1-0.1c0.1,0,0.1,0.1,0.1,0.1l-0.1,0.1C125.2,101.3,125.2,101.2,125.2,101.2z "></path> </g> <path class="st8" d="M125.9,101.3h0.2c0,0,0.1,0,0.1-0.1c0,0,0-0.1-0.1-0.1h-0.2h-0.2c-0.1,0-0.1,0-0.1,0.1c0,0,0,0.1,0.1,0.1 H125.9L125.9,101.3z"></path> <g> <path class="st7" d="M125.9,101.3h0.2c0,0,0.1,0,0.1-0.1c0,0,0-0.1-0.1-0.1h-0.2h-0.2c-0.1,0-0.1,0-0.1,0.1c0,0,0,0.1,0.1,0.1 H125.9L125.9,101.3z"></path> </g> <polygon class="st5" points="126.7,101.6 126.6,101.3 126.4,101.3 126.5,101.6 "></polygon> <g> <polygon class="st7" points="126.7,101.6 126.6,101.3 126.4,101.3 126.5,101.6 "></polygon> </g> <path class="st6" d="M126.7,100.6L126.7,100.6c0-0.1-0.1-0.1-0.1,0s0,0.1,0,0.1C126.6,100.7,126.7,100.7,126.7,100.6 L126.7,100.6z"></path> <g> <path class="st7" d="M126.7,100.6L126.7,100.6c0-0.1-0.1-0.1-0.1,0s0,0.1,0,0.1C126.6,100.7,126.7,100.7,126.7,100.6z"></path> </g> <path class="st6" d="M125.4,100.3c0-0.1,0-0.1-0.1-0.1c0,0-0.1,0-0.1,0.1C125.2,100.3,125.3,100.3,125.4,100.3 C125.3,100.5,125.4,100.3,125.4,100.3L125.4,100.3z"></path> <g> <path class="st7" d="M125.4,100.3c0-0.1,0-0.1-0.1-0.1c0,0-0.1,0-0.1,0.1C125.2,100.3,125.3,100.3,125.4,100.3 C125.3,100.5,125.4,100.3,125.4,100.3z"></path> </g> <path class="st6" d="M123.8,100.3c0-0.1,0-0.1,0.1-0.1c0,0,0.1,0,0.1,0.1C124,100.3,124,100.3,123.8,100.3 C123.9,100.5,123.8,100.3,123.8,100.3L123.8,100.3z"></path> <g> <path class="st7" d="M123.8,100.3c0-0.1,0-0.1,0.1-0.1c0,0,0.1,0,0.1,0.1C124,100.3,124,100.3,123.8,100.3 C123.9,100.5,123.8,100.3,123.8,100.3z"></path> </g> <path class="st6" d="M122.5,100.6L122.5,100.6c0-0.1,0.1-0.1,0.1,0s0,0.1,0,0.1S122.5,100.7,122.5,100.6L122.5,100.6z"></path> <g> <path class="st7" d="M122.5,100.6L122.5,100.6c0-0.1,0.1-0.1,0.1,0s0,0.1,0,0.1S122.5,100.7,122.5,100.6z"></path> </g> <polygon class="st6" points="124.6,99.6 124.4,99.7 124.5,100.1 124.6,100.2 124.7,100.1 124.8,99.7 "></polygon> <g> <polygon class="st7" points="124.6,99.6 124.4,99.7 124.5,100.1 124.6,100.2 124.7,100.1 124.8,99.7 "></polygon> </g> <polygon class="st6" points="124.1,100.2 124.2,100.2 124.6,100.2 124.6,100.2 124.6,100.1 124.2,100 "></polygon> <g> <polygon class="st7" points="124.1,100.2 124.2,100.2 124.6,100.2 124.6,100.2 124.6,100.1 124.2,100 "></polygon> </g> <polygon class="st6" points="125.1,100.2 125,100.2 124.6,100.2 124.6,100.2 124.6,100.1 125,100 "></polygon> <g> <polygon class="st7" points="125.1,100.2 125,100.2 124.6,100.2 124.6,100.2 124.6,100.1 125,100 "></polygon> </g> <polygon class="st6" points="123.1,99.8 122.9,99.8 123.1,100.2 123.2,100.2 123.2,100.2 123.3,99.8 "></polygon> <g> <polygon class="st7" points="123.1,99.8 122.9,99.8 123.1,100.2 123.2,100.2 123.2,100.2 123.3,99.8 "></polygon> </g> <polygon class="st6" points="122.7,100.3 122.8,100.5 123.2,100.2 123.2,100.2 123.1,100.2 122.7,100.2 "></polygon> <g> <polygon class="st7" points="122.7,100.3 122.8,100.5 123.2,100.2 123.2,100.2 123.1,100.2 122.7,100.2 "></polygon> </g> <polygon class="st6" points="123.7,100.2 123.6,100.3 123.2,100.2 123.2,100.2 123.2,100.2 123.6,100 "></polygon> <g> <polygon class="st7" points="123.7,100.2 123.6,100.3 123.2,100.2 123.2,100.2 123.2,100.2 123.6,100 "></polygon> </g> <polygon class="st6" points="122.3,100.3 122.3,100.6 121.9,100.7 121.8,100.6 121.9,100.6 122.1,100.2 "></polygon> <g> <polygon class="st7" points="122.3,100.3 122.3,100.6 121.9,100.7 121.8,100.6 121.9,100.6 122.1,100.2 "></polygon> </g> <path class="st6" d="M123.1,100.2c0-0.1,0.1-0.1,0.1-0.1c0.1,0,0.1,0.1,0.1,0.1l-0.1,0.1C123.1,100.3,123.1,100.3,123.1,100.2 L123.1,100.2z"></path> <g> <path class="st7" d="M123.1,100.2c0-0.1,0.1-0.1,0.1-0.1c0.1,0,0.1,0.1,0.1,0.1l-0.1,0.1C123.1,100.3,123.1,100.3,123.1,100.2z "></path> </g> <polygon class="st6" points="126.1,99.8 126.3,99.8 126.1,100.2 126,100.2 126,100.2 125.9,99.8 "></polygon> <g> <polygon class="st7" points="126.1,99.8 126.3,99.8 126.1,100.2 126,100.2 126,100.2 125.9,99.8 "></polygon> </g> <polygon class="st6" points="126.5,100.3 126.4,100.5 126.1,100.2 126,100.2 126.1,100.2 126.5,100.2 "></polygon> <g> <polygon class="st7" points="126.5,100.3 126.4,100.5 126.1,100.2 126,100.2 126.1,100.2 126.5,100.2 "></polygon> </g> <polygon class="st6" points="125.5,100.2 125.6,100.3 126,100.2 126,100.2 126,100.2 125.7,100 "></polygon> <g> <polygon class="st7" points="125.5,100.2 125.6,100.3 126,100.2 126,100.2 126,100.2 125.7,100 "></polygon> </g> <polygon class="st6" points="126.8,100.3 126.9,100.6 127.3,100.7 127.3,100.6 127.3,100.6 127,100.2 "></polygon> <g> <polygon class="st7" points="126.8,100.3 126.9,100.6 127.3,100.7 127.3,100.6 127.3,100.6 127,100.2 "></polygon> </g> <path class="st6" d="M124.5,100.2c0-0.1,0.1-0.1,0.1-0.1c0.1,0,0.1,0.1,0.1,0.1c0,0.1-0.1,0.1-0.1,0.1 C124.5,100.2,124.5,100.2,124.5,100.2L124.5,100.2z"></path> <g> <path class="st7" d="M124.5,100.2c0-0.1,0.1-0.1,0.1-0.1c0.1,0,0.1,0.1,0.1,0.1c0,0.1-0.1,0.1-0.1,0.1 C124.5,100.2,124.5,100.2,124.5,100.2z"></path> </g> <path class="st6" d="M125.9,100.2c0-0.1,0.1-0.1,0.1-0.1c0.1,0,0.1,0.1,0.1,0.1l-0.1,0.1C126,100.3,125.9,100.3,125.9,100.2 L125.9,100.2z"></path> <g> <path class="st7" d="M125.9,100.2c0-0.1,0.1-0.1,0.1-0.1c0.1,0,0.1,0.1,0.1,0.1l-0.1,0.1C126,100.3,125.9,100.3,125.9,100.2z"></path> </g> <path class="st6" d="M124.4,98.7c0-0.1,0.1-0.2,0.3-0.2c0.1,0,0.3,0.1,0.3,0.2s-0.1,0.2-0.3,0.2C124.5,99,124.4,98.8,124.4,98.7 L124.4,98.7z"></path> <polygon class="st6" points="124.8,98.6 124.8,98.8 124.4,98.8 124.4,98.6 124.5,98.6 124.5,98.2 124.4,98.2 124.4,98.1 124.5,98.1 124.5,98 124.7,98 124.7,98.1 124.9,98.1 124.9,98.2 124.7,98.2 124.7,98.6 "></polygon> <g> <polygon class="st7" points="124.8,98.6 124.8,98.8 124.4,98.8 124.4,98.6 124.5,98.6 124.5,98.2 124.4,98.2 124.4,98.1 124.5,98.1 124.5,98 124.7,98 124.7,98.1 124.9,98.1 124.9,98.2 124.7,98.2 124.7,98.6 "></polygon> </g> <polygon class="st6" points="125,98.6 125,98.8 124.3,98.8 124.3,98.6 124.5,98.6 124.5,98.2 124.4,98.2 124.4,98.1 124.5,98.1 124.5,98 124.7,98 124.7,98.1 124.9,98.1 124.9,98.2 124.7,98.2 124.7,98.6 "></polygon> <path class="st6" d="M121.8,100.6c0,0-0.1-0.1-0.2-0.2c-0.1,0-0.2-0.1-0.2-0.1s0.1-0.1,0.2-0.1c0,0,0.1,0,0.1,0.1l0,0 c0,0,0.1,0,0.1,0.1C121.8,100.5,121.8,100.6,121.8,100.6L121.8,100.6L121.8,100.6z"></path> <g> <path class="st7" d="M121.8,100.6c0,0-0.1-0.1-0.2-0.2c-0.1,0-0.2-0.1-0.2-0.1s0.1-0.1,0.2-0.1c0,0,0.1,0,0.1,0.1l0,0 c0,0,0.1,0,0.1,0.1C121.8,100.5,121.8,100.6,121.8,100.6L121.8,100.6z"></path> </g> <path class="st6" d="M121.8,100.6h0.1c0.1,0,0.1,0.1,0,0.1L121.8,100.6L121.8,100.6L121.8,100.6z"></path> <g> <path class="st7" d="M121.8,100.6h0.1c0.1,0,0.1,0.1,0,0.1L121.8,100.6L121.8,100.6z"></path> </g> <path class="st6" d="M127.4,100.6c0,0,0.1-0.1,0.2-0.2c0.1,0,0.2-0.1,0.2-0.1s-0.1-0.1-0.2-0.1c0,0-0.1,0-0.1,0.1l0,0 c0,0-0.1,0-0.1,0.1C127.3,100.5,127.3,100.6,127.4,100.6C127.3,100.6,127.3,100.6,127.4,100.6L127.4,100.6z"></path> <g> <path class="st7" d="M127.4,100.6c0,0,0.1-0.1,0.2-0.2c0.1,0,0.2-0.1,0.2-0.1s-0.1-0.1-0.2-0.1c0,0-0.1,0-0.1,0.1l0,0 c0,0-0.1,0-0.1,0.1C127.3,100.5,127.3,100.6,127.4,100.6C127.3,100.6,127.3,100.6,127.4,100.6z"></path> </g> <path class="st6" d="M127.4,100.6h-0.1c0,0-0.1,0.1,0,0.1L127.4,100.6L127.4,100.6L127.4,100.6z"></path> <g> <path class="st7" d="M127.4,100.6h-0.1c0,0-0.1,0.1,0,0.1L127.4,100.6L127.4,100.6z"></path> </g> <rect x="121.6" y="102.2" class="st6" width="6.1" height="1.6"></rect> <path class="st6" d="M127,104.8h-0.1h-4.6h-0.1c0.2-0.1,0.3-0.2,0.3-0.4c0-0.2-0.1-0.3-0.3-0.4h0.1h4.6h0.1l0,0 c-0.2,0.1-0.3,0.2-0.3,0.4C126.8,104.6,126.9,104.8,127,104.8L127,104.8z"></path> <path class="st6" d="M122.3,104.8h4.6c0.2,0,0.3,0.1,0.3,0.2s-0.1,0.2-0.3,0.2h-4.6c-0.2,0-0.3-0.1-0.3-0.2 S122.2,104.8,122.3,104.8L122.3,104.8z"></path> <path class="st6" d="M122.3,103.8h4.6c0.2,0,0.3,0.1,0.3,0.2s-0.1,0.2-0.3,0.2h-4.6c-0.2,0-0.3-0.1-0.3-0.2 S122.2,103.8,122.3,103.8L122.3,103.8z"></path> <path class="st9" d="M120.3,130.8c0.4,0,0.8-0.1,1.1-0.2c0.3-0.1,0.6-0.2,1.1-0.2c0.4,0,0.8,0.1,1.1,0.2s0.7,0.2,1.1,0.2 c0.4,0,0.8-0.1,1.1-0.2c0.3-0.1,0.6-0.2,1-0.2s0.8,0.1,1.1,0.2s0.7,0.2,1.1,0.2v0.7c-0.4,0-0.8-0.1-1.1-0.2s-0.6-0.2-1.1-0.2 c-0.4,0-0.8,0.1-1,0.2c-0.3,0.1-0.7,0.2-1.1,0.2c-0.4,0-0.8-0.1-1.1-0.2s-0.7-0.2-1.1-0.2c-0.4,0-0.8,0.1-1.1,0.2 c-0.3,0.1-0.7,0.2-1.1,0.2V130.8L120.3,130.8z"></path> <path class="st4" d="M120.3,131.4c0.4,0,0.8-0.1,1.1-0.2s0.6-0.2,1.1-0.2c0.4,0,0.8,0.1,1.1,0.2c0.3,0.1,0.7,0.2,1.1,0.2 c0.4,0,0.8-0.1,1.1-0.2s0.6-0.2,1-0.2s0.8,0.1,1.1,0.2c0.3,0.1,0.7,0.2,1.1,0.2v0.7c-0.4,0-0.8-0.1-1.1-0.2 c-0.3-0.1-0.6-0.2-1.1-0.2c-0.4,0-0.8,0.1-1,0.2c-0.3,0.1-0.7,0.2-1.1,0.2c-0.4,0-0.8-0.1-1.1-0.2c-0.3-0.1-0.7-0.2-1.1-0.2 c-0.4,0-0.8,0.1-1.1,0.2s-0.7,0.2-1.1,0.2V131.4L120.3,131.4z"></path> <path class="st9" d="M120.3,132c0.4,0,0.8-0.1,1.1-0.2c0.3-0.1,0.6-0.2,1.1-0.2c0.4,0,0.8,0.1,1.1,0.2s0.7,0.2,1.1,0.2 c0.4,0,0.8-0.1,1.1-0.2c0.3-0.1,0.6-0.2,1-0.2s0.8,0.1,1.1,0.2s0.7,0.2,1.1,0.2v0.7c-0.4,0-0.8-0.1-1.1-0.2s-0.6-0.2-1.1-0.2 c-0.4,0-0.8,0.1-1,0.2c-0.3,0.1-0.7,0.3-1.1,0.3c-0.4,0-0.8-0.1-1.1-0.2s-0.7-0.2-1.1-0.2c-0.4,0-0.8,0.1-1.1,0.2 c-0.3,0.1-0.7,0.2-1.1,0.2V132L120.3,132z"></path> <path class="st4" d="M120.3,133.4c0.4,0,0.8-0.1,1.1-0.2s0.6-0.2,1.1-0.2c0.4,0,0.8,0.1,1.1,0.2c0.3,0.1,0.7,0.2,1.1,0.2 c0.4,0,0.8-0.1,1.1-0.3c0.3-0.1,0.6-0.2,1-0.2s0.8,0.1,1.1,0.2c0.3,0.1,0.7,0.2,1.1,0.2v-0.7c-0.4,0-0.8-0.1-1.1-0.3 c-0.3-0.1-0.6-0.2-1.1-0.2c-0.4,0-0.8,0.1-1,0.2c-0.3,0.1-0.7,0.3-1.1,0.3c-0.4,0-0.8-0.1-1.1-0.2c-0.3-0.1-0.7-0.2-1.1-0.2 c-0.4,0-0.8,0.1-1.1,0.2s-0.7,0.2-1.1,0.2V133.4L120.3,133.4z"></path> <path class="st9" d="M120.3,134c0.4,0,0.8-0.1,1.1-0.2c0.3-0.1,0.6-0.2,1.1-0.2c0.4,0,0.8,0.1,1.1,0.2s0.7,0.2,1.1,0.2 c0.4,0,0.8-0.1,1.1-0.3c0.3-0.1,0.6-0.2,1-0.2s0.8,0.1,1.1,0.2c0.3,0.2,0.7,0.3,1.1,0.3v-0.7c-0.4,0-0.8-0.1-1.1-0.3 c-0.3-0.1-0.6-0.2-1.1-0.2c-0.4,0-0.8,0.1-1,0.2c-0.3,0.2-0.7,0.3-1.1,0.3c-0.4,0-0.8-0.1-1.1-0.2s-0.7-0.2-1.1-0.2 c-0.4,0-0.8,0.1-1.1,0.2c-0.3,0.1-0.7,0.2-1.1,0.2V134L120.3,134z"></path> <path class="st6" d="M127,128c0,0.1,0,0.1,0,0.2c0,0.4,0.3,0.7,0.8,0.7h-6.3c0.4,0,0.8-0.3,0.8-0.7c0-0.1,0-0.1,0-0.2h0.1H127 C127,128.1,127,128.1,127,128L127,128z"></path> <path class="st6" d="M122.3,127.6h4.6c0.2,0,0.3,0.1,0.3,0.2s-0.1,0.2-0.3,0.2h-4.6c-0.2,0-0.3-0.1-0.3-0.2 C122.1,127.7,122.2,127.6,122.3,127.6L122.3,127.6z"></path> <rect x="121.5" y="128.9" class="st6" width="6.3" height="1.6"></rect> <path class="st5" d="M128.2,122c0.6,0.4,1,0.7,1,0.9c0,0.2-0.2,0.3-0.5,0.5c-0.4,0.3-0.7,0.9-0.5,1.1c-0.4-0.3-0.6-0.7-0.6-1.2 C127.6,122.7,127.8,122.2,128.2,122L128.2,122z"></path> <rect x="122.4" y="105.5" class="st4" width="4.5" height="21.9"></rect> <path class="st5" d="M117.8,113.7c1-0.4,2.6-0.7,4.5-0.8c0.7,0,1.4,0.1,2.1,0.2c2.7,0.4,4.7,1.5,4.5,2.4v0.1l1-2.3 c0.2-1-2.1-2.1-5-2.6c-0.9-0.2-1.8-0.2-2.6-0.2c-1.9,0-3.5,0.2-4.5,0.6V113.7L117.8,113.7z"></path> <path class="st5" d="M126.9,116.3c1.2-0.1,2.1-0.4,2.2-0.9c0.1-0.4-0.3-0.9-1.1-1.3c-0.3,0-0.7,0.1-1.1,0.1L126.9,116.3 L126.9,116.3z"></path> <path class="st5" d="M122.4,114.8c-0.8,0.1-1.4,0.3-1.6,0.5l0,0c-0.1,0.3,0.5,0.9,1.7,1.6L122.4,114.8L122.4,114.8z"></path> <path class="st5" d="M129.6,120.6c0.1-0.4-1.1-1.1-2.8-1.7c-0.8-0.3-1.4-0.6-2.2-0.9c-2.4-1-4.1-2.2-3.9-2.7l0,0 c-0.1,0.1-0.3,2.3-0.3,2.3c-0.2,0.4,1.4,1.6,3.6,2.6c0.7,0.3,2.2,0.9,2.9,1.1c1.2,0.4,2.5,1.2,2.4,1.6L129.6,120.6L129.6,120.6z "></path> <path class="st6" d="M120.6,112.7c0.2-0.6,0.4-1.3,0.6-1.9c-0.1,0-0.1,0-0.1,0s-0.1,0-0.2,0c-0.1,0.5-0.2,0.9-0.4,1.4 c-0.3-0.4-0.5-0.8-0.8-1.2c-0.1,0-0.2,0-0.3,0s-0.2,0-0.3,0c0.4,0.5,0.8,1.1,1.2,1.6h0.1C120.5,112.7,120.6,112.7,120.6,112.7 L120.6,112.7z"></path> <path class="st6" d="M122.3,110.8c-0.1,0-0.2,0-0.2,0c-0.1,0-0.2,0-0.2,0v1.8h1.2v-0.1v-0.1c-0.2,0-0.5,0-0.7,0L122.3,110.8 L122.3,110.8z"></path> <path class="st6" d="M124.2,111.1c0.2,0,0.4,0.1,0.6,0.1v-0.1V111l-1.7-0.1v0.1v0.1c0.2,0,0.4,0,0.6,0l-0.1,1.6 c0.1,0,0.2,0,0.2,0c0.1,0,0.2,0,0.2,0L124.2,111.1L124.2,111.1z"></path> <path class="st6" d="M124.9,112.8c0.1,0,0.2,0,0.2,0c0.1,0,0.2,0,0.2,0.1l0.2-0.8l0,0c0,0.1,0.1,0.2,0.1,0.3l0.2,0.6 c0.1,0,0.2,0,0.3,0.1c0.1,0,0.2,0,0.3,0.1l-0.1-0.2c-0.1-0.3-0.3-0.5-0.4-0.8c0.3,0,0.5-0.1,0.6-0.3c0-0.2,0-0.3-0.2-0.4 c-0.1-0.1-0.4-0.1-0.5-0.2l-0.7-0.1L124.9,112.8L124.9,112.8z M125.8,111.3c0.2,0,0.4,0.1,0.4,0.3c0,0.1,0,0.1,0,0.1 c-0.1,0.3-0.3,0.4-0.6,0.3L125.8,111.3L125.8,111.3z"></path> <path class="st6" d="M128.1,113.3c0,0.2,0,0.4-0.1,0.6c0.1,0,0.2,0.1,0.2,0.1c0.1,0,0.2,0.1,0.2,0.1l0.2-2c0,0-0.1,0-0.1-0.1 c0,0-0.1,0-0.1-0.1l-1.7,1.1c0,0,0.1,0,0.1,0.1c0.1,0,0.1,0.1,0.1,0.1c0.1-0.1,0.3-0.2,0.5-0.4L128.1,113.3L128.1,113.3z M127.6,113l0.6-0.4l-0.1,0.7L127.6,113L127.6,113z"></path> <path class="st5" d="M104,90.1c1.8,0,3.4,0.3,4.5,0.7c0.6,0.3,1.4,0.5,2.3,0.6c0.7,0.1,1.3,0.1,1.9,0.1c0.7,0,1.8,0.2,2.9,0.7 c0.9,0.4,1.6,0.9,2.1,1.3l-0.4,0.4l-0.1,1.1l-1.2,1.4l-0.6,0.5l-1.4,1.1l-0.7,0.1l-0.2,0.6l-9-1.1L95,98.6L94.8,98l-0.7-0.1 l-1.4-1.1l-0.6-0.5l-1.2-1.4l-0.1-1.1l-0.4-0.4c0.5-0.5,1.3-1,2.1-1.3c1.1-0.5,2.2-0.7,2.9-0.7c0.6,0,1.2,0,1.9-0.1 c0.9-0.1,1.7-0.3,2.3-0.6C100.6,90.3,102.1,90.1,104,90.1L104,90.1z"></path> <path class="st6" d="M104.1,102.1c-3.4,0-6.4-0.4-8.5-1.1c-0.2,0-0.2-0.2-0.2-0.3c0-0.1,0.1-0.3,0.2-0.3c2.2-0.6,5.2-1,8.5-1.1 c3.4,0,6.4,0.4,8.5,1.1c0.2,0,0.2,0.2,0.2,0.3c0,0.1-0.1,0.3-0.2,0.3C110.5,101.7,107.5,102.1,104.1,102.1L104.1,102.1z"></path> <g> <path class="st7" d="M104.3,101.6v-1.8V101.6z"></path> </g> <g> <path class="st7" d="M103.8,101.6v-1.8V101.6z"></path> </g> <g> <path class="st7" d="M103.4,101.6v-1.8V101.6z"></path> </g> <g> <path class="st7" d="M102.9,101.6v-1.8V101.6z"></path> </g> <g> <path class="st7" d="M102.5,101.6v-1.8V101.6z"></path> </g> <g> <path class="st7" d="M100,101.3V100V101.3z M100.4,101.3v-1.4V101.3z M100.7,101.5v-1.4V101.5z"></path> </g> <g> <path class="st7" d="M99.7,101.3V100V101.3z"></path> </g> <g> <path class="st7" d="M99.4,101.2v-1.2V101.2z"></path> </g> <g> <path class="st7" d="M99,101.2v-1.1V101.2z"></path> </g> <g> <path class="st7" d="M98.4,101.2v-0.9V101.2z M98.7,101.2v-1V101.2z"></path> </g> <g> <path class="st7" d="M98,101.1v-0.8V101.1z"></path> </g> <g> <path class="st7" d="M97.7,101v-0.6V101z"></path> </g> <g> <path class="st7" d="M97.3,101v-0.5V101z"></path> </g> <g> <path class="st7" d="M97,100.8v-0.4V100.8z"></path> </g> <g> <path class="st7" d="M96.6,100.8v-0.2V100.8z"></path> </g> <g> <path class="st7" d="M106.3,101.6V100V101.6z M105.4,101.6v-1.8V101.6z M104.8,101.6v-1.8V101.6z"></path> </g> <path class="st6" d="M104.1,99.2c-3.4,0-6.5,0.4-8.6,1.1c0.2-0.1,0.2-0.3-0.1-0.9c-0.3-0.7-0.7-0.7-0.7-0.7 c2.4-0.7,5.7-1.1,9.4-1.1s7,0.4,9.4,1.1c0,0-0.4,0-0.7,0.7c-0.2,0.6-0.2,0.8-0.1,0.9C110.6,99.7,107.5,99.2,104.1,99.2 L104.1,99.2z"></path> <path class="st6" d="M104.1,97.7c-3.7,0-7,0.4-9.4,1.1c-0.2,0.1-0.3,0-0.4-0.2c-0.1-0.1,0-0.3,0.2-0.4c2.4-0.7,5.8-1.2,9.6-1.2 s7.2,0.5,9.6,1.2c0.2,0,0.2,0.2,0.2,0.4c-0.1,0.1-0.2,0.2-0.4,0.2C111.1,98.2,107.8,97.7,104.1,97.7L104.1,97.7z"></path> <path class="st4" d="M101.5,98.6c0-0.2,0.1-0.3,0.3-0.3s0.3,0.1,0.3,0.3c0,0.2-0.1,0.3-0.3,0.3 C101.6,98.8,101.5,98.7,101.5,98.6L101.5,98.6z"></path> <g> <path class="st7" d="M101.5,98.6c0-0.2,0.1-0.3,0.3-0.3s0.3,0.1,0.3,0.3c0,0.2-0.1,0.3-0.3,0.3 C101.6,98.8,101.5,98.7,101.5,98.6L101.5,98.6z"></path> </g> <path class="st5" d="M104.1,98.8h-0.9c-0.2,0-0.3-0.1-0.3-0.3s0.1-0.3,0.3-0.3h1.8c0.2,0,0.3,0.1,0.3,0.3s-0.1,0.3-0.3,0.3 H104.1L104.1,98.8z"></path> <path class="st8" d="M99.6,99L99,99.1c-0.2,0-0.3-0.1-0.3-0.3c0-0.2,0.1-0.3,0.3-0.3l0.7-0.1l0.7-0.1c0.2,0,0.3,0.1,0.3,0.3 c0,0.1-0.1,0.3-0.3,0.3L99.6,99L99.6,99z"></path> <path class="st4" d="M96.9,99.1c0-0.2,0.1-0.3,0.3-0.3s0.3,0.1,0.3,0.3c0,0.2-0.1,0.3-0.3,0.3S96.9,99.2,96.9,99.1L96.9,99.1z"></path> <g> <path class="st7" d="M96.9,99.1c0-0.2,0.1-0.3,0.3-0.3s0.3,0.1,0.3,0.3c0,0.2-0.1,0.3-0.3,0.3S96.9,99.2,96.9,99.1L96.9,99.1z"></path> </g> <polygon class="st5" points="94.9,99.6 95.3,99.2 96.2,99.2 95.4,99.8 "></polygon> <path class="st8" d="M108.6,99l0.6,0.1c0.2,0,0.3-0.1,0.3-0.3c0-0.2-0.1-0.3-0.3-0.3l-0.7-0.1l-0.7-0.1c-0.2,0-0.3,0.1-0.3,0.3 c0,0.1,0.1,0.3,0.3,0.3L108.6,99L108.6,99z"></path> <path class="st4" d="M106.1,98.6c0-0.2,0.1-0.3,0.3-0.3s0.3,0.1,0.3,0.3c0,0.2-0.1,0.3-0.3,0.3 C106.3,98.8,106.1,98.7,106.1,98.6L106.1,98.6z"></path> <g> <path class="st7" d="M106.1,98.6c0-0.2,0.1-0.3,0.3-0.3s0.3,0.1,0.3,0.3c0,0.2-0.1,0.3-0.3,0.3 C106.3,98.8,106.1,98.7,106.1,98.6L106.1,98.6z"></path> </g> <path class="st4" d="M110.7,99.1c0-0.2,0.1-0.3,0.3-0.3s0.3,0.1,0.3,0.3c0,0.2-0.1,0.3-0.3,0.3 C110.8,99.3,110.7,99.2,110.7,99.1L110.7,99.1z"></path> <g> <path class="st7" d="M110.7,99.1c0-0.2,0.1-0.3,0.3-0.3s0.3,0.1,0.3,0.3c0,0.2-0.1,0.3-0.3,0.3 C110.8,99.3,110.7,99.2,110.7,99.1L110.7,99.1z"></path> </g> <polygon class="st5" points="113.3,99.6 112.9,99.2 112,99.2 112.8,99.8 "></polygon> <path class="st6" d="M97.3,92.5l0.4,0.3l0.6-0.9c-0.6-0.4-1-1-1-1.8c0-0.1,0-0.2,0-0.3c0.1-1.2,1.5-2.2,3.4-2.2 c1,0,1.8,0.3,2.4,0.7c0-0.2,0-0.3,0.1-0.5c-0.7-0.4-1.5-0.6-2.5-0.6c-2.1,0-3.8,1.2-3.9,2.6c0,0.1,0,0.2,0,0.3 c0,0.8,0.3,1.4,0.9,1.9L97.3,92.5L97.3,92.5z"></path> <path class="st6" d="M97.3,92.5c-0.7-0.5-1.2-1.3-1.2-2.1c0-0.9,0.6-1.8,1.5-2.3c-0.6,0.5-0.9,1.1-1,1.7c0,0.1,0,0.2,0,0.3 c0,0.8,0.3,1.4,0.9,1.9L97.3,92.5L97.3,92.5z"></path> <path class="st6" d="M90.9,93.5c-0.4-0.4-0.6-1-0.6-1.7c0-0.4,0.1-0.8,0.2-1.1c0.6-1.2,2.4-2.1,4.6-2.1c0.6,0,1.2,0.1,1.7,0.2 c-0.1,0.1-0.2,0.3-0.3,0.4c-0.4-0.1-0.9-0.1-1.4-0.1c-2,0-3.7,0.8-4.1,1.8c-0.1,0.3-0.2,0.6-0.2,0.9c0,0.6,0.3,1.2,0.8,1.6 l-0.7,1.2l-0.4-0.3L90.9,93.5L90.9,93.5z"></path> <path class="st6" d="M91.7,89.5c-0.5,0.3-0.9,0.7-1.1,1.2c-0.2,0.3-0.2,0.7-0.2,1.1c0,0.6,0.2,1.2,0.6,1.7l-0.4,0.7 c-0.4-0.5-0.7-1.2-0.7-1.8C89.8,91.2,90.6,90.2,91.7,89.5L91.7,89.5z"></path> <path class="st6" d="M104.1,87c0.5,0,0.9,0.3,1,0.7c0.1,0.4,0.1,0.8,0.1,1.3v0.1c0,0.1,0,0.1,0,0.2c0,1,0.2,1.8,0.3,2.3L104,93 l-1.5-1.4c0.2-0.5,0.3-1.4,0.3-2.3c0-0.1,0-0.1,0-0.2V89c0-0.5,0-0.9,0.1-1.3C103.2,87.2,103.6,87,104.1,87L104.1,87z"></path> <path class="st6" d="M104.1,87.5c0.3,0,0.5,0.2,0.5,0.4c0.1,0.4,0.1,0.8,0.1,1.2v0.1c0,0,0,0.1,0,0.2c0,0.9,0.1,1.7,0.3,2.2 l-1,0.9l-1-0.9c0.2-0.5,0.3-1.3,0.3-2.2c0-0.1,0-0.1,0-0.2v-0.1c0-0.4,0-0.8,0.1-1.2C103.6,87.6,103.8,87.5,104.1,87.5 L104.1,87.5z"></path> <path class="st6" d="M110.8,92.5l-0.4,0.3l-0.6-0.9c0.6-0.4,1-1,1-1.8c0-0.1,0-0.2,0-0.3c-0.1-1.2-1.5-2.2-3.4-2.2 c-1,0-1.8,0.3-2.4,0.7c0-0.2,0-0.3-0.1-0.5c0.7-0.4,1.5-0.6,2.5-0.6c2.1,0,3.8,1.2,3.9,2.6c0,0.1,0,0.2,0,0.3 c0,0.8-0.3,1.4-0.9,1.9L110.8,92.5L110.8,92.5z"></path> <path class="st6" d="M110.8,92.5c0.7-0.5,1.2-1.3,1.2-2.1c0-0.9-0.6-1.8-1.5-2.3c0.6,0.5,0.9,1.1,1,1.7c0,0.1,0,0.2,0,0.3 c0,0.8-0.3,1.4-0.9,1.9L110.8,92.5L110.8,92.5z"></path> <path class="st6" d="M117.2,93.5c0.4-0.4,0.7-1,0.7-1.7c0-0.4-0.1-0.8-0.2-1.1c-0.6-1.2-2.4-2.1-4.6-2.1c-0.6,0-1.2,0.1-1.7,0.2 c0.1,0.1,0.2,0.3,0.3,0.4c0.4-0.1,0.9-0.1,1.4-0.1c2,0,3.7,0.8,4.1,1.8c0.1,0.3,0.2,0.6,0.2,0.9c0,0.6-0.3,1.2-0.8,1.6l0.7,1.2 l0.4-0.3L117.2,93.5L117.2,93.5z"></path> <path class="st6" d="M116.4,89.5c0.5,0.3,0.9,0.7,1.1,1.2c0.2,0.3,0.2,0.7,0.2,1.1c0,0.6-0.2,1.2-0.7,1.7l0.4,0.7 c0.4-0.5,0.7-1.2,0.7-1.8C118.3,91.2,117.6,90.2,116.4,89.5L116.4,89.5z"></path> <path class="st4" d="M103.5,91.8c0-0.3,0.2-0.5,0.5-0.5s0.5,0.2,0.5,0.5s-0.2,0.5-0.5,0.5C103.8,92.2,103.5,92.1,103.5,91.8 L103.5,91.8z"></path> <path class="st4" d="M103.5,90.8c0-0.3,0.2-0.5,0.5-0.5s0.5,0.2,0.5,0.5s-0.2,0.5-0.5,0.5C103.8,91.3,103.5,91.2,103.5,90.8 L103.5,90.8z"></path> <path class="st4" d="M103.7,89.8c0-0.2,0.2-0.4,0.4-0.4s0.4,0.2,0.4,0.4c0,0.2-0.2,0.4-0.4,0.4 C103.8,90.2,103.7,90.1,103.7,89.8L103.7,89.8z"></path> <path class="st4" d="M103.8,88.8c0-0.2,0.1-0.3,0.3-0.3s0.3,0.1,0.3,0.3c0,0.2-0.1,0.3-0.3,0.3 C103.9,89.2,103.8,89.1,103.8,88.8L103.8,88.8z"></path> <g> <path class="st7" d="M103.8,88.8c0-0.2,0.1-0.3,0.3-0.3s0.3,0.1,0.3,0.3c0,0.2-0.1,0.3-0.3,0.3 C103.9,89.2,103.8,89.1,103.8,88.8L103.8,88.8z"></path> </g> <path class="st4" d="M103.8,88.1c0-0.1,0.1-0.2,0.2-0.2c0.1,0,0.2,0.1,0.2,0.2s-0.1,0.2-0.2,0.2 C103.9,88.2,103.8,88.2,103.8,88.1L103.8,88.1z"></path> <g> <path class="st7" d="M103.8,88.1c0-0.1,0.1-0.2,0.2-0.2c0.1,0,0.2,0.1,0.2,0.2s-0.1,0.2-0.2,0.2 C103.9,88.2,103.8,88.2,103.8,88.1L103.8,88.1z"></path> </g> <path class="st6" d="M104.1,94.8l0.3,0.1c-0.1,0.1-0.1,0.3-0.1,0.4c0,0.7,0.6,1.3,1.4,1.3c0.6,0,1.1-0.4,1.3-0.9 c0,0,0.1-0.5,0.2-0.5c0.1,0,0,0.5,0.1,0.5c0.1,0.6,0.7,1.1,1.3,1.1c0.7,0,1.3-0.6,1.3-1.3c0,0,0-0.1,0-0.2l0.4-0.4l0.2,0.5 c-0.1,0.2-0.1,0.4-0.1,0.6c0,0.7,0.6,1.2,1.3,1.2c0.4,0,0.8-0.2,1.1-0.5l0.3-0.3v0.4c0,0.4,0.2,0.8,0.6,0.9c0,0,0.5,0,1.1-0.5 s1-0.9,1-0.9l0.1,0.5c0,0-0.5,0.8-1.1,1.1c-0.3,0.2-0.8,0.4-1.2,0.3s-0.7-0.4-0.8-0.8c-0.3,0.2-0.6,0.3-1,0.3 c-0.8,0-1.5-0.4-1.7-1.1c-0.4,0.4-0.8,0.6-1.4,0.6c-0.6,0-1.2-0.3-1.5-0.7c-0.3,0.3-0.8,0.5-1.3,0.5c-0.7,0-1.3-0.3-1.6-0.8 c-0.3,0.5-0.9,0.8-1.6,0.8c-0.5,0-1-0.2-1.3-0.5c-0.4,0.4-0.9,0.7-1.5,0.7s-1.1-0.2-1.4-0.6c-0.3,0.6-1,1.1-1.7,1.1 c-0.4,0-0.7-0.1-1-0.3c-0.1,0.4-0.4,0.7-0.8,0.8c-0.4,0.1-0.9-0.1-1.2-0.3c-0.6-0.3-1.1-1.1-1.1-1.1l0.1-0.5c0,0,0.3,0.4,1,0.9 c0.6,0.5,1.1,0.5,1.1,0.5c0.4-0.1,0.6-0.4,0.6-0.9v-0.4l0.3,0.3c0.2,0.3,0.6,0.5,1.1,0.5c0.7,0,1.3-0.5,1.3-1.2 c0-0.2,0-0.4-0.1-0.6l0.2-0.5l0.4,0.4c0,0.1,0,0.1,0,0.2c0,0.7,0.6,1.3,1.3,1.3s1.3-0.4,1.3-1.1c0,0,0-0.5,0.1-0.5 s0.2,0.5,0.2,0.5c0.2,0.5,0.7,0.9,1.3,0.9c0.7,0,1.3-0.6,1.3-1.3C104.2,95.1,104.2,95,104.1,94.8L104.1,94.8L104.1,94.8z"></path> <path class="st4" d="M113.4,96.5c0.1-0.2,0-0.5-0.2-0.5c-0.2-0.1-0.4,0.1-0.4,0.3c-0.1,0.2,0,0.5,0.2,0.5 C113.1,96.8,113.3,96.7,113.4,96.5L113.4,96.5z"></path> <path class="st4" d="M107.5,95.3c0-0.2-0.1-0.4-0.3-0.5c-0.2,0-0.3,0.2-0.4,0.4c0,0.2,0.1,0.4,0.3,0.5 C107.3,95.8,107.5,95.6,107.5,95.3L107.5,95.3z"></path> <path class="st4" d="M100.7,95.3c0-0.2,0.1-0.4,0.3-0.5c0.2,0,0.3,0.2,0.4,0.4c0,0.2-0.1,0.4-0.3,0.5 C100.9,95.8,100.7,95.6,100.7,95.3L100.7,95.3z"></path> <path class="st4" d="M94.8,96.5c-0.1-0.2,0-0.5,0.2-0.5c0.2-0.1,0.4,0.1,0.4,0.3c0.1,0.2,0,0.5-0.2,0.5 C95.1,96.8,94.9,96.7,94.8,96.5L94.8,96.5z"></path> <g> <path class="st7" d="M94.8,96.5c-0.1-0.2,0-0.5,0.2-0.5c0.2-0.1,0.4,0.1,0.4,0.3c0.1,0.2,0,0.5-0.2,0.5 C95.1,96.8,94.9,96.7,94.8,96.5L94.8,96.5z"></path> </g> <path class="st6" d="M97.4,92.6c0.3,0.2,0.5,0.5,0.6,0.8c0,0,0-0.1,0.2-0.2s0.3-0.1,0.3-0.1s0,0.3-0.1,0.4c0,0.1,0,0.4-0.1,0.6 c-0.1,0.3-0.2,0.5-0.2,0.5c-0.1-0.1-0.3-0.1-0.4-0.1c-0.2,0-0.3,0.1-0.4,0.3c0,0-0.2-0.2-0.3-0.4c-0.1-0.2-0.3-0.5-0.3-0.6 c-0.1-0.1-0.2-0.3-0.2-0.3s0.1,0,0.3,0s0.2,0.1,0.2,0.1C97.1,93.2,97.2,92.8,97.4,92.6L97.4,92.6z"></path> <path class="st6" d="M97.5,95.3c-0.1-0.1-0.2-0.2-0.2-0.3c0-0.1,0-0.2,0.1-0.3c0,0-0.2-0.1-0.5-0.2c-0.2,0-0.5-0.1-0.6-0.1 s-0.3,0-0.3,0s0,0,0.1,0.2c0.1,0.1,0.1,0.2,0.1,0.2c-0.3,0.1-0.6,0.3-0.8,0.6c0.3,0.2,0.6,0.3,1,0.3c0,0,0,0.1-0.1,0.2 c0,0.1,0,0.2,0,0.2s0.2-0.1,0.3-0.1s0.4-0.1,0.6-0.3C97.3,95.6,97.5,95.3,97.5,95.3L97.5,95.3z"></path> <path class="st6" d="M98.3,95.2c0.1-0.1,0.1-0.2,0.1-0.3c0-0.1-0.1-0.2-0.2-0.3c0,0,0.2-0.2,0.4-0.3c0.2-0.1,0.5-0.2,0.6-0.3 c0.1,0,0.3-0.1,0.3-0.1s0,0,0,0.2c0,0.1-0.1,0.2-0.1,0.2c0.4,0,0.7,0.1,1,0.3c-0.2,0.3-0.5,0.5-0.8,0.6c0,0,0.1,0.1,0.1,0.2 c0.1,0.1,0.1,0.1,0.1,0.1s-0.2,0-0.3,0s-0.5,0-0.7-0.1C98.5,95.3,98.3,95.2,98.3,95.2L98.3,95.2z"></path> <path class="st5" d="M97.3,95c0-0.3,0.3-0.6,0.6-0.6s0.6,0.3,0.6,0.6c0,0.3-0.3,0.6-0.6,0.6C97.5,95.6,97.3,95.2,97.3,95 L97.3,95z"></path> <path class="st6" d="M104.1,91.7c0.3,0.3,0.5,0.7,0.5,1c0,0,0-0.1,0.2-0.1c0.2-0.1,0.4,0,0.4,0s-0.1,0.3-0.2,0.4 c0,0.1-0.1,0.4-0.2,0.7c-0.1,0.3-0.3,0.5-0.3,0.5c-0.1-0.1-0.3-0.2-0.5-0.2s-0.4,0.1-0.5,0.2c0,0-0.2-0.2-0.3-0.5 S103,93.1,103,93s-0.2-0.4-0.2-0.4s0.2,0,0.4,0c0.2,0.1,0.3,0.1,0.3,0.1C103.6,92.2,103.8,92,104.1,91.7L104.1,91.7z"></path> <path class="st6" d="M103.6,94.8c-0.1-0.1-0.1-0.2-0.1-0.4c0-0.1,0-0.3,0.1-0.4c0,0-0.2-0.2-0.5-0.3c-0.2-0.1-0.6-0.2-0.7-0.2 c-0.1,0-0.4-0.1-0.4-0.1s0,0.1,0.1,0.2c0.1,0.2,0.1,0.3,0.1,0.3c-0.4,0-0.8,0.2-1,0.5c0.3,0.3,0.6,0.5,1,0.5 c0,0-0.1,0.1-0.1,0.3c0,0.1-0.1,0.2-0.1,0.2s0.2,0,0.4-0.1c0.1,0,0.5-0.1,0.7-0.2C103.4,95,103.6,94.8,103.6,94.8L103.6,94.8z"></path> <path class="st6" d="M104.5,94.8c0.1-0.1,0.1-0.2,0.1-0.4c0-0.1-0.1-0.3-0.1-0.4c0,0,0.2-0.2,0.5-0.3c0.2-0.1,0.6-0.2,0.7-0.2 c0.1,0,0.3-0.1,0.3-0.1s0,0.1-0.1,0.2c-0.1,0.2-0.1,0.3-0.1,0.3c0.4,0,0.8,0.2,1,0.5c-0.3,0.3-0.6,0.5-1,0.5 c0,0,0.1,0.1,0.1,0.3c0,0.1,0.1,0.2,0.1,0.2s-0.2,0-0.3-0.1c-0.1,0-0.5-0.1-0.7-0.2S104.5,94.8,104.5,94.8L104.5,94.8z"></path> <path class="st6" d="M110.8,92.6c-0.3,0.2-0.5,0.5-0.6,0.8c0,0,0-0.1-0.2-0.2s-0.3-0.1-0.3-0.1s0,0.3,0.1,0.4 c0,0.1,0,0.4,0.1,0.6c0.1,0.3,0.2,0.5,0.2,0.5c0.1-0.1,0.3-0.1,0.4-0.1c0.2,0,0.3,0.1,0.4,0.3c0,0,0.2-0.2,0.3-0.4 c0.1-0.2,0.3-0.5,0.3-0.6c0.1-0.1,0.2-0.3,0.2-0.3s-0.1,0-0.3,0s-0.2,0.1-0.2,0.1C111.2,93.2,111,92.8,110.8,92.6L110.8,92.6z"></path> <path class="st6" d="M110.7,95.3c0.1-0.1,0.2-0.2,0.2-0.3c0-0.1,0-0.2-0.1-0.3c0,0,0.2-0.1,0.5-0.2c0.2,0,0.5-0.1,0.6-0.1 s0.3,0,0.3,0s0,0-0.1,0.2c-0.1,0.1-0.1,0.2-0.1,0.2c0.3,0.1,0.6,0.3,0.8,0.6c-0.3,0.2-0.6,0.3-1,0.3c0,0,0,0.1,0,0.2 s0,0.2,0,0.2s-0.2-0.1-0.3-0.1s-0.4-0.1-0.6-0.3C110.9,95.6,110.7,95.3,110.7,95.3L110.7,95.3z"></path> <path class="st6" d="M109.9,95.2c-0.1-0.1-0.1-0.2-0.1-0.3c0-0.1,0.1-0.2,0.2-0.3c0,0-0.2-0.2-0.4-0.3c-0.2-0.1-0.5-0.2-0.6-0.3 c-0.1,0-0.3-0.1-0.3-0.1s0,0,0,0.2c0,0.1,0.1,0.2,0.1,0.2c-0.4,0-0.7,0.1-1,0.3c0.2,0.3,0.5,0.5,0.8,0.6c0,0-0.1,0.1-0.1,0.2 c-0.1,0.1-0.1,0.1-0.1,0.1s0.2,0,0.3,0s0.5,0,0.6-0.1C109.7,95.3,109.9,95.2,109.9,95.2L109.9,95.2z"></path> <path class="st5" d="M109.8,95c0-0.3,0.3-0.6,0.6-0.6s0.6,0.3,0.6,0.6c0,0.3-0.3,0.6-0.6,0.6C110,95.6,109.8,95.2,109.8,95 L109.8,95z"></path> <path class="st5" d="M116.4,96.2c-0.1-0.2-0.4-0.1-0.6,0.1c-0.2,0.2-0.3,0.5-0.1,0.6c0.1,0.1,0.4,0.1,0.6-0.1 S116.6,96.3,116.4,96.2L116.4,96.2z"></path> <path class="st6" d="M115.6,96.6c0-0.1,0.1-0.2,0.2-0.3c0.2-0.2,0.5-0.2,0.6-0.1c0,0,0,0,0,0.1c0,0,0.3-0.6,0.7-0.8 c0.4-0.2,1-0.1,1-0.1c0-0.4-0.4-0.8-0.8-0.8c-0.3,0-0.5,0.1-0.7,0.3l-0.1-0.3c0,0-0.4,0.1-0.5,0.5c-0.2,0.4,0,1.1,0,1.1 s-0.1-0.3-0.2-0.4c-0.1-0.2-0.5-0.4-0.7-0.5s-0.4-0.2-0.4-0.2s0,0,0,0.2c0,0.1,0,0.2,0,0.2c-0.3,0-0.7,0-1,0.1 c0.1,0.3,0.4,0.5,0.7,0.6c0,0-0.1,0.1-0.2,0.2c-0.1,0.1-0.1,0.1-0.1,0.1s0.2,0,0.4,0c0.1,0,0.5,0.1,0.7,0.1 C115.3,96.7,115.5,96.6,115.6,96.6L115.6,96.6z"></path> <path class="st6" d="M92.6,96.6c0-0.1-0.1-0.2-0.2-0.3c-0.2-0.2-0.5-0.2-0.6-0.1c0,0,0,0,0,0.1c0,0-0.3-0.6-0.7-0.8 c-0.4-0.2-1-0.1-1-0.1c0-0.4,0.4-0.8,0.8-0.8c0.3,0,0.5,0.1,0.7,0.3l0.1-0.3c0,0,0.4,0.1,0.5,0.5c0.2,0.4,0,1.1,0,1.1 s0.1-0.3,0.2-0.4c0.1-0.2,0.5-0.4,0.7-0.5s0.4-0.2,0.4-0.2s0,0,0,0.2c0,0.1,0,0.2,0,0.2c0.3,0,0.7,0,1.1,0.1 c-0.1,0.3-0.4,0.5-0.7,0.6c0,0,0.1,0.1,0.2,0.2c0.1,0.1,0.1,0.1,0.1,0.1s-0.2,0-0.3,0s-0.5,0.1-0.7,0.1 C92.9,96.7,92.7,96.6,92.6,96.6L92.6,96.6z"></path> <path class="st5" d="M91.8,96.2c0.1-0.2,0.4-0.1,0.6,0.1c0.2,0.2,0.3,0.5,0.1,0.6c-0.1,0.1-0.4,0.1-0.6-0.1S91.6,96.3,91.8,96.2 L91.8,96.2z"></path> <path class="st5" d="M103.5,94.5c0-0.3,0.3-0.6,0.6-0.6s0.6,0.3,0.6,0.6c0,0.3-0.3,0.6-0.6,0.6C103.8,95,103.5,94.8,103.5,94.5 L103.5,94.5z"></path> <path class="st9" d="M102.9,85.8c0-0.6,0.5-1.1,1.2-1.1s1.2,0.5,1.2,1.1s-0.5,1.2-1.2,1.2C103.4,87.1,102.9,86.5,102.9,85.8 L102.9,85.8z"></path> <path class="st6" d="M103.8,82.7v0.6h-0.7v0.6h0.7v0.9v1H103c0,0.1-0.1,0.1-0.1,0.2c0,0.2,0,0.3,0.1,0.5l0,0h2.2l0,0 c0.1-0.1,0.1-0.3,0.1-0.5c0-0.1-0.1-0.1-0.1-0.2h-0.8v-1v-0.9h0.7v-0.6h-0.7v-0.6H103.8z"></path> <path class="st4" d="M104.2,134.5c-3.6,0-7.2-0.9-10.1-2.3c-2.2-1.1-3.7-3.3-3.7-5.8v-9.2H118v9.1c0,2.5-1.5,4.7-3.7,5.8 C111.3,133.5,107.8,134.5,104.2,134.5L104.2,134.5z"></path> <rect x="104.1" y="101.8" class="st4" width="13.8" height="15.3"></rect> <path class="st5" d="M104.1,126.2c0,3.6-3.1,6.5-6.9,6.5c-3.8,0-6.9-2.9-6.9-6.5v-9.1h13.8L104.1,126.2L104.1,126.2z"></path> <path class="st6" d="M93.4,131.6c0.4,0.2,1,0.6,1.7,0.8v-15.6h-1.6L93.4,131.6L93.4,131.6z"></path> <path class="st6" d="M90.3,126.2c0,1.9,0.8,3.4,1.6,4.3v-13.6h-1.6V126.2z"></path> <path class="st6" d="M96.4,132.8c0.6,0.1,1.1,0,1.6,0v-16h-1.6V132.8z"></path> <path class="st6" d="M99.5,132.5c0.6-0.1,1.3-0.5,1.7-0.7v-14.9h-1.6L99.5,132.5z"></path> <rect x="90.4" y="101.8" class="st5" width="13.8" height="15.3"></rect> <path class="st6" d="M102.6,130.4c0.7-0.6,1.3-2,1.5-3.5v-10h-1.6L102.6,130.4z"></path> <path class="st5" d="M118,117.2v9.2c0,3.6-3.1,6.5-6.9,6.5c-3.8,0-6.9-2.9-6.9-6.5v-9.2H118L118,117.2z"></path> <path class="st6" d="M106.7,124.1L106.7,124.1c0,0.3-0.1,0.4-0.3,0.4s-0.3-0.1-0.3-0.3v-0.1h-0.4v0.1c0,0.3,0.2,0.6,0.5,0.7v1.1 h0.5v-1.1c0.2-0.1,0.4-0.2,0.5-0.4h1.3V124L106.7,124.1L106.7,124.1z M112.9,124.1v0.4h-1.1c0,0,0,0.1-0.1,0.1l1.3,1.5l-0.4,0.3 l-1.3-1.5c0,0,0,0-0.1,0v2.5h-0.5v-2.5c0,0,0,0-0.1,0l-1.4,1.5l-0.4-0.3l1.4-1.5c0,0,0-0.1-0.1-0.1h-1.2v-0.4H112.9L112.9,124.1 z M113.6,124.1v0.4h1.3c0.1,0.2,0.2,0.4,0.5,0.4v1.1h0.5v-1.1c0.3-0.1,0.5-0.4,0.5-0.7v-0.1H116v0.1c0,0.2-0.1,0.3-0.3,0.3 s-0.3-0.1-0.3-0.3v-0.1L113.6,124.1L113.6,124.1z M111.7,130.4c0.4-0.1,0.7-0.2,1-0.3l0.2,0.4c-0.4,0.2-0.8,0.3-1.2,0.4 c-0.1,0.3-0.4,0.6-0.7,0.6c-0.4,0-0.7-0.2-0.7-0.5c-0.5-0.1-0.9-0.2-1.3-0.4l0.2-0.4c0.4,0.1,0.7,0.3,1.1,0.3 c0.1-0.2,0.2-0.3,0.4-0.4v-1.9h0.5v1.9C111.4,130,111.6,130.1,111.7,130.4L111.7,130.4z M108.5,129.8l-0.2,0.4 c-0.4-0.2-0.7-0.5-1-0.9c-0.2,0.1-0.5,0-0.7-0.1c-0.3-0.3-0.4-0.7-0.1-1l0,0c-0.2-0.4-0.3-0.9-0.4-1.4h0.5 c0,0.4,0.1,0.8,0.3,1.2c0.1,0,0.3,0,0.4,0l1.2-1.3l0.4,0.3l-1.2,1.3c0.2,0.2,0.2,0.5,0,0.8C107.9,129.2,108.2,129.5,108.5,129.8 L108.5,129.8z M106.8,128.4c0.1-0.1,0.3-0.1,0.5,0c0.1,0.1,0.1,0.3,0,0.4s-0.3,0.1-0.5,0C106.7,128.6,106.7,128.5,106.8,128.4 L106.8,128.4z M106.2,127.1l-0.5-0.1l-0.1-1.2l0.5-0.2v0.7C106.1,126.6,106.2,126.8,106.2,127.1L106.2,127.1z M106.6,125.6 l0.5,0.1c0,0,0,0.8,0,0.6c0-0.2,0.1,0.6,0.1,0.6l-0.5,0.2c-0.1-0.3-0.1-0.5-0.1-0.8V125.6L106.6,125.6z M108.2,129.5 c0.4,0.3,0.9,0.6,1.4,0.7l0.1-0.5c-0.4-0.1-0.8-0.3-1.1-0.6L108.2,129.5L108.2,129.5z M108,129.9c0.4,0.3,0.9,0.6,1.4,0.7 l-0.4,0.3c-0.4-0.1-0.8-0.3-1.1-0.6L108,129.9L108,129.9z M108.6,127.2l0.5,0.2l0.8-0.9l-0.3-0.4L108.6,127.2L108.6,127.2z M108.2,126.8l-0.3-0.4l0.8-0.9l0.5,0.2L108.2,126.8L108.2,126.8z M113.4,129.8l0.2,0.4c0.4-0.2,0.7-0.5,1-0.9 c0.2,0.1,0.5,0,0.7-0.1c0.3-0.3,0.4-0.7,0.1-1l0,0c0.2-0.4,0.3-0.9,0.4-1.4h-0.5c0,0.4-0.1,0.8-0.3,1.2c-0.1,0-0.3,0-0.4,0 l-1.2-1.3l-0.4,0.3l1.2,1.3c-0.2,0.2-0.2,0.5,0,0.8C114,129.2,113.7,129.5,113.4,129.8L113.4,129.8z M115.2,128.4 c-0.1-0.1-0.3-0.1-0.5,0c-0.1,0.1-0.2,0.3,0,0.4c0.1,0.1,0.3,0.1,0.5,0C115.3,128.6,115.3,128.5,115.2,128.4L115.2,128.4z M115.7,127.1l0.5-0.1l0.1-1.2l-0.5-0.2v0.7C115.8,126.6,115.8,126.8,115.7,127.1L115.7,127.1z M115.3,125.6l-0.5,0.1 c0,0,0,0.8,0,0.6c0-0.2,0,0.6,0,0.6l0.5,0.2c0-0.3,0.1-0.5,0.1-0.8v-0.7C115.4,125.5,115.3,125.5,115.3,125.6z M113.8,129.5 c-0.4,0.3-0.9,0.6-1.4,0.7l-0.1-0.5c0.4-0.1,0.8-0.3,1.1-0.6L113.8,129.5L113.8,129.5z M114,129.9c-0.4,0.3-0.9,0.6-1.4,0.7 l0.4,0.3c0.4-0.1,0.8-0.3,1.1-0.6L114,129.9L114,129.9z M113.4,127.2l-0.5,0.2l-0.8-0.9l0.3-0.4L113.4,127.2L113.4,127.2z M113.7,126.8l0.3-0.4l-0.8-0.9l-0.5,0.2L113.7,126.8L113.7,126.8z M108,124.5l0.1,0.5h1.3l0.1-0.5H108L108,124.5z M114,124.5 l-0.1,0.5h-1.3l-0.1-0.5H114L114,124.5z M110.7,130.6c0-0.2,0.1-0.3,0.3-0.3s0.3,0.1,0.3,0.3c0,0.2-0.1,0.3-0.3,0.3 S110.7,130.9,110.7,130.6L110.7,130.6z M111.2,128.5l0.5-0.1v-1.2l-0.5-0.1V128.5L111.2,128.5z M110.8,128.5l-0.5-0.1v-1.2 l0.5-0.1V128.5L110.8,128.5z"></path> <path class="st6" d="M105.6,124.1c0.1-0.3,0.2-0.5,0.5-0.5v-1.5h0.5v1.5c0.2,0.1,0.4,0.2,0.5,0.5h1.3v0.1h-1.7 c0-0.1-0.2-0.2-0.3-0.2s-0.2,0.1-0.3,0.2L105.6,124.1L105.6,124.1z M109.1,124.1L109.1,124.1l1.2-0.1c0,0,0-0.1,0.1-0.1 l-1.4-1.6l0.4-0.3l1.4,1.6h0.1v-2.1h0.5v2.1h0.1l1.4-1.6l0.4,0.3l-1.4,1.6c0,0,0.1,0.1,0.1,0.2h1.1v0.1L109.1,124.1L109.1,124.1 z M115.3,124.1c0-0.1,0.2-0.2,0.3-0.2s0.2,0.1,0.3,0.2h0.4c-0.1-0.3-0.3-0.5-0.5-0.5v-1.5h-0.5v1.5c-0.2,0.1-0.4,0.2-0.5,0.5 h-1.3v0.1L115.3,124.1L115.3,124.1z M106.7,119.8l1.7,1.9l0.4-0.3l-1.7-1.9c0-0.1,0.1-0.1,0.1-0.2h1.3v-0.4h-1.3 c-0.1-0.3-0.4-0.5-0.7-0.5c-0.4,0-0.7,0.3-0.7,0.7c0,0.3,0.2,0.6,0.5,0.7v1.5h0.5L106.7,119.8 C106.6,119.8,106.7,119.8,106.7,119.8L106.7,119.8z M115.8,119.8v1.5h-0.5v-1.5h-0.1l-1.7,1.9l-0.4-0.3l1.8-2v-0.1h-1.3v-0.4 h1.3c0.1-0.3,0.4-0.5,0.7-0.5c0.4,0,0.7,0.3,0.7,0.7C116.3,119.5,116.1,119.8,115.8,119.8L115.8,119.8z M111.2,119.8v0.9h-0.5 v-0.9c-0.2-0.1-0.4-0.2-0.5-0.5h-1.1v-0.4h1.1c0.1-0.3,0.4-0.5,0.7-0.5s0.6,0.2,0.7,0.5h1.2v0.4h-1.2 C111.6,119.6,111.4,119.8,111.2,119.8L111.2,119.8z M106.2,121l-0.5,0.1v1.2l0.5,0.1V121L106.2,121z M106.6,121l0.5,0.1v1.2 l-0.5,0.1V121L106.6,121z M115.3,121l-0.5,0.1v1.2l0.5,0.1V121L115.3,121z M115.8,121l0.5,0.1v1.2l-0.5,0.1V121L115.8,121z M108.5,121.2l0.5-0.2l0.8,0.9l-0.3,0.4L108.5,121.2L108.5,121.2z M108.2,121.5l-0.3,0.4l0.8,0.9l0.5-0.2L108.2,121.5 L108.2,121.5z M113.4,121.2l-0.5-0.2l-0.8,0.9l0.3,0.4L113.4,121.2L113.4,121.2z M113.8,121.3l0.3,0.4l-0.8,0.9l-0.5-0.2 L113.8,121.3L113.8,121.3z M108,124l0.1-0.5h1.3l0.1,0.5H108L108,124z M106.1,119.2c0-0.2,0.1-0.3,0.3-0.3s0.3,0.1,0.3,0.3 c0,0.2-0.1,0.3-0.3,0.3C106.2,119.5,106.1,119.2,106.1,119.2L106.1,119.2z M109.5,119.3l-0.1,0.5h-1.3l-0.1-0.5H109.5 L109.5,119.3z M109.5,118.8l-0.1-0.5h-1.3l-0.1,0.5H109.5L109.5,118.8z M114,124l-0.1-0.5h-1.3l-0.1,0.5H114L114,124z M115.3,119.2c0-0.2,0.1-0.3,0.3-0.3s0.3,0.1,0.3,0.3c0,0.2-0.1,0.3-0.3,0.3C115.4,119.5,115.3,119.2,115.3,119.2L115.3,119.2z M110.7,119.2c0-0.2,0.1-0.3,0.3-0.3s0.3,0.1,0.3,0.3c0,0.2-0.1,0.3-0.3,0.3S110.7,119.2,110.7,119.2L110.7,119.2z M112.5,119.3 l0.1,0.5h1.3l0.1-0.5H112.5L112.5,119.3z M112.5,118.8l0.1-0.5h1.3l0.1,0.5H112.5L112.5,118.8z M110.8,120.3l-0.5,0.1v1.2 l0.5,0.1V120.3L110.8,120.3z M111.2,120.3l0.5,0.1v1.2l-0.5,0.1V120.3L111.2,120.3z"></path> <g> <path class="st6" d="M111.2,121.8v-1.5l0.5,0.1v1.3L111.2,121.8L111.2,121.8z M111.2,120.3v1.4l0.4-0.1v-1.2L111.2,120.3 L111.2,120.3z M110.8,121.8l-0.5-0.1v-1.3l0.5-0.2V121.8L110.8,121.8z"></path> </g> <path class="st8" d="M110.3,124.2c0-0.4,0.3-0.7,0.8-0.7c0.4,0,0.7,0.3,0.7,0.7c0,0.4-0.3,0.7-0.7,0.7 C110.6,125,110.3,124.6,110.3,124.2L110.3,124.2z"></path> <path class="st10" d="M111.2,105.7v-0.2v-0.1c0,0-0.4,0-0.7,0c-0.2-0.1-0.4-0.2-0.7-0.3c-0.2-0.2-0.3-0.3-0.5-0.3 c-0.4-0.1-0.7,0.1-0.7,0.1s0.3,0.1,0.5,0.4s0.4,0.4,0.5,0.4c0.2,0.1,0.7,0,0.9,0C110.8,105.6,111.2,105.7,111.2,105.7 L111.2,105.7z"></path> <path class="st11" d="M113.2,105c0,0,0,0.2,0,0.4c0,0.2-0.1,0.3,0,0.4c0,0.1,0,0.2,0.1,0.3c0,0.1,0.1,0.3,0.1,0.3 s-0.1-0.1-0.2-0.1c-0.1-0.1-0.2-0.1-0.2-0.1s0,0.2,0,0.3c0,0.1,0.1,0.2,0.1,0.3c0.1,0.1,0.2,0.3,0.3,0.4s0,0.4,0,0.4 s-0.1-0.2-0.2-0.2c-0.1,0-0.3-0.2-0.3-0.2s0.2,0.2,0.2,0.4c0,0.2-0.1,0.4-0.1,0.4s-0.1-0.2-0.2-0.3c-0.1-0.1-0.3-0.2-0.3-0.2 s0.1,0.3,0.1,0.5s0,0.7,0,0.7s-0.1-0.2-0.2-0.3c-0.1-0.1-0.2-0.1-0.3-0.2c0-0.1,0.1,0.2,0.1,0.3c0,0.1,0.1,0.6,0.5,1.3 c0.3,0.4,0.7,1,1.5,0.8c0.9-0.2,0.5-1.4,0.4-1.9c-0.2-0.5-0.3-1.1-0.3-1.3c0-0.2,0.2-0.8,0.1-0.9c0-0.1-0.1-0.5,0-0.9 s0.2-0.5,0.3-0.7c0.1-0.1,0.1-0.2,0.1-0.4c0-0.1,0-0.4,0-0.4s0.2,0.3,0.2,0.4s0,0.4,0,0.4s0-0.3,0.3-0.5 c0.2-0.1,0.5-0.3,0.6-0.4s0.1-0.1,0.1-0.1s0,0.5-0.2,0.7c-0.1,0.1-0.5,0.6-0.5,0.6s0.2-0.1,0.3-0.1s0.2,0,0.2,0 s-0.2,0.1-0.4,0.5c-0.2,0.3-0.1,0.3-0.3,0.6c-0.2,0.3-0.3,0.3-0.5,0.4c-0.3,0.2-0.1,1.2-0.1,1.3c0,0.1,0.6,1.3,0.6,1.6 c0,0.3,0.1,0.9-0.4,1.3c-0.3,0.3-0.8,0.3-1,0.3c-0.1,0.1-0.4,0.3-0.4,0.8s0.2,0.6,0.3,0.7s0.3,0.1,0.4,0.1 c0,0.1,0.1,0.1,0.1,0.2c0.1,0.1,0.1,0.1,0.1,0.2s-0.2,0.3-0.3,0.5s-0.2,0.6-0.2,0.7s0,0.3,0.1,0.4c0,0,0.2,0.3,0.1,0.3 c-0.1,0-0.2-0.1-0.3-0.1c-0.2,0-0.2,0.1-0.3,0.1s-0.1-0.1-0.1-0.2s0-0.2,0-0.2c-0.1,0-0.1,0-0.1,0.1s0,0.2-0.1,0.2 s-0.2-0.1-0.2-0.1c-0.1,0-0.2-0.1-0.2-0.1c0-0.1,0.1-0.2,0.2-0.3c0.1,0,0.2-0.1,0.1-0.1c-0.1-0.1-0.1-0.1-0.2,0 c-0.1,0.1-0.2,0-0.2-0.1s0-0.2,0-0.2s-0.1-0.1,0-0.2c0.2-0.1,0.2,0.1,0.4,0c0.2,0,0.2-0.1,0.3-0.2s0.1-0.3-0.1-0.4 c-0.1-0.1-0.2-0.1-0.3-0.2c0-0.1-0.1-0.3-0.1-0.3s0,0.3,0,0.4v0.2c0,0-0.1-0.1-0.2-0.2c-0.1-0.1-0.2-0.4-0.2-0.4s0,0.3,0,0.4 s0.1,0.2,0.1,0.2s-0.2-0.2-0.3-0.2c0,0-0.2-0.2-0.3-0.3c-0.1-0.1-0.1-0.3-0.1-0.4s-0.1-0.4,0-0.4c0-0.1,0.1-0.3,0.1-0.3h-0.4 c-0.2,0-0.4-0.1-0.4,0.1c-0.1,0.1,0,0.4,0.1,0.8s0.2,0.5,0.1,0.6c0,0.1-0.2,0.2-0.2,0.3c-0.1,0-0.2,0-0.2,0 c-0.1,0-0.2-0.1-0.3-0.1c-0.2,0-0.3,0-0.4,0c-0.1,0-0.2-0.1-0.3-0.1s-0.2,0.1-0.2,0.2c0.1,0.2-0.1,0.2-0.1,0.2 c-0.1,0-0.1,0-0.2-0.1c-0.1,0-0.2,0-0.2-0.1s0.1-0.1,0.1-0.2s0.1-0.1,0-0.1s-0.1,0-0.2,0c-0.1,0-0.1,0.1-0.2,0.1 c-0.1,0-0.1-0.1-0.1-0.3c0-0.2-0.2-0.3,0-0.3s0.4,0.1,0.4,0s0-0.1-0.1-0.2s-0.2-0.1-0.1-0.2c0.1-0.1,0.2-0.1,0.2-0.1 c0-0.1,0.1-0.2,0.2-0.2c0.2,0.1,0,0.2,0.2,0.4c0.2,0.2,0.3,0.3,0.6,0.2c0.3,0,0.4-0.1,0.4-0.1c0-0.1,0-0.2,0-0.3 c0-0.1,0-0.3,0-0.3s-0.1,0.1-0.2,0.2c0,0.1-0.1,0.2-0.1,0.2s0-0.2,0-0.3c0-0.1,0-0.2,0-0.2c0-0.1-0.1-0.3-0.1-0.3s0,0.2-0.1,0.3 c0,0.1,0,0.3,0,0.3s-0.2-0.2-0.1-0.4c0-0.2,0-0.5,0-0.6c0.1-0.1,0.2-0.5,0.6-0.5c0.4,0,0.6,0,0.8,0c0.1,0,0.6-0.1,0.6-0.1 s-0.8-0.4-1-0.5s-0.5-0.4-0.6-0.6s-0.2-0.4-0.2-0.4s-0.1,0-0.3,0.1c-0.1,0.1-0.3,0.2-0.3,0.3c-0.1,0.1-0.2,0.3-0.2,0.3v-0.3 c0-0.1,0-0.2,0-0.2s-0.1,0.4-0.3,0.5s-0.4,0.3-0.4,0.3v-0.2v-0.3c0,0-0.1,0.2-0.3,0.2s-0.5,0-0.5,0.2c0,0.1,0.1,0.3,0,0.4 c0,0.1-0.1,0.1-0.1,0.1s-0.1-0.1-0.2-0.1c-0.1,0-0.2,0-0.2,0s-0.1-0.1-0.1-0.2s0.2-0.2,0.1-0.2c0,0-0.2,0-0.2,0.1 c-0.1,0-0.2,0.1-0.2-0.1c0-0.1,0.1-0.2,0-0.3c0-0.1,0-0.1,0-0.2c0.1,0,0.3,0,0.3,0c0-0.1-0.1-0.1-0.2-0.2 c-0.2,0-0.2-0.1-0.2-0.2c0.1-0.1,0.1-0.1,0.1-0.2s0.1-0.2,0.2-0.1c0.1,0.1,0.1,0.2,0.3,0.3c0.2,0.1,0.5,0,0.6-0.1 c0.1,0,0.3-0.2,0.4-0.3c0.1,0,0.4-0.3,0.4-0.3s-0.2-0.1-0.3-0.2s-0.2-0.3-0.3-0.3s-0.4-0.2-0.5-0.2s-0.5-0.1-0.5-0.1l0.2-0.1 c0.1,0,0.2-0.2,0.2-0.1c0.1,0,0.1,0,0.1,0s-0.3,0-0.4,0c-0.1,0-0.3-0.1-0.3-0.1c-0.1,0-0.2,0-0.2,0s0.2-0.1,0.4-0.2 c0.2,0,0.3,0,0.3,0s-0.3-0.1-0.3-0.2c-0.1-0.1-0.1-0.2-0.2-0.3c0-0.1-0.1-0.1-0.2-0.2c-0.1,0-0.2,0.1-0.3,0.1s-0.1-0.1-0.2-0.2 c0-0.1,0-0.1,0-0.1c0-0.1-0.2-0.2,0-0.3c0.1,0,0.4,0,0.4,0s-0.1-0.2-0.2-0.2c-0.1,0-0.3-0.1-0.2-0.2s0.2-0.1,0.2-0.2 s0.1-0.3,0.2-0.2c0.1,0.1,0.2,0.3,0.3,0.3s0.1-0.2,0.1-0.3c0-0.1,0-0.2,0.1-0.2s0.1,0.1,0.3,0.1c0.1,0,0.3,0,0.3,0.1 s-0.1,0.2-0.2,0.3c-0.1,0.1-0.1,0.3-0.1,0.4c0.1,0.1,0.2,0.3,0.3,0.4s0.4,0.1,0.5,0.2s0.5,0.4,0.6,0.4s0.2,0.1,0.2,0.1 s0.1-0.1,0.3-0.1s0.6,0,0.7,0c0.2-0.1,0.4-0.2,0.3-0.3c-0.1-0.1-0.4-0.3-0.4-0.4s0.2-0.1,0.4-0.1s0.5,0,0.5-0.3 c0.1-0.3,0.1-0.5-0.2-0.5c-0.3-0.1-0.5-0.1-0.6-0.3c-0.1-0.2-0.1-0.3,0-0.3c0.1-0.1,0.2-0.1,0.4-0.1s0.5,0,0.5-0.1 c0.1,0,0.1-0.2,0.2-0.3c0.1-0.1,0.4-0.1,0.4-0.1s0.4,0.2,0.8,0.5C112.9,104.7,113.2,105,113.2,105L113.2,105z"></path> <g> <path class="st7" d="M110.4,104.8c0,0,0-0.1-0.1-0.2v-0.1c0,0,0.2,0,0.2,0.1C110.5,104.7,110.5,104.7,110.4,104.8L110.4,104.8z "></path> </g> <g> <path class="st7" d="M111.5,104.3L111.5,104.3c0-0.1,0.2-0.1,0.3,0c0.2,0.1,0.3,0.3,0.3,0.3l-0.2-0.1h-0.1 C111.6,104.6,111.6,104.6,111.5,104.3C111.6,104.5,111.6,104.5,111.5,104.3L111.5,104.3L111.5,104.3z"></path> </g> <g> <path class="st7" d="M113,106.1c0,0-0.1-0.1-0.1-0.2l-0.1-0.1L113,106.1z"></path> </g> <path class="st10" d="M107.3,104.8c0,0,0.1,0.1,0.2,0.1c0.1,0,0.2,0,0.2,0s0-0.1,0-0.3c-0.1-0.3-0.4-0.4-0.4-0.4s0.1,0.2,0,0.3 C107.4,104.7,107.3,104.8,107.3,104.8L107.3,104.8z"></path> <g> <path class="st7" d="M107.3,104.8c0,0,0.1,0.1,0.2,0.1c0.1,0,0.2,0,0.2,0s0-0.1,0-0.3c-0.1-0.3-0.4-0.4-0.4-0.4s0.1,0.2,0,0.3 C107.4,104.7,107.3,104.8,107.3,104.8z"></path> </g> <path class="st10" d="M106.7,105.1c0,0-0.1-0.2-0.4-0.2c-0.2,0-0.4,0.2-0.4,0.2h0.3c0.1,0.1,0.1,0.2,0.1,0.2s0.1-0.1,0.2-0.1 S106.7,105.1,106.7,105.1L106.7,105.1z"></path> <g> <path class="st7" d="M106.7,105.1c0,0-0.1-0.2-0.4-0.2c-0.2,0-0.4,0.2-0.4,0.2h0.3c0.1,0.1,0.1,0.2,0.1,0.2s0.1-0.1,0.2-0.1 S106.7,105.1,106.7,105.1z"></path> </g> <path class="st10" d="M106.4,105.8c0,0-0.2,0-0.3,0.2c-0.1,0.1-0.1,0.4-0.1,0.4s0.1-0.1,0.3-0.1c0.1,0,0.3,0,0.3,0 s-0.1-0.1-0.1-0.2C106.5,106.1,106.4,105.8,106.4,105.8L106.4,105.8z"></path> <g> <polygon class="st7" points="110.4,105.8 110.5,105.8 110.6,105.8 "></polygon> </g> <g> <polygon class="st7" points="110.6,105.8 110.7,105.8 110.8,105.8 "></polygon> </g> <g> <polygon class="st7" points="110.5,105 110.7,105.1 110.5,105.2 "></polygon> </g> <g> <polygon class="st7" points="110.8,105.1 111,105.1 110.8,105.2 "></polygon> </g> <path class="st10" d="M107.1,108.7c0,0-0.1-0.1-0.3-0.1s-0.3,0.3-0.3,0.3s0.2,0,0.3,0s0.2,0.1,0.2,0.1l0.1-0.1 C107,108.8,107.1,108.7,107.1,108.7L107.1,108.7z"></path> <g> <path class="st7" d="M107.1,108.7c0,0-0.1-0.1-0.3-0.1s-0.3,0.3-0.3,0.3s0.2,0,0.3,0s0.2,0.1,0.2,0.1l0.1-0.1 C107,108.8,107.1,108.7,107.1,108.7L107.1,108.7z"></path> </g> <path class="st10" d="M106.9,109.5c0,0-0.2,0-0.3,0.1s-0.2,0.3-0.2,0.3s0.1-0.1,0.3-0.1c0.1,0,0.2,0.1,0.2,0.1s0-0.1,0-0.2 C106.9,109.7,106.9,109.5,106.9,109.5L106.9,109.5z"></path> <g> <path class="st7" d="M106.9,109.5c0,0-0.2,0-0.3,0.1s-0.2,0.3-0.2,0.3s0.1-0.1,0.3-0.1c0.1,0,0.2,0.1,0.2,0.1s0-0.1,0-0.2 C106.9,109.7,106.9,109.5,106.9,109.5z"></path> </g> <path class="st10" d="M107.3,110.2c0,0,0,0.2,0.1,0.3c0.1,0.1,0.3,0.2,0.3,0.2s-0.1-0.1-0.1-0.2s0.1-0.2,0.1-0.2 s-0.1-0.1-0.2-0.1C107.4,110.2,107.3,110.2,107.3,110.2L107.3,110.2z"></path> <g> <path class="st7" d="M107.3,110.2c0,0,0,0.2,0.1,0.3c0.1,0.1,0.3,0.2,0.3,0.2s-0.1-0.1-0.1-0.2s0.1-0.2,0.1-0.2 s-0.1-0.1-0.2-0.1C107.4,110.2,107.3,110.2,107.3,110.2z"></path> </g> <path class="st10" d="M109.3,112.2c0,0-0.1-0.2-0.3-0.2s-0.4,0.2-0.4,0.2s0.2,0,0.3,0.1s0.1,0.2,0.1,0.2s0.1-0.1,0.2-0.1 C109.2,112.2,109.3,112.2,109.3,112.2L109.3,112.2z"></path> <g> <path class="st7" d="M109.3,112.2c0,0-0.1-0.2-0.3-0.2s-0.4,0.2-0.4,0.2s0.2,0,0.3,0.1s0.1,0.2,0.1,0.2s0.1-0.1,0.2-0.1 C109.2,112.2,109.3,112.2,109.3,112.2z"></path> </g> <path class="st10" d="M108.7,113c0,0-0.3,0-0.4,0.1c-0.1,0.1-0.1,0.4-0.1,0.4s0.2-0.2,0.3-0.1c0.1,0,0.3,0.1,0.3,0.1 s0-0.1,0-0.2C108.7,113.1,108.7,113,108.7,113L108.7,113z"></path> <g> <path class="st7" d="M108.7,113c0,0-0.3,0-0.4,0.1c-0.1,0.1-0.1,0.4-0.1,0.4s0.2-0.2,0.3-0.1c0.1,0,0.3,0.1,0.3,0.1 s0-0.1,0-0.2C108.7,113.1,108.7,113,108.7,113z"></path> </g> <path class="st10" d="M109.2,113.8c0,0-0.1,0.2,0,0.3c0.1,0.1,0.3,0.2,0.3,0.2s-0.1-0.1,0-0.2c0-0.1,0.2-0.2,0.2-0.2 L109.2,113.8L109.2,113.8z"></path> <g> <path class="st7" d="M109.2,113.8c0,0-0.1,0.2,0,0.3c0.1,0.1,0.3,0.2,0.3,0.2s-0.1-0.1,0-0.2c0-0.1,0.2-0.2,0.2-0.2 L109.2,113.8L109.2,113.8z"></path> </g> <path class="st10" d="M112.6,114.1c0,0-0.2-0.1-0.3,0s-0.2,0.4-0.2,0.4s0.2-0.2,0.3-0.2s0.3,0.1,0.3,0.1s0-0.1,0-0.2 C112.7,114.2,112.6,114.1,112.6,114.1L112.6,114.1z"></path> <path class="st10" d="M112.7,115c0,0-0.2,0.2-0.1,0.3c0.1,0.1,0.2,0.3,0.2,0.3s0-0.2,0.1-0.3c0.1-0.1,0.3-0.1,0.3-0.1 s-0.1-0.1-0.2-0.1C112.9,115,112.7,115,112.7,115L112.7,115z"></path> <g> <path class="st7" d="M112.7,115c0,0-0.2,0.2-0.1,0.3c0.1,0.1,0.2,0.3,0.2,0.3s0-0.2,0.1-0.3c0.1-0.1,0.3-0.1,0.3-0.1 s-0.1-0.1-0.2-0.1C112.9,115,112.7,115,112.7,115z"></path> </g> <path class="st10" d="M113.6,115.2c0,0-0.1,0.2,0.1,0.4c0.2,0.1,0.3,0.1,0.3,0.1s-0.1-0.2-0.1-0.3c0-0.1,0.1-0.2,0.1-0.2 l-0.2-0.1C113.8,115.1,113.6,115.2,113.6,115.2L113.6,115.2z"></path> <g> <path class="st7" d="M113.6,115.2c0,0-0.1,0.2,0.1,0.4c0.2,0.1,0.3,0.1,0.3,0.1s-0.1-0.2-0.1-0.3c0-0.1,0.1-0.2,0.1-0.2 l-0.2-0.1C113.8,115.1,113.6,115.2,113.6,115.2z"></path> </g> <path class="st12" d="M104.9,130.4c0.6,0.2,0.9,0.6,0.9,1.1c0,0.7-0.6,1.1-1.5,1.1c-0.8,0-1.5-0.5-1.5-1.1c0-0.5,0.3-1,0.8-1.1 c0,0,0-0.1-0.1-0.1c-0.1-0.1-0.2-0.2-0.2-0.2s0.2,0,0.3,0s0.2,0.1,0.2,0.1s0.1-0.1,0.1-0.2c0.1-0.1,0.2-0.1,0.2-0.1 s0.1,0.1,0.2,0.2c0,0.1,0.1,0.2,0.1,0.2s0.1-0.1,0.2-0.1c0.1,0,0.2-0.1,0.2-0.1s0,0.1-0.1,0.2 C104.9,130.2,104.9,130.4,104.9,130.4L104.9,130.4z"></path> <path class="st8" d="M104.1,133.4c0,0-1.1-0.7-1.6-0.8c-0.6-0.1-1.3,0-1.6,0c0,0,0.4,0.3,0.5,0.4c0.1,0.1,0.7,0.4,0.9,0.5 C103.3,133.6,104.1,133.4,104.1,133.4L104.1,133.4z"></path> <path class="st8" d="M104.5,133.5c0,0,0.7-0.7,1.4-0.8c0.9-0.1,1.4,0.1,1.8,0.2c0,0-0.3,0.1-0.4,0.2c-0.2,0.1-0.5,0.4-1.1,0.4 s-1.3-0.1-1.4,0C104.6,133.4,104.5,133.5,104.5,133.5L104.5,133.5z"></path> <path class="st8" d="M104,134c0,0,0.2-0.4,0.2-0.8c0-0.3,0-0.6,0-0.6h0.1h0.1c0,0,0.1,0.3,0.1,0.6c0,0.3,0,0.7,0,0.7h-0.2 C104.1,134,104,134,104,134L104,134z"></path> <path class="st4" d="M117.8,94.5c0-0.2,0.1-0.3,0.3-0.3s0.3,0.1,0.3,0.3c0,0.2-0.1,0.3-0.3,0.3 C117.9,94.8,117.8,94.7,117.8,94.5L117.8,94.5z"></path> <g> <ellipse class="st7" cx="118.1" cy="94.5" rx="0.3" ry="0.3"></ellipse> </g> <path class="st4" d="M118.2,93.8c0-0.2,0.1-0.3,0.3-0.3s0.3,0.1,0.3,0.3c0,0.2-0.1,0.3-0.3,0.3S118.2,94,118.2,93.8L118.2,93.8z "></path> <g> <ellipse class="st7" cx="118.5" cy="93.8" rx="0.3" ry="0.3"></ellipse> </g> <path class="st4" d="M118.5,92.8c0-0.1,0.1-0.3,0.3-0.3s0.3,0.1,0.3,0.3c0,0.2-0.1,0.3-0.3,0.3S118.5,93.1,118.5,92.8 L118.5,92.8z"></path> <g> <path class="st7" d="M118.5,92.8c0-0.1,0.1-0.3,0.3-0.3s0.3,0.1,0.3,0.3c0,0.2-0.1,0.3-0.3,0.3S118.5,93.1,118.5,92.8z"></path> </g> <path class="st4" d="M118.5,92c0-0.2,0.1-0.3,0.3-0.3s0.3,0.1,0.3,0.3c0,0.2-0.1,0.3-0.3,0.3C118.6,92.2,118.5,92.2,118.5,92 L118.5,92z"></path> <g> <path class="st7" d="M118.5,92c0-0.2,0.1-0.3,0.3-0.3s0.3,0.1,0.3,0.3c0,0.2-0.1,0.3-0.3,0.3C118.6,92.2,118.5,92.2,118.5,92z"></path> </g> <path class="st4" d="M118.3,91.2c0-0.2,0.1-0.3,0.3-0.3s0.3,0.1,0.3,0.3c0,0.2-0.1,0.3-0.3,0.3 C118.4,91.3,118.3,91.2,118.3,91.2L118.3,91.2z"></path> <g> <path class="st7" d="M118.3,91.2c0-0.2,0.1-0.3,0.3-0.3s0.3,0.1,0.3,0.3c0,0.2-0.1,0.3-0.3,0.3 C118.4,91.3,118.3,91.2,118.3,91.2z"></path> </g> <path class="st4" d="M117.8,90.2c0-0.2,0.1-0.3,0.3-0.3s0.3,0.1,0.3,0.3c0,0.2-0.1,0.3-0.3,0.3C118,90.6,117.8,90.5,117.8,90.2 L117.8,90.2z"></path> <g> <path class="st7" d="M117.8,90.2c0-0.2,0.1-0.3,0.3-0.3s0.3,0.1,0.3,0.3c0,0.2-0.1,0.3-0.3,0.3C118,90.6,117.8,90.5,117.8,90.2 z"></path> </g> <path class="st4" d="M117.2,89.7c0-0.2,0.1-0.3,0.3-0.3s0.3,0.1,0.3,0.3c0,0.2-0.1,0.3-0.3,0.3S117.2,89.8,117.2,89.7 L117.2,89.7z"></path> <g> <ellipse class="st7" cx="117.5" cy="89.7" rx="0.3" ry="0.3"></ellipse> </g> <path class="st4" d="M116.5,89.1c0-0.2,0.1-0.3,0.3-0.3s0.3,0.1,0.3,0.3c0,0.2-0.1,0.3-0.3,0.3 C116.6,89.3,116.5,89.2,116.5,89.1L116.5,89.1z"></path> <g> <path class="st7" d="M116.5,89.1c0-0.2,0.1-0.3,0.3-0.3s0.3,0.1,0.3,0.3c0,0.2-0.1,0.3-0.3,0.3 C116.6,89.3,116.5,89.2,116.5,89.1z"></path> </g> <path class="st4" d="M115.6,88.7c0-0.2,0.1-0.3,0.3-0.3s0.3,0.1,0.3,0.3c0,0.2-0.1,0.3-0.3,0.3C115.8,89,115.6,88.8,115.6,88.7 L115.6,88.7z"></path> <g> <ellipse class="st7" cx="115.9" cy="88.7" rx="0.3" ry="0.3"></ellipse> </g> <path class="st4" d="M114.7,88.2c0-0.2,0.1-0.3,0.3-0.3s0.3,0.1,0.3,0.3s-0.1,0.3-0.3,0.3C114.9,88.6,114.7,88.5,114.7,88.2 L114.7,88.2z"></path> <g> <path class="st7" d="M114.7,88.2c0-0.2,0.1-0.3,0.3-0.3s0.3,0.1,0.3,0.3s-0.1,0.3-0.3,0.3C114.9,88.6,114.7,88.5,114.7,88.2z"></path> </g> <path class="st4" d="M113.7,88.2c0-0.2,0.1-0.3,0.3-0.3s0.3,0.1,0.3,0.3c0,0.1-0.1,0.3-0.3,0.3 C113.9,88.5,113.7,88.2,113.7,88.2L113.7,88.2z"></path> <g> <path class="st7" d="M113.7,88.2c0-0.2,0.1-0.3,0.3-0.3s0.3,0.1,0.3,0.3c0,0.1-0.1,0.3-0.3,0.3 C113.9,88.5,113.7,88.2,113.7,88.2z"></path> </g> <path class="st4" d="M112.8,88.1c0-0.2,0.1-0.3,0.3-0.3s0.3,0.1,0.3,0.3c0,0.2-0.1,0.3-0.3,0.3 C112.9,88.3,112.8,88.2,112.8,88.1L112.8,88.1z"></path> <g> <path class="st7" d="M112.8,88.1c0-0.2,0.1-0.3,0.3-0.3s0.3,0.1,0.3,0.3c0,0.2-0.1,0.3-0.3,0.3 C112.9,88.3,112.8,88.2,112.8,88.1z"></path> </g> <path class="st4" d="M111.9,88.2c0-0.2,0.1-0.3,0.3-0.3s0.3,0.1,0.3,0.3c0,0.2-0.1,0.3-0.3,0.3S111.9,88.2,111.9,88.2 L111.9,88.2z"></path> <g> <path class="st7" d="M111.9,88.2c0-0.2,0.1-0.3,0.3-0.3s0.3,0.1,0.3,0.3c0,0.2-0.1,0.3-0.3,0.3S111.9,88.2,111.9,88.2z"></path> </g> <path class="st4" d="M110.9,88.2c0-0.2,0.1-0.3,0.3-0.3s0.3,0.1,0.3,0.3c0,0.2-0.1,0.3-0.3,0.3 C111.1,88.3,110.9,88.2,110.9,88.2L110.9,88.2z"></path> <g> <path class="st7" d="M110.9,88.2c0-0.2,0.1-0.3,0.3-0.3s0.3,0.1,0.3,0.3c0,0.2-0.1,0.3-0.3,0.3 C111.1,88.3,110.9,88.2,110.9,88.2z"></path> </g> <path class="st4" d="M111.4,88.8c0-0.2,0.1-0.3,0.3-0.3s0.3,0.1,0.3,0.3c0,0.2-0.1,0.3-0.3,0.3S111.4,89.1,111.4,88.8 L111.4,88.8z"></path> <g> <path class="st7" d="M111.4,88.8c0-0.2,0.1-0.3,0.3-0.3s0.3,0.1,0.3,0.3c0,0.2-0.1,0.3-0.3,0.3S111.4,89.1,111.4,88.8 L111.4,88.8z"></path> </g> <path class="st4" d="M111.6,89.8c0-0.2,0.1-0.3,0.3-0.3s0.3,0.1,0.3,0.3s-0.1,0.3-0.3,0.3C111.7,90.1,111.6,90,111.6,89.8 L111.6,89.8z"></path> <g> <path class="st7" d="M111.6,89.8c0-0.2,0.1-0.3,0.3-0.3s0.3,0.1,0.3,0.3s-0.1,0.3-0.3,0.3C111.7,90.1,111.6,90,111.6,89.8 L111.6,89.8z"></path> </g> <path class="st4" d="M111.6,90.7c0-0.2,0.1-0.3,0.3-0.3s0.3,0.1,0.3,0.3s-0.1,0.3-0.3,0.3C111.8,91,111.6,90.8,111.6,90.7 L111.6,90.7z"></path> <g> <path class="st7" d="M111.6,90.7c0-0.2,0.1-0.3,0.3-0.3s0.3,0.1,0.3,0.3s-0.1,0.3-0.3,0.3C111.8,91,111.6,90.8,111.6,90.7 L111.6,90.7z"></path> </g> <path class="st4" d="M111.4,91.5c0-0.1,0.1-0.3,0.3-0.3s0.3,0.1,0.3,0.3c0,0.2-0.1,0.3-0.3,0.3 C111.5,91.8,111.4,91.6,111.4,91.5L111.4,91.5z"></path> <g> <path class="st7" d="M111.4,91.5c0-0.1,0.1-0.3,0.3-0.3s0.3,0.1,0.3,0.3c0,0.2-0.1,0.3-0.3,0.3 C111.5,91.8,111.4,91.6,111.4,91.5L111.4,91.5z"></path> </g> <path class="st4" d="M110.8,92.2c0-0.2,0.1-0.3,0.3-0.3s0.3,0.1,0.3,0.3c0,0.2-0.1,0.3-0.3,0.3C111,92.5,110.8,92.3,110.8,92.2 L110.8,92.2z"></path> <g> <path class="st7" d="M110.8,92.2c0-0.2,0.1-0.3,0.3-0.3s0.3,0.1,0.3,0.3c0,0.2-0.1,0.3-0.3,0.3C111,92.5,110.8,92.3,110.8,92.2 L110.8,92.2z"></path> </g> <path class="st4" d="M110.2,87.6c0-0.2,0.1-0.3,0.3-0.3s0.3,0.1,0.3,0.3c0,0.2-0.1,0.3-0.3,0.3 C110.4,87.8,110.2,87.8,110.2,87.6L110.2,87.6z"></path> <g> <path class="st7" d="M110.2,87.6c0-0.2,0.1-0.3,0.3-0.3s0.3,0.1,0.3,0.3c0,0.2-0.1,0.3-0.3,0.3 C110.4,87.8,110.2,87.8,110.2,87.6z"></path> </g> <path class="st4" d="M109.4,87.1c0-0.2,0.1-0.3,0.3-0.3s0.3,0.1,0.3,0.3c0,0.2-0.1,0.3-0.3,0.3 C109.6,87.3,109.4,87.2,109.4,87.1L109.4,87.1z"></path> <g> <path class="st7" d="M109.4,87.1c0-0.2,0.1-0.3,0.3-0.3s0.3,0.1,0.3,0.3c0,0.2-0.1,0.3-0.3,0.3 C109.6,87.3,109.4,87.2,109.4,87.1z"></path> </g> <path class="st4" d="M108.5,86.8c0-0.2,0.1-0.3,0.3-0.3s0.3,0.1,0.3,0.3c0,0.2-0.1,0.3-0.3,0.3C108.7,87.2,108.5,87,108.5,86.8 L108.5,86.8z"></path> <g> <path class="st7" d="M108.5,86.8c0-0.2,0.1-0.3,0.3-0.3s0.3,0.1,0.3,0.3c0,0.2-0.1,0.3-0.3,0.3C108.7,87.2,108.5,87,108.5,86.8 z"></path> </g> <path class="st4" d="M107.6,86.7c0-0.2,0.1-0.3,0.3-0.3s0.3,0.1,0.3,0.3c0,0.2-0.1,0.3-0.3,0.3C107.7,87,107.6,86.8,107.6,86.7 L107.6,86.7z"></path> <g> <path class="st7" d="M107.6,86.7c0-0.2,0.1-0.3,0.3-0.3s0.3,0.1,0.3,0.3c0,0.2-0.1,0.3-0.3,0.3C107.7,87,107.6,86.8,107.6,86.7 z"></path> </g> <path class="st4" d="M106.7,86.7c0-0.1,0.1-0.3,0.3-0.3s0.3,0.1,0.3,0.3c0,0.2-0.1,0.3-0.3,0.3S106.7,86.8,106.7,86.7 L106.7,86.7z"></path> <g> <path class="st7" d="M106.7,86.7c0-0.1,0.1-0.3,0.3-0.3s0.3,0.1,0.3,0.3c0,0.2-0.1,0.3-0.3,0.3S106.7,86.8,106.7,86.7z"></path> </g> <path class="st4" d="M105.7,86.8c0-0.2,0.1-0.3,0.3-0.3s0.3,0.1,0.3,0.3c0,0.2-0.1,0.3-0.3,0.3S105.7,87,105.7,86.8L105.7,86.8z "></path> <g> <path class="st7" d="M105.7,86.8c0-0.2,0.1-0.3,0.3-0.3s0.3,0.1,0.3,0.3c0,0.2-0.1,0.3-0.3,0.3S105.7,87,105.7,86.8z"></path> </g> <path class="st4" d="M104.8,87.2c0-0.2,0.1-0.3,0.3-0.3s0.3,0.1,0.3,0.3c0,0.2-0.1,0.3-0.3,0.3 C104.9,87.5,104.8,87.3,104.8,87.2L104.8,87.2z"></path> <g> <path class="st7" d="M104.8,87.2c0-0.2,0.1-0.3,0.3-0.3s0.3,0.1,0.3,0.3c0,0.2-0.1,0.3-0.3,0.3 C104.9,87.5,104.8,87.3,104.8,87.2z"></path> </g> <path class="st4" d="M89.7,94.5c0-0.2,0.1-0.3,0.3-0.3s0.3,0.1,0.3,0.3c0,0.2-0.1,0.3-0.3,0.3C89.9,94.8,89.7,94.7,89.7,94.5 L89.7,94.5z"></path> <g> <ellipse class="st7" cx="90" cy="94.5" rx="0.3" ry="0.3"></ellipse> </g> <path class="st4" d="M89.3,93.8c0-0.2,0.1-0.3,0.3-0.3s0.3,0.1,0.3,0.3c0,0.2-0.1,0.3-0.3,0.3S89.3,94,89.3,93.8L89.3,93.8z"></path> <g> <ellipse class="st7" cx="89.6" cy="93.8" rx="0.3" ry="0.3"></ellipse> </g> <path class="st4" d="M89.1,92.8c0-0.1,0.1-0.3,0.3-0.3s0.3,0.1,0.3,0.3c0,0.2-0.1,0.3-0.3,0.3S89.1,93.1,89.1,92.8L89.1,92.8z"></path> <g> <path class="st7" d="M89.1,92.8c0-0.1,0.1-0.3,0.3-0.3s0.3,0.1,0.3,0.3c0,0.2-0.1,0.3-0.3,0.3S89.1,93.1,89.1,92.8z"></path> </g> <path class="st4" d="M89,92c0-0.2,0.1-0.3,0.3-0.3s0.3,0.1,0.3,0.3c0,0.2-0.1,0.3-0.3,0.3C89.2,92.2,89,92.2,89,92L89,92z"></path> <g> <path class="st7" d="M89,92c0-0.2,0.1-0.3,0.3-0.3s0.3,0.1,0.3,0.3c0,0.2-0.1,0.3-0.3,0.3C89.2,92.2,89,92.2,89,92z"></path> </g> <path class="st4" d="M89.2,91.2c0-0.2,0.1-0.3,0.3-0.3s0.3,0.1,0.3,0.3c0,0.2-0.1,0.3-0.3,0.3C89.4,91.3,89.2,91.2,89.2,91.2 L89.2,91.2z"></path> <g> <path class="st7" d="M89.2,91.2c0-0.2,0.1-0.3,0.3-0.3s0.3,0.1,0.3,0.3c0,0.2-0.1,0.3-0.3,0.3C89.4,91.3,89.2,91.2,89.2,91.2z"></path> </g> <path class="st4" d="M89.7,90.2c0-0.2,0.1-0.3,0.3-0.3s0.3,0.1,0.3,0.3c0,0.2-0.1,0.3-0.3,0.3S89.7,90.5,89.7,90.2L89.7,90.2z"></path> <g> <path class="st7" d="M89.7,90.2c0-0.2,0.1-0.3,0.3-0.3s0.3,0.1,0.3,0.3c0,0.2-0.1,0.3-0.3,0.3S89.7,90.5,89.7,90.2z"></path> </g> <path class="st4" d="M90.3,89.7c0-0.2,0.1-0.3,0.3-0.3s0.3,0.1,0.3,0.3c0,0.2-0.1,0.3-0.3,0.3C90.5,90,90.3,89.8,90.3,89.7 L90.3,89.7z"></path> <g> <path class="st7" d="M90.3,89.7c0-0.2,0.1-0.3,0.3-0.3s0.3,0.1,0.3,0.3c0,0.2-0.1,0.3-0.3,0.3C90.5,90,90.3,89.8,90.3,89.7z"></path> </g> <path class="st4" d="M91,89.1c0-0.2,0.1-0.3,0.3-0.3s0.3,0.1,0.3,0.3c0,0.2-0.1,0.3-0.3,0.3C91.2,89.3,91,89.2,91,89.1L91,89.1z "></path> <g> <path class="st7" d="M91,89.1c0-0.2,0.1-0.3,0.3-0.3s0.3,0.1,0.3,0.3c0,0.2-0.1,0.3-0.3,0.3C91.2,89.3,91,89.2,91,89.1z"></path> </g> <path class="st4" d="M91.9,88.7c0-0.2,0.1-0.3,0.3-0.3s0.3,0.1,0.3,0.3c0,0.2-0.1,0.3-0.3,0.3S91.9,88.8,91.9,88.7L91.9,88.7z"></path> <g> <ellipse class="st7" cx="92.2" cy="88.7" rx="0.3" ry="0.3"></ellipse> </g> <path class="st4" d="M92.8,88.2c0-0.2,0.1-0.3,0.3-0.3s0.3,0.1,0.3,0.3s-0.1,0.3-0.3,0.3C92.9,88.6,92.8,88.5,92.8,88.2 L92.8,88.2z"></path> <g> <path class="st7" d="M92.8,88.2c0-0.2,0.1-0.3,0.3-0.3s0.3,0.1,0.3,0.3s-0.1,0.3-0.3,0.3C92.9,88.6,92.8,88.5,92.8,88.2z"></path> </g> <path class="st4" d="M93.8,88.2c0-0.2,0.1-0.3,0.3-0.3s0.3,0.1,0.3,0.3c0,0.1-0.1,0.3-0.3,0.3C93.9,88.5,93.8,88.2,93.8,88.2 L93.8,88.2z"></path> <g> <path class="st7" d="M93.8,88.2c0-0.2,0.1-0.3,0.3-0.3s0.3,0.1,0.3,0.3c0,0.1-0.1,0.3-0.3,0.3C93.9,88.5,93.8,88.2,93.8,88.2z"></path> </g> <path class="st4" d="M94.7,88.1c0-0.2,0.1-0.3,0.3-0.3s0.3,0.1,0.3,0.3c0,0.2-0.1,0.3-0.3,0.3C94.9,88.3,94.7,88.2,94.7,88.1 L94.7,88.1z"></path> <g> <ellipse class="st7" cx="95" cy="88.1" rx="0.3" ry="0.3"></ellipse> </g> <path class="st4" d="M95.7,88.2c0-0.2,0.1-0.3,0.3-0.3s0.3,0.1,0.3,0.3c0,0.2-0.1,0.3-0.3,0.3C95.8,88.3,95.7,88.2,95.7,88.2 L95.7,88.2z"></path> <g> <path class="st7" d="M95.7,88.2c0-0.2,0.1-0.3,0.3-0.3s0.3,0.1,0.3,0.3c0,0.2-0.1,0.3-0.3,0.3C95.8,88.3,95.7,88.2,95.7,88.2z"></path> </g> <path class="st4" d="M96.6,88.2c0-0.2,0.1-0.3,0.3-0.3s0.3,0.1,0.3,0.3c0,0.2-0.1,0.3-0.3,0.3C96.7,88.3,96.6,88.2,96.6,88.2 L96.6,88.2z"></path> <g> <path class="st7" d="M96.6,88.2c0-0.2,0.1-0.3,0.3-0.3s0.3,0.1,0.3,0.3c0,0.2-0.1,0.3-0.3,0.3C96.7,88.3,96.6,88.2,96.6,88.2z"></path> </g> <path class="st4" d="M96.1,88.8c0-0.2,0.1-0.3,0.3-0.3s0.3,0.1,0.3,0.3c0,0.2-0.1,0.3-0.3,0.3C96.2,89.2,96.1,89.1,96.1,88.8 L96.1,88.8z"></path> <g> <path class="st7" d="M96.1,88.8c0-0.2,0.1-0.3,0.3-0.3s0.3,0.1,0.3,0.3c0,0.2-0.1,0.3-0.3,0.3C96.2,89.2,96.1,89.1,96.1,88.8 L96.1,88.8z"></path> </g> <path class="st4" d="M95.9,89.8c0-0.2,0.1-0.3,0.3-0.3s0.3,0.1,0.3,0.3s-0.1,0.3-0.3,0.3C96.1,90.1,95.9,90,95.9,89.8L95.9,89.8 z"></path> <g> <path class="st7" d="M95.9,89.8c0-0.2,0.1-0.3,0.3-0.3s0.3,0.1,0.3,0.3s-0.1,0.3-0.3,0.3C96.1,90.1,95.9,90,95.9,89.8 L95.9,89.8z"></path> </g> <path class="st4" d="M95.9,90.7c0-0.2,0.1-0.3,0.3-0.3s0.3,0.1,0.3,0.3S96.4,91,96.2,91S95.9,90.8,95.9,90.7L95.9,90.7z"></path> <g> <path class="st7" d="M95.9,90.7c0-0.2,0.1-0.3,0.3-0.3s0.3,0.1,0.3,0.3S96.4,91,96.2,91S95.9,90.8,95.9,90.7L95.9,90.7z"></path> </g> <path class="st4" d="M96.2,91.5c0-0.1,0.1-0.3,0.3-0.3s0.3,0.1,0.3,0.3c0,0.2-0.1,0.3-0.3,0.3C96.3,91.8,96.2,91.6,96.2,91.5 L96.2,91.5z"></path> <g> <path class="st7" d="M96.2,91.5c0-0.1,0.1-0.3,0.3-0.3s0.3,0.1,0.3,0.3c0,0.2-0.1,0.3-0.3,0.3C96.3,91.8,96.2,91.6,96.2,91.5 L96.2,91.5z"></path> </g> <path class="st4" d="M96.7,92.2c0-0.2,0.1-0.3,0.3-0.3s0.3,0.1,0.3,0.3c0,0.2-0.1,0.3-0.3,0.3S96.7,92.3,96.7,92.2L96.7,92.2z"></path> <g> <path class="st7" d="M96.7,92.2c0-0.2,0.1-0.3,0.3-0.3s0.3,0.1,0.3,0.3c0,0.2-0.1,0.3-0.3,0.3S96.7,92.3,96.7,92.2L96.7,92.2z"></path> </g> <path class="st4" d="M97.3,87.6c0-0.2,0.1-0.3,0.3-0.3s0.3,0.1,0.3,0.3c0,0.2-0.1,0.3-0.3,0.3C97.4,87.8,97.3,87.8,97.3,87.6 L97.3,87.6z"></path> <g> <path class="st7" d="M97.3,87.6c0-0.2,0.1-0.3,0.3-0.3s0.3,0.1,0.3,0.3c0,0.2-0.1,0.3-0.3,0.3C97.4,87.8,97.3,87.8,97.3,87.6z"></path> </g> <path class="st4" d="M98.1,87.1c0-0.2,0.1-0.3,0.3-0.3s0.3,0.1,0.3,0.3c0,0.2-0.1,0.3-0.3,0.3S98.1,87.2,98.1,87.1L98.1,87.1z"></path> <g> <path class="st7" d="M98.1,87.1c0-0.2,0.1-0.3,0.3-0.3s0.3,0.1,0.3,0.3c0,0.2-0.1,0.3-0.3,0.3S98.1,87.2,98.1,87.1z"></path> </g> <path class="st4" d="M99,86.8c0-0.2,0.1-0.3,0.3-0.3s0.3,0.1,0.3,0.3c0,0.2-0.1,0.3-0.3,0.3S99,87,99,86.8L99,86.8z"></path> <g> <path class="st7" d="M99,86.8c0-0.2,0.1-0.3,0.3-0.3s0.3,0.1,0.3,0.3c0,0.2-0.1,0.3-0.3,0.3S99,87,99,86.8z"></path> </g> <path class="st4" d="M100,86.7c0-0.2,0.1-0.3,0.3-0.3s0.3,0.1,0.3,0.3c0,0.2-0.1,0.3-0.3,0.3S100,86.8,100,86.7L100,86.7z"></path> <g> <path class="st7" d="M100,86.7c0-0.2,0.1-0.3,0.3-0.3s0.3,0.1,0.3,0.3c0,0.2-0.1,0.3-0.3,0.3S100,86.8,100,86.7z"></path> </g> <path class="st4" d="M100.9,86.7c0-0.1,0.1-0.3,0.3-0.3s0.3,0.1,0.3,0.3c0,0.2-0.1,0.3-0.3,0.3S100.9,86.8,100.9,86.7 L100.9,86.7z"></path> <g> <path class="st7" d="M100.9,86.7c0-0.1,0.1-0.3,0.3-0.3s0.3,0.1,0.3,0.3c0,0.2-0.1,0.3-0.3,0.3S100.9,86.8,100.9,86.7z"></path> </g> <path class="st4" d="M101.8,86.8c0-0.2,0.1-0.3,0.3-0.3s0.3,0.1,0.3,0.3c0,0.2-0.1,0.3-0.3,0.3C102,87.2,101.8,87,101.8,86.8 L101.8,86.8z"></path> <g> <path class="st7" d="M101.8,86.8c0-0.2,0.1-0.3,0.3-0.3s0.3,0.1,0.3,0.3c0,0.2-0.1,0.3-0.3,0.3C102,87.2,101.8,87,101.8,86.8z"></path> </g> <path class="st4" d="M102.7,87.2c0-0.2,0.1-0.3,0.3-0.3s0.3,0.1,0.3,0.3c0,0.2-0.1,0.3-0.3,0.3 C102.9,87.5,102.7,87.3,102.7,87.2L102.7,87.2z"></path> <g> <path class="st7" d="M102.7,87.2c0-0.2,0.1-0.3,0.3-0.3s0.3,0.1,0.3,0.3c0,0.2-0.1,0.3-0.3,0.3 C102.9,87.5,102.7,87.3,102.7,87.2z"></path> </g> <polygon class="st6" points="100.2,112.8 100.2,108.8 100.7,108.8 100.7,106.8 99.8,106.8 99.8,106.2 100.2,106.2 100.2,105.2 99.8,105.2 99.8,105.5 99.5,105.5 99.5,105.2 99.1,105.2 99.1,105.5 98.8,105.5 98.8,105.2 98.3,105.2 98.3,106.2 98.8,106.2 98.8,106.8 97.8,106.8 97.8,104.7 98.3,104.7 98.3,103.7 97.8,103.7 97.8,104 97.6,104 97.6,103.7 97.1,103.7 97.1,104 96.9,104 96.9,103.7 96.4,103.7 96.4,104.7 96.9,104.7 96.9,106.8 96,106.8 96,106.2 96.4,106.2 96.4,105.2 96,105.2 96,105.5 95.7,105.5 95.7,105.2 95.2,105.2 95.2,105.5 95,105.5 95,105.2 94.5,105.2 94.5,106.2 95,106.2 95,106.8 94,106.8 94,108.8 94.5,108.8 94.5,112.8 93.5,112.8 93.5,114.8 101.2,114.8 101.2,112.8 "></polygon> <path class="st6" d="M98.6,114.8v-1.3c0-0.2-0.1-1-1.3-1c-1.1,0-1.2,0.7-1.2,1v1.3H98.6z"></path> <path class="st6" d="M96.5,113.7l-0.6-0.1c0-0.2,0.1-0.6,0.3-0.7l0.6,0.4C96.7,113.3,96.5,113.6,96.5,113.7L96.5,113.7z"></path> <path class="st6" d="M98.2,113.7l0.6-0.1c0-0.2-0.1-0.6-0.2-0.7l-0.6,0.4C98.1,113.3,98.2,113.6,98.2,113.7L98.2,113.7z"></path> <path class="st6" d="M97.6,113.1l0.3-0.6c-0.1-0.1-0.4-0.1-0.6-0.1c-0.1,0-0.4,0.1-0.5,0.1l0.3,0.6H97.6z"></path> <path class="st6" d="M96.4,111.5v-1.3c0-0.4-0.2-0.7-0.7-0.7c-0.4,0-0.7,0.3-0.7,0.7v1.4L96.4,111.5L96.4,111.5z"></path> <path class="st6" d="M98.3,111.5v-1.3c0-0.4,0.2-0.7,0.7-0.7c0.4,0,0.7,0.3,0.7,0.7v1.4L98.3,111.5L98.3,111.5z"></path> <polygon class="st6" points="99.7,108.2 99.8,106.8 98.6,106.8 98.7,108.2 "></polygon> <polygon class="st6" points="96.9,108.2 96.7,106.8 98,106.8 97.9,108.2 "></polygon> <polygon class="st6" points="96,108.2 96.1,106.8 94.9,106.8 95,108.2 "></polygon> <path class="st13" d="M98.2,114.8v-1.1c0-0.2-0.1-0.7-0.9-0.7c-0.7,0-0.8,0.6-0.8,0.7v1.1H98.2z"></path> <path class="st13" d="M96.3,111.3v-1.2c0-0.3-0.2-0.6-0.6-0.6c-0.4,0-0.6,0.3-0.6,0.6v1.2H96.3z"></path> <path class="st13" d="M98.5,111.3v-1.2c0-0.3,0.2-0.6,0.6-0.6c0.4,0,0.6,0.3,0.6,0.6v1.2H98.5z"></path> <path class="st5" d="M99.7,117.1c0-2.8,2-5,4.5-5s4.5,2.2,4.5,5s-2,5-4.5,5C101.7,122.2,99.7,119.8,99.7,117.1L99.7,117.1z"></path> <g> <g> <g> <g> <defs> <rect id="SVGID_00000091704548561350678790000008751150382722050222_" x="101" y="113.3" width="6.3" height="7.4"></rect> </defs> <clipPath id="SVGID_00000142155727297102012560000016939604106433989050_"> <use xlink:href="#SVGID_00000091704548561350678790000008751150382722050222_" style="overflow:visible;"></use> </clipPath> <path style="clip-path:url(#SVGID_00000142155727297102012560000016939604106433989050_);fill:#3F529E;" d="M101,117.1 c0-2,1.4-3.7,3.1-3.7c1.7,0,3.1,1.6,3.1,3.7s-1.4,3.7-3.1,3.7S101,119.2,101,117.1L101,117.1z"></path> </g> </g> </g> </g> <path class="st6" d="M102.7,114.6c0,0-0.4,0.4-0.4,0.8s0.2,0.7,0.2,0.7c-0.1-0.1-0.2-0.3-0.4-0.3s-0.4,0.2-0.4,0.4 c0,0.1,0,0.1,0.1,0.2l0.1,0.3c0-0.1,0.1-0.2,0.3-0.2s0.3,0.1,0.3,0.3c0,0,0,0,0,0.1h-0.3v0.3h0.3l-0.2,0.4l0.3-0.1l0.2,0.3 l0.2-0.3l0.3,0.1l-0.2-0.4h0.3v-0.3H103c0,0,0,0,0-0.1c0-0.2,0.1-0.3,0.3-0.3c0.1,0,0.2,0.1,0.3,0.2l0.1-0.3 c0-0.1,0.1-0.2,0.1-0.2c0-0.2-0.2-0.4-0.4-0.4s-0.3,0.1-0.4,0.3c0,0,0.2-0.3,0.2-0.7C103.1,115,102.7,114.6,102.7,114.6 L102.7,114.6z"></path> <rect x="102.1" y="116.8" class="st6" width="1.2" height="0.3"></rect> <path class="st6" d="M105.6,114.6c0,0-0.4,0.4-0.4,0.8s0.2,0.7,0.2,0.7c-0.1-0.1-0.2-0.3-0.4-0.3s-0.4,0.2-0.4,0.4 c0,0.1,0,0.1,0.1,0.2l0.1,0.3c0-0.1,0.1-0.2,0.3-0.2s0.3,0.1,0.3,0.3c0,0,0,0,0,0.1H105v0.3h0.3l-0.2,0.4l0.3-0.1l0.2,0.3 l0.2-0.3l0.3,0.1l-0.2-0.4h0.3v-0.3h-0.3c0,0,0,0,0-0.1c0-0.2,0.1-0.3,0.3-0.3c0.1,0,0.2,0.1,0.3,0.2l0.1-0.3 c0-0.1,0.1-0.2,0.1-0.2c0-0.2-0.2-0.4-0.4-0.4s-0.3,0.1-0.4,0.3c0,0,0.2-0.3,0.2-0.7C106,115,105.6,114.6,105.6,114.6 L105.6,114.6z"></path> <rect x="105" y="116.8" class="st6" width="1.2" height="0.3"></rect> <path class="st6" d="M104.2,117.1c0,0-0.4,0.4-0.4,0.8s0.2,0.7,0.2,0.7c-0.1-0.1-0.2-0.3-0.4-0.3s-0.4,0.2-0.4,0.4 c0,0.1,0,0.2,0.1,0.2l0.1,0.3c0-0.1,0.2-0.2,0.3-0.2c0.2,0,0.3,0.1,0.3,0.3c0,0,0,0,0,0.1h-0.3v0.3h0.3l-0.2,0.4l0.3-0.1 l0.2,0.3l0.2-0.3l0.3,0.1l-0.2-0.4h0.3v-0.3h-0.3c0,0,0,0,0-0.1c0-0.2,0.1-0.3,0.3-0.3c0.1,0,0.2,0.1,0.3,0.2l0.1-0.3 c0,0,0.1-0.1,0.1-0.2c0-0.2-0.2-0.4-0.4-0.4s-0.3,0.1-0.4,0.3c0,0,0.2-0.3,0.2-0.7C104.5,117.5,104.2,117.1,104.2,117.1 L104.2,117.1z"></path> <rect x="103.6" y="119.3" class="st6" width="1.2" height="0.3"></rect> <path class="st6" d="M113.1,103.8L113.1,103.8c-0.1,0-0.1,0.1-0.2,0.1c-0.1,0.1-0.2,0.1-0.2,0v-0.1h-0.1c-0.1,0-0.1-0.1,0-0.2 l0,0v-0.1h-0.1l0,0c-0.1,0.1-0.1,0.1-0.2,0v-0.1l0,0c-0.1,0-0.2-0.3-0.2-0.4l-0.1,0.1c0,0,0,0.2,0,0.4c0,0.2-0.1,0.3-0.1,0.3 c0.2,0.1,0.5,0.2,0.8,0.5c0.3,0.2,0.5,0.5,0.6,0.7c0,0,0.2-0.1,0.3-0.1c0.2,0,0.4-0.1,0.4-0.1l0.1-0.1c-0.1,0-0.4,0-0.4-0.1l0,0 h-0.1c0,0,0-0.1,0-0.2l0,0v-0.1h-0.1l0,0c-0.1,0.1-0.2,0.1-0.2,0v-0.1h-0.1c-0.1,0-0.1-0.1,0-0.2C113,104,113.1,104,113.1,103.8 L113.1,103.8L113.1,103.8z"></path> <g> <path class="st7" d="M112.5,104L112.5,104C112.6,104.1,112.6,104.1,112.5,104C112.5,104.1,112.5,104.1,112.5,104 C112.5,104.1,112.5,104.1,112.5,104z"></path> </g> <g> <path class="st7" d="M112.7,104.2L112.7,104.2c-0.1-0.1-0.1-0.1-0.1-0.1l0,0L112.7,104.2h0.1l0,0 C112.9,104.3,112.8,104.3,112.7,104.2L112.7,104.2L112.7,104.2z"></path> </g> <g> <path class="st7" d="M112.2,103.8L112.2,103.8L112.2,103.8C112.2,103.8,112.2,103.8,112.2,103.8L112.2,103.8h0.1l0,0 C112.4,104,112.3,104,112.2,103.8L112.2,103.8L112.2,103.8z"></path> </g> <g> <path class="st7" d="M112,103.8C112,103.7,112,103.7,112,103.8C112.1,103.8,112.1,103.8,112,103.8L112,103.8L112,103.8z"></path> </g> <g> <path class="st7" d="M113,104.5C113,104.5,113,104.3,113,104.5C113,104.3,113,104.3,113,104.5 C112.9,104.3,112.9,104.5,113,104.5L113,104.5z"></path> </g> <g> <path class="st7" d="M113.2,104.7L113.2,104.7c0.1,0.1,0.1,0.1,0.1,0.1l0,0L113.2,104.7L113.2,104.7c0-0.1-0.1-0.1-0.1-0.1 C113.1,104.6,113.1,104.6,113.2,104.7L113.2,104.7L113.2,104.7z"></path> </g> <g> <path class="st7" d="M113.4,104.8C113.4,104.8,113.4,104.8,113.4,104.8C113.4,104.8,113.4,104.8,113.4,104.8 C113.3,104.8,113.4,104.8,113.4,104.8L113.4,104.8z"></path> </g> <polygon class="st6" points="112.7,103.2 112.5,103.2 112.5,103.5 112.5,103.5 112.5,103.5 112.8,103.3 "></polygon> <g> <polygon class="st7" points="112.7,103.2 112.5,103.2 112.5,103.5 112.5,103.5 112.5,103.5 112.8,103.3 "></polygon> </g> <polygon class="st6" points="112.2,103.3 112.2,103.5 112.5,103.5 112.5,103.5 112.5,103.5 112.4,103.2 "></polygon> <g> <polygon class="st7" points="112.2,103.3 112.2,103.5 112.5,103.5 112.5,103.5 112.5,103.5 112.4,103.2 "></polygon> </g> <polygon class="st6" points="112.8,103.6 112.6,103.7 112.5,103.5 112.5,103.5 112.5,103.5 112.8,103.5 "></polygon> <g> <polygon class="st7" points="112.8,103.6 112.6,103.7 112.5,103.5 112.5,103.5 112.5,103.5 112.8,103.5 "></polygon> </g> <path class="st6" d="M112.4,103.5h0.1v0.1L112.4,103.5L112.4,103.5L112.4,103.5z"></path> <g> <path class="st7" d="M112.4,103.5h0.1v0.1L112.4,103.5L112.4,103.5z"></path> </g> <path class="st6" d="M111.8,103.2c0,0,0-0.1-0.1-0.2l-0.1-0.1c0,0,0.1-0.1,0.2,0C112,103,111.9,103.2,111.8,103.2 C111.9,103.2,111.9,103.2,111.8,103.2L111.8,103.2z"></path> <g> <path class="st7" d="M111.8,103.2c0,0,0-0.1-0.1-0.2l-0.1-0.1c0,0,0.1-0.1,0.2,0C112,103,111.9,103.2,111.8,103.2 C111.9,103.2,111.9,103.2,111.8,103.2L111.8,103.2z"></path> </g> <polygon class="st6" points="112.1,103.2 112,103.3 111.8,103.2 111.8,103.2 111.8,103.2 112.1,103.2 "></polygon> <g> <polygon class="st7" points="112.1,103.2 112,103.3 111.8,103.2 111.8,103.2 111.8,103.2 112.1,103.2 "></polygon> </g> <path class="st6" d="M111.8,103.2C111.8,103.2,111.9,103.1,111.8,103.2c0.1,0,0.1,0,0.1,0C111.9,103.2,111.9,103.2,111.8,103.2 C111.8,103.2,111.8,103.2,111.8,103.2L111.8,103.2z"></path> <g> <path class="st7" d="M111.8,103.2C111.8,103.2,111.9,103.1,111.8,103.2c0.1,0,0.1,0,0.1,0C111.9,103.2,111.9,103.2,111.8,103.2 C111.8,103.2,111.8,103.2,111.8,103.2z"></path> </g> <polygon class="st6" points="113.3,103.6 113.1,103.6 113.1,103.8 113.1,103.8 113.1,103.8 113.4,103.8 "></polygon> <g> <polygon class="st7" points="113.3,103.6 113.1,103.6 113.1,103.8 113.1,103.8 113.1,103.8 113.4,103.8 "></polygon> </g> <polygon class="st6" points="112.8,103.7 112.8,103.8 113.1,103.8 113.1,103.8 113.1,103.8 113,103.6 "></polygon> <g> <polygon class="st7" points="112.8,103.7 112.8,103.8 113.1,103.8 113.1,103.8 113.1,103.8 113,103.6 "></polygon> </g> <polygon class="st6" points="113.3,104 113.2,104.1 113.1,103.8 113.1,103.8 113.1,103.8 113.3,103.8 "></polygon> <g> <polygon class="st7" points="113.3,104 113.2,104.1 113.1,103.8 113.1,103.8 113.1,103.8 113.3,103.8 "></polygon> </g> <path class="st6" d="M113,103.8h0.1v0.1L113,103.8C113,103.8,113,103.8,113,103.8L113,103.8z"></path> <g> <path class="st7" d="M113,103.8h0.1v0.1L113,103.8C113,103.8,113,103.8,113,103.8z"></path> </g> <polygon class="st6" points="113.8,104.1 113.9,104.2 113.6,104.2 113.6,104.2 113.6,104.2 113.7,104.1 "></polygon> <g> <polygon class="st7" points="113.8,104.1 113.9,104.2 113.6,104.2 113.6,104.2 113.6,104.2 113.7,104.1 "></polygon> </g> <polygon class="st6" points="113.8,104.6 113.6,104.6 113.6,104.3 113.6,104.2 113.6,104.2 113.8,104.3 "></polygon> <g> <polygon class="st7" points="113.8,104.6 113.6,104.6 113.6,104.3 113.6,104.2 113.6,104.2 113.8,104.3 "></polygon> </g> <polygon class="st6" points="113.4,104.1 113.3,104.2 113.6,104.3 113.6,104.3 113.6,104.2 113.5,104.1 "></polygon> <g> <polygon class="st7" points="113.4,104.1 113.3,104.2 113.6,104.3 113.6,104.3 113.6,104.2 113.5,104.1 "></polygon> </g> <path class="st6" d="M113.6,104.3L113.6,104.3l-0.1-0.1v0.1C113.6,104.3,113.6,104.3,113.6,104.3L113.6,104.3z"></path> <g> <path class="st7" d="M113.6,104.3L113.6,104.3l-0.1-0.1v0.1C113.6,104.3,113.6,104.3,113.6,104.3z"></path> </g> <path class="st6" d="M114,104.8c0,0,0.1,0,0.2,0c0.1,0,0.1,0.1,0.1,0.1s0-0.1-0.1-0.2C114.2,104.7,114.1,104.8,114,104.8 C114.1,104.8,114,104.8,114,104.8L114,104.8z"></path> <g> <path class="st7" d="M114,104.8c0,0,0.1,0,0.2,0c0.1,0,0.1,0.1,0.1,0.1s0-0.1-0.1-0.2C114.2,104.7,114.1,104.8,114,104.8 C114.1,104.8,114,104.8,114,104.8z"></path> </g> <polygon class="st6" points="113.9,104.6 113.8,104.8 114,104.8 114,104.8 114.1,104.8 114,104.6 "></polygon> <g> <polygon class="st7" points="113.9,104.6 113.8,104.8 114,104.8 114,104.8 114.1,104.8 114,104.6 "></polygon> </g> <path class="st6" d="M114,104.8C114.1,104.8,114.1,104.8,114,104.8C114.1,104.8,114,104.8,114,104.8 C113.9,104.8,113.9,104.8,114,104.8L114,104.8L114,104.8z"></path> <g> <path class="st7" d="M114,104.8C114.1,104.8,114.1,104.8,114,104.8C114.1,104.8,114,104.8,114,104.8 C113.9,104.8,113.9,104.8,114,104.8L114,104.8z"></path> </g> <g> <polygon class="st7" points="125,98.6 125,98.8 124.3,98.8 124.3,98.6 124.5,98.6 124.5,98.2 124.4,98.2 124.4,98.1 124.5,98.1 124.5,98 124.7,98 124.7,98.1 124.9,98.1 124.9,98.2 124.7,98.2 124.7,98.6 "></polygon> </g> </g> </g> </g> </g> </svg> 