<?xml version="1.0" encoding="utf-8"?>
<!-- Generator: Adobe Illustrator 26.0.3, SVG Export Plug-In . SVG Version: 6.00 Build 0)  -->
<svg version="1.1" id="Layer_1" xmlns="http://www.w3.org/2000/svg" xmlns:xlink="http://www.w3.org/1999/xlink" x="0px" y="0px"
	 viewBox="0 0 316.5 217.1" style="enable-background:new 0 0 316.5 217.1;" xml:space="preserve">
<style type="text/css">
	.st0{opacity:0.1;fill:#020203;enable-background:new    ;}
	.st1{clip-path:url(#SVGID_00000055664675566592614500000017742094575721339524_);}
	.st2{fill:#34A936;}
	.st3{fill:#F49739;}
	.st4{fill:#FFFFFF;}
	.st5{fill:#3273B9;}
</style>
<path id="SHADOW" class="st0" d="M305.8,113.7c0,22.1-1.6,41.8-3.4,57.2c-2.4,20.3-18.6,36.1-39,38c-23.6,2.2-59.2,4.6-105.2,4.6
	s-81.5-2.3-105.2-4.6c-20.3-1.9-36.6-17.7-39-38c-1.8-15.4-3.4-35.1-3.4-57.2s1.6-41.8,3.4-57.2c2.4-20.3,18.6-36.1,39-38
	c23.6-2.2,59.2-4.6,105.2-4.6s81.5,2.3,105.2,4.6c20.3,1.9,36.6,17.7,39,38C304.2,72,305.8,91.7,305.8,113.7z"/>
<g>
	<defs>
		<path id="SVGID_1_" d="M305.5,103.9c0,22.1-1.6,41.8-3.4,57.2c-2.4,20.3-18.6,36.1-39,38c-23.6,2.2-59.2,4.6-105.2,4.6
			s-81.5-2.3-105.2-4.6c-20.3-1.9-36.6-17.7-39-38c-1.8-15.4-3.4-35.1-3.4-57.2s1.6-41.8,3.4-57.2c2.4-20.3,18.6-36.1,39-38
			C76.5,6.4,112.1,4.1,158,4.1s81.5,2.3,105.2,4.6c20.3,1.9,36.6,17.7,39,38C303.9,62.1,305.5,81.8,305.5,103.9z"/>
	</defs>
	<clipPath id="SVGID_00000177456243465078676920000014512078280308845964_">
		<use xlink:href="#SVGID_1_"  style="overflow:visible;"/>
	</clipPath>
	<g style="clip-path:url(#SVGID_00000177456243465078676920000014512078280308845964_);">
		<rect x="13.4" y="136.7" class="st2" width="289.7" height="64.4"/>
		<rect x="13.4" y="3.6" class="st3" width="289.7" height="64.4"/>
		<rect x="13.4" y="68" class="st4" width="289.7" height="68.7"/>
		<path class="st5" d="M158.3,132.4c-16.4,0-29.8-13.5-29.8-30.1s13.4-30.1,29.8-30.1s29.8,13.5,29.8,30.1S174.7,132.4,158.3,132.4z
			 M158.3,76.6c-14.1,0-25.6,11.6-25.6,25.8s11.5,25.8,25.6,25.8s25.6-11.6,25.6-25.8S172.4,76.6,158.3,76.6z"/>
		<polygon class="st5" points="181.8,107.1 162.7,104.4 177.4,116.9 161.4,106.1 169.3,123.9 159.5,107.1 158.9,126.5 157.3,107.1 
			148.4,124.4 155.3,106.3 139.9,117.9 154,104.6 135,108.4 153.4,102.5 134.7,97.6 153.8,100.3 139.1,87.8 155.1,98.6 147.3,80.8 
			157.1,97.6 157.6,78.2 159.2,97.6 168.1,80.3 161.2,98.4 176.6,86.8 162.6,100.1 181.5,96.3 163.1,102.2 		"/>
	</g>
</g>
<path class="st4" d="M10841.6,9677.4c0,67.5-4.8,127.8-10.3,175c-7.2,62.1-57,110.4-119.2,116.3c-72.3,6.9-181.3,14-321.9,14
	c-140.6,0-249.5-7.1-321.9-14c-62.2-5.9-112-54.3-119.2-116.3c-5.5-47.2-10.3-107.5-10.3-175s4.8-127.8,10.3-175
	c7.2-62.1,57-110.4,119.2-116.3c72.3-6.9,181.3-14,321.9-14c140.6,0,249.5,7.1,321.9,14c62.2,5.9,112,54.3,119.2,116.3
	C10836.8,9549.6,10841.6,9609.9,10841.6,9677.4z"/>
<g id="FRAME">
	<path class="st4" d="M158.3,208.6c-46.6,0-82.4-2.5-104.1-4.5c-10.7-1-20.9-5.7-28.6-13.2s-12.7-17.6-13.9-28.3
		c-2.2-19-3.3-38.2-3.3-56.9c0-18.8,1.1-37.9,3.3-56.9C12.9,38,17.8,28,25.5,20.4c7.7-7.5,17.9-12.2,28.6-13.2
		c21.8-2.1,57.5-4.5,104.1-4.5s82.4,2.5,104.1,4.5c10.7,1,20.9,5.7,28.6,13.2s12.7,17.6,13.9,28.3c2.2,19,3.3,38.2,3.3,56.9
		s-1.1,37.9-3.3,56.9c-1.2,10.7-6.2,20.7-13.9,28.3c-7.7,7.5-17.9,12.2-28.6,13.2C240.6,206.1,204.9,208.6,158.3,208.6z M158.3,11.8
		c-46.3,0-81.7,2.4-103.3,4.5c-8.7,0.8-16.9,4.6-23.1,10.7c-6.2,6-10.2,14.1-11.2,22.8c-2.2,18.7-3.3,37.4-3.3,55.9
		s1.1,37.2,3.3,55.9c1,8.6,5,16.7,11.2,22.8s14.4,9.9,23.1,10.7c21.6,2,57,4.5,103.3,4.5s81.7-2.4,103.3-4.5
		c8.7-0.8,16.9-4.6,23.1-10.7c6.2-6.1,10.2-14.2,11.2-22.8c2.2-18.7,3.3-37.4,3.3-55.9c0-18.4-1.1-37.2-3.3-55.9
		c-1-8.6-5-16.7-11.2-22.8s-14.4-9.9-23.1-10.7C240,14.2,204.6,11.8,158.3,11.8z"/>
</g>
</svg>
