<?xml version="1.0" encoding="utf-8"?>
<!-- Generator: Adobe Illustrator 26.0.3, SVG Export Plug-In . SVG Version: 6.00 Build 0)  -->
<svg version="1.1" id="Layer_1" xmlns="http://www.w3.org/2000/svg" xmlns:xlink="http://www.w3.org/1999/xlink" x="0px" y="0px"
	 viewBox="0 0 316.5 217.1" style="enable-background:new 0 0 316.5 217.1;" xml:space="preserve">
<style type="text/css">
	.st0{opacity:0.1;fill:#020203;enable-background:new    ;}
	.st1{clip-path:url(#SVGID_00000181774632868568215160000011754433751156778383_);}
	.st2{fill:#FFFFFF;}
	.st3{fill:#3A3C3D;}
	.st4{fill:#E83B49;}
</style>
<path id="SHADOW" class="st0" d="M305.8,113.7c0,22.1-1.6,41.8-3.4,57.2c-2.4,20.3-18.6,36.1-39,38c-23.6,2.2-59.2,4.6-105.2,4.6
	s-81.5-2.3-105.2-4.6c-20.3-1.9-36.6-17.7-39-38c-1.8-15.4-3.4-35.1-3.4-57.2s1.6-41.8,3.4-57.2c2.4-20.3,18.6-36.1,39-38
	c23.6-2.2,59.2-4.6,105.2-4.6s81.5,2.3,105.2,4.6c20.3,1.9,36.6,17.7,39,38C304.2,72,305.8,91.7,305.8,113.7z"/>
<g>
	<g>
		<g>
			<defs>
				<path id="SVGID_1_" d="M158.7,203.7c-42.8,0-75.6-2.2-95.6-4c-25.3-2.3-45.9-21.1-48.8-44.7c-2-16.6-3.1-33.3-3.1-49.7
					s1.1-33.1,3.1-49.6c3-23.6,23.5-42.4,48.9-44.7c20-1.8,52.8-3.9,95.6-3.8s75.6,2.2,95.6,4c25.3,2.3,45.9,21.1,48.8,44.7
					c2,16.6,3.1,33.3,3.1,49.7s-1.1,33.1-3.1,49.6c-3,23.6-23.5,42.4-48.9,44.7C234.3,201.7,201.5,203.8,158.7,203.7z"/>
			</defs>
			<clipPath id="SVGID_00000086663835088996614010000003654740546317117320_">
				<use xlink:href="#SVGID_1_"  style="overflow:visible;"/>
			</clipPath>
			<g style="clip-path:url(#SVGID_00000086663835088996614010000003654740546317117320_);">
				<g>
					<path class="st2" d="M151.6,73.7c0-21.6-21.3-40.5-47.6-40.5L-1.9,33.1v36.2L104,69.4c15.6,0,28.2,11.8,28.2,26.4
						c0,14.3-12.1,25.9-27.3,26.3c-0.3,0-0.7,0-1,0c0.3,0,0.7,0,1,0c10.3-0.5,18.4-8.4,18.4-18.1c0-10-8.7-18.1-19.4-18.2
						c-21.4,0-38.8,16.2-38.8,36.3c0,20,17.3,36.3,38.8,36.3l213.8,0.2v-36.3l-213.8-0.2C139.9,122.2,151.5,95.3,151.6,73.7z"/>
					<path class="st3" d="M-1.9,33.1L104,33.2c26.3,0,47.6,18.9,47.6,40.5s-11.6,48.5-47.7,48.5l213.8,0.2l0.1-115.9L-1.9,6.2V33.1z
						"/>
					<path class="st4" d="M65.1,122.1c0-20,17.4-36.3,38.8-36.3c10.7,0,19.4,8.1,19.4,18.2c0,9.7-8.2,17.6-18.4,18.1
						c15.1-0.5,27.2-12.1,27.3-26.3c0-14.6-12.6-26.4-28.2-26.4L-1.9,69.3L-2,204.7l313.8,0.3v-46.3l-208-0.2
						C82.4,158.4,65.1,142.2,65.1,122.1z"/>
				</g>
			</g>
		</g>
	</g>
</g>
<g id="FRAME">
	<path class="st2" d="M158.3,208.6c-46.6,0-82.4-2.5-104.1-4.5c-10.7-1-20.9-5.7-28.6-13.2s-12.7-17.6-13.9-28.3
		c-2.2-19-3.3-38.2-3.3-56.9c0-18.8,1.1-37.9,3.3-56.9C12.9,38,17.8,28,25.5,20.4c7.7-7.5,17.9-12.2,28.6-13.2
		c21.8-2.1,57.5-4.5,104.1-4.5s82.4,2.5,104.1,4.5c10.7,1,20.9,5.7,28.6,13.2s12.7,17.6,13.9,28.3c2.2,19,3.3,38.2,3.3,56.9
		s-1.1,37.9-3.3,56.9c-1.2,10.7-6.2,20.7-13.9,28.3c-7.7,7.5-17.9,12.2-28.6,13.2C240.6,206.1,204.9,208.6,158.3,208.6z M158.3,11.8
		c-46.3,0-81.7,2.4-103.3,4.5c-8.7,0.8-16.9,4.6-23.1,10.7c-6.2,6-10.2,14.1-11.2,22.8c-2.2,18.7-3.3,37.4-3.3,55.9
		s1.1,37.2,3.3,55.9c1,8.6,5,16.7,11.2,22.8s14.4,9.9,23.1,10.7c21.6,2,57,4.5,103.3,4.5s81.7-2.4,103.3-4.5
		c8.7-0.8,16.9-4.6,23.1-10.7c6.2-6.1,10.2-14.2,11.2-22.8c2.2-18.7,3.3-37.4,3.3-55.9c0-18.4-1.1-37.2-3.3-55.9
		c-1-8.6-5-16.7-11.2-22.8s-14.4-9.9-23.1-10.7C240,14.2,204.6,11.8,158.3,11.8z"/>
</g>
</svg>
