<?xml version="1.0" encoding="UTF-8"?> <!-- Generator: Adobe Illustrator 26.0.3, SVG Export Plug-In . SVG Version: 6.00 Build 0) --> <svg xmlns="http://www.w3.org/2000/svg" xmlns:xlink="http://www.w3.org/1999/xlink" version="1.1" id="Layer_1" x="0px" y="0px" viewBox="0 0 316.5 217.1" style="enable-background:new 0 0 316.5 217.1;" xml:space="preserve"> <style type="text/css"> .st0{opacity:0.1;fill:#020203;enable-background:new ;} .st1{clip-path:url(#SVGID_00000065789858636392287020000007873852867903998380_);} .st2{fill-rule:evenodd;clip-rule:evenodd;fill:#FFFFFF;} .st3{fill-rule:evenodd;clip-rule:evenodd;fill:#00AF08;} .st4{fill-rule:evenodd;clip-rule:evenodd;fill:#E73340;} .st5{fill-rule:evenodd;clip-rule:evenodd;fill:#353535;} .st6{fill:#FFFFFF;} </style> <path id="SHADOW" class="st0" d="M305.8,113.7c0,22.1-1.6,41.8-3.4,57.2c-2.4,20.3-18.6,36.1-39,38c-23.6,2.2-59.2,4.6-105.2,4.6 s-81.5-2.3-105.2-4.6c-20.3-1.9-36.6-17.7-39-38c-1.8-15.4-3.4-35.1-3.4-57.2s1.6-41.8,3.4-57.2c2.4-20.3,18.6-36.1,39-38 c23.6-2.2,59.2-4.6,105.2-4.6s81.5,2.3,105.2,4.6c20.3,1.9,36.6,17.7,39,38C304.2,72,305.8,91.7,305.8,113.7z"></path> <g> <defs> <path id="SVGID_1_" d="M305.9,105.3c0,22.1-1.6,41.8-3.4,57.2c-2.4,20.3-18.6,36.1-39,38c-23.6,2.2-59.2,4.6-105.2,4.6 s-81.5-2.3-105.2-4.6c-20.3-1.9-36.6-17.7-39-38c-1.8-15.4-3.4-35.1-3.4-57.2s1.6-41.8,3.4-57.2c2.4-20.3,18.6-36.1,39-38 c23.8-2.3,59.4-4.6,105.3-4.6s81.5,2.3,105.2,4.6c20.3,1.9,36.6,17.7,39,38C304.2,63.5,305.9,83.2,305.9,105.3z"></path> </defs> <clipPath id="SVGID_00000170961960368882835250000004694505441890676406_"> <use xlink:href="#SVGID_1_" style="overflow:visible;"></use> </clipPath> <g style="clip-path:url(#SVGID_00000170961960368882835250000004694505441890676406_);"> <polygon class="st2" points="15.7,4.5 302.9,4.5 302.9,107.7 15.7,107.7 15.7,21.5 "></polygon> <polygon class="st3" points="15.7,107.7 302.9,107.7 302.9,205.8 15.7,205.8 15.7,107.7 "></polygon> <path class="st4" d="M168.6,158.9c-3-0.5-4.4,2.6-4.4,2.6c-0.2,0-0.5,0-0.7,0c-0.7,0-1.4,0.1-2.1,0.1c-0.6,0-1.3,0.1-1.9,0.1 c-0.5,0-0.6,0.3-1,0.5c-1.1,0.6-2.4,1-3.7,1c-0.1,0-0.2,0-0.3,0c-0.6,0-1.2,0-1.8-0.1c-4.1-0.6-5.4-3.4-7.3-5.6 c-1.9-2.2-5.2-1.5-5.2-1.5s-0.9-0.5-3.8,0.5c-2.9,1-3.5,5.2-3.3,4.5c0.2-0.6,2-1.9,3.8-2c2.2-0.2,0.5,3.9,7.5,3.7c1.2,0,5,4,5,4 s-3.5,0.6-4.3,0.1c-0.9-0.5-4.8-1.9-7.2-2.7c-2.4-0.9-2.7,0.7-2.7,0.7s-1.7-0.3-3.8,0.6c-2.2,1-2.6,4.9-2.6,4.9 c2.3-3.2,4.5-2.5,4.5-2.5l0.2,0.5c0.7,2.6,4.9,2.3,4.4,2.4c-0.5,0.1-0.2,0.7-0.2,0.7c-4.3,2.4-3,5.8-3,5.8 c0.1-3.2,4.5-2.6,4.5-2.6c0.8,0.6,3.6,0.5,3.6,0.5c4.9-3.4,6.4-2.8,6.4-2.8c2.6,0.3,4.2,0,4.2,0s2.7-3.1,3.9-0.8 c1.2,2.3,4.1,0.6,4.1,0.6c1.7-1.7,4.9-0.8,4.9-0.8c3.8,2.3,5.2,3.3,5.2,3.3c2.6,2.2,5,0.1,5,0.1c3.6-2.6,6.1,1.9,6.1,1.9 c0-6.1-5.9-5.7-5.9-5.7s-1-1-3.3-0.8c-2.3,0.2-6.2-1.1-6.2-1.1c15.7-2.4,26.6-18.6,26.6-18.6c0.1,1.5,4.8,2.2,4.8,2.2 c1.4-0.2,4.9,1.8,4.9,1.8c0.6-7.2-7.2-8.6-7.2-8.6c-9.2-0.7-12.6-4.8-12.6-4.8c-4-4.6,5.8-11.8,5.8-11.8c0.7,1.1,5.1,1.6,5.1,1.6 c0.9,3.9,9.1,4.1,9.1,4.1c3.1,4,10.3,1.2,10.3,1.2c1.5,3.3,9.8,1.1,9.8,1.1c1.4,2.5,5.6,0.6,5.6,0.6c-0.9,3,2.9,4.4,2.9,4.4 c-1.8,2.6,1.1,6.3,1.1,6.3c-1.7,2.4-0.3,5.5-0.3,5.5c-3.2,2.2-2,5.7-2,5.7l-1.9,2.6c-2.9,4.1-8,2.7-8,2.7 c-4.3-1.5-8.8-6.6-8.8-6.6c-3.7-2.8-4.3-0.7-4.3-0.7c-6.6-0.8-6,4.7-6,4.7c2.1-2.9,4.3-1.5,4.3-1.5c-0.9,1,3.4,3.5,3.4,3.5 c-4.9-0.3-5.1,1.4-5.1,1.4c-5.8,0.7-4.5,5.7-4.5,5.7c0-1.6,4.6-3.4,4.7-2.1c0.1,1.3,3.3,0.8,3.3,0.8c2.1-1.4,6.7,0.8,5,0.6 c-1.7-0.2-3.5,2.2-3.5,2.2c-4.2,2.8-3.5,6.2-3.5,6.2c0.8-3.1,3.8-3,5.6-2.6c1.8,0.3,3.6-0.9,3.6-0.9c3.5-2.6,5.5-2.7,5.5-2.7 c6.1-0.6,4.6,0.5,7.4,1.4c2.8,0.8,7.2-2.2,7.2-2.2c5.9-1.2,9.5,3.2,9.5,3.2c3.2,1.4,2.9-0.3,2.9-0.3c3.5-1.8,5.9,2.3,5.9,2.3 c0.5-5.2-4.9-5.8-4.9-5.8s0.5-1.6-5.4-2.3c-7.8-0.9,6.9-23.5-1.8-33.7c6.9,4.7,12.1,5.3,12.1,5.3c-1.6-6.1-16.4-12.8-16.4-12.8 c-4.4-0.9-11.8-6.1-11.8-6.1c12.2-0.1,23.5-4.2,32-13.1c1.5-1.6,2.1-3.5,2.8-5.6c1.5-4.7,1.6-8.6-0.6-13.1c0-0.1-0.3-0.5-0.2-0.6 c0.7-0.1,3.9-11.3,3.9-11.3c2.2,4.5,10.4,7.6,10.4,7.6c-6.2-9.4-3.4-33.5-3.4-33.5c-1.2,3.7-25.9,26.2-25.9,26.2 c1.4,0.4,13-0.7,13-0.7l-3.2,7.1c-6.1-2.9-13.4-4.2-19.8-1.3c-4.3,1.9-8.1,6-7.4,11c0.3,2,1.4,4.4,3.1,5.5 c0.6,0.4,1.3,0.8,1.9,1.1c5.3,2.4,11.4,2.4,16.5-0.2c0.3-0.2,0.7-0.4,1.1-0.6c-0.2,6.3-16.1,9-21.3,6.8 c-5.2-2.2-27.8-3.4-27.8-3.4c6.6-10.2,19-7.5,19-7.5c-4.8-5.7-4.5-10.4-2.7-14.5c1.9-4,5.3-7.6,9.1-9.9c4.8-3,9.9-4.2,10-4.1 c-20.8-6.5,9-25.1,9-25.1L216.2,54c-16.2,7.1-16.7-2.7-11.4-14.8c-0.8-0.2-26.7,15.2-26.7,15.2s-18.5,10.7-24.1,16.5 c-5.6,5.8-5.1,10.4-5.1,10.4s-0.1,2.5,0.2,8.9c0.4,10.6-11.6,7.5-18.6,10.3c-2.2,0.9-2.7,0.3-2.7,0.3c-1.6-2.2-1.2-6-1-6 c0.7-1.8,6.6-0.5,6.6-0.5c-1.1-3.8-2.8-4.3-5.4-5.2c-2.6-0.9-2-3.1-2-3.1c-0.2-2.9,1.3-3,1.3-3c1.3-0.9,8.2,3.1,8.2,3.1 c-0.8-5.8-3.8-7.1-3.8-7.1c-3.8-0.3-3.8-1.3-3.8-1.3c-0.6-2.5,0.7-4.4,0.7-4.4c0.5-1.9,8.3,1.3,8.3,1.3c-0.5-7-5.7-7.2-5.7-7.2 c-2.2,0.2-1.4-3-1.4-3c0.3-1.4,6.7,0,6.7,0c-0.9-2.4-5.5-4.7-5.5-4.7c-4.3-0.8-3.9-5.1-3.9-5.1c-0.8-0.2-1.6-1.8-1.6-1.8 c-0.6-0.9,10.2-6.6,10.2-6.6l-4.2,0.5c2.2-1.6,1.4-8.4,1.4-8.4c-0.6,3.1-6.1,4-6.1,4c1.7-4.3,0.3-6.4,0.3-6.4 c-0.4,2.1-5.7,4.3-5.7,4.3c-9.3,2.4-9.4,6.1-9.4,6.1l-11.1-0.4c-8.2-1.2-10.4,5.2-10.4,5.2l-2.7,0C70.6,51.7,66.4,59,66.4,59 c9.2-1.7,17.3-0.5,17.3-0.5c-0.2,4.6,4,4.7,4,4.7c-0.1,0.2,0.5,1.1,0.4,1.1c-0.2,0-22,0.6-23.1,0.9c-0.3,0.1,0.8-0.2,1.7-0.8 c1.7-1,3.8-2.5,3.8-2.5c-10,0.2-20.2-7.2-20.2-7.2C57.2,70.7,68.4,73.2,68,73c-0.4-0.1-2.6-4.2-2.6-4.2l20.4,0.7c-0.8,1.4,2,5,2,5 c-0.6,3.8,3.4,9.4,2.6,7.7c-0.8-1.8,1.9-6.4,1.9-6.4c0-1.4,0.5-2.5,0.5-2.5c0.5-0.1,1.1,4.5,1.1,4.5c2-6.7,9.3-7.5,9.3-7.5 c-0.3,1.5,1,2.9,1,2.9c-3.7,0.2-3.1,7.5-3.1,7.5c-3.9,1-3.2,6.8-3.2,6.8c-4.5,1.2-4.2,7.9-4.2,7.9c-4.6,2.2-2.9,9.6-2.9,9.6 c-6.2,5.3-0.2,12.3-0.2,12.3c-1,0.1-1.7,4.3-1.7,4.3c-0.3-0.8-3.4,0.2-3.4,0.2c-1.1-3.1-6-1.9-6-1.9c-1.2-3.4-5.7-3.7-5.7-3.7 c-0.2-3.4-4.3-5.9-4.3-5.9c0.5-3.6-2.5-10.7-2.5-10.7c-2.6-3.8,1.1-5,1.1-5c4.7-2.9,3.7-6.3,3.7-6.3c1.7-4.9-2.1-7.2-2.1-7.2 c1.1,3.2-0.8,4.9-0.8,4.9c-0.5-0.8-3.9,2.4-3.9,2.4l0.9-3.4c0.2-5.5-2.1-4.6-2.1-4.6c0-6.2-6.9-4.4-6.9-4.4 c3.3-0.2,4.6,5.2,3.6,5.2c-1.1,0-0.7,3.6-0.7,3.6c-1,0.1-1,5.4-1,5.4L58,89c-1.8-6.1-3.8-5.3-3.8-5.3c-4.3-4.7-8.1-1.6-8.1-1.6 c3.3,0.2,4.6,1.8,4,3.5c-0.7,1.8,1.2,4,1.2,4c-2.5,5.3,7,5,4.3,10.7c-0.5,1-0.9,3.8-0.6,4.9c1.2,4.4-2,3.7-2.4,6.8 c-0.2,1.9-1.9,2.9-1.9,2.9c-3.8,0.3-1.4,4-1.4,4c-1.5,4-4.6,3.2-4.6,3.2c2.7,3.2,7.5-1.1,7.5-1.1c1.8,1.1,3.2-5,3.2-5l3-5.1 c1.2-2.1,0.2,7.5,11,16.6c13.9,9.4,14.7,25.2,13.9,25c2.2-0.7,5.7-10.9,5.2-11.5c0,0,8.7-1,9.4-1.3c0.7-0.3,3.3,0.2,3.4,0.6 l0.1,3.1c-3,2-2.5,6-2.5,6s-3.1,1.7-2.5,4.6c0,0-0.3,2.7-1.2,3.4c-0.9,0.7-4.8,6.3-8.6,6.7c-3.8,0.5-9.8-1.9-13.2-3.8 c0,0-1.4-0.8-1.9,0c0,0-5.2-3-7.7,2.9c0,0,3.2-2.2,5.1-0.4c0,0-0.8,2.8-0.5,4c0,0-7.1-1.8-8.1,4.7c0,0,3.6-3.4,7.4-1.1 c0,0,0.1,0.9,0.7,1.2l0.2,1.3c0,0-4.6,1.4-3,6.6c0,0,0.6-4.9,4.9-3.4c0,0,3.6,2.3,7.6,0.8c4-1.5,4.7-3.1,4.7-3.1s3.5-1.8,6.8-0.3 c0,0,1.6,0.6,3.2-0.8c0,0,3.8-2.5,6.1,0c0,0,1,2.4,4.2,2.2c0,0,1.4-0.4,2.4,1c0,0,3.8,0.3,4.6-1.2c0,0,2.8-2.1,5.2,1.7 c0,0,0.5-4.9-5.1-5.3c0,0-0.2-2.6-5.7-1.5l-4.6-1.4c0,0,2.4-8.1,8.9-13.7c0,0,6.7-6.4,7.1-6.8c0.4-0.4,3.1-4.1,2.9-4.9 c0,0,0.3,5.7,1.1,6.7c0.8,1,3.4,4.6,2.7,6.7c0,0,3.9-3.3,3.9-8.7c0,0,4.2-1.2,5.6-4c0,0,8.2,2,12.8-4.4c0,0,4.9,1,6.9-0.4 c0,0-0.9,6.7,2,7.9c0,0,2.5,1.2,4.1,1.2c0,0,0,5.6,9.8,5c0,0,2.1,2.1,4.2,2.2C171.6,154.6,167.2,156.8,168.6,158.9L168.6,158.9z"></path> <path class="st2" d="M103.6,52.7c0,0.1,0,0.2-0.1,0.3c-0.7,3.2-4.1,2.6-4.1,2.6c-3.1-0.5-2.8-3.7-2.7-3.7 C97,51.8,100.8,51.6,103.6,52.7L103.6,52.7z"></path> <path class="st5" d="M102.8,52.7c0,0.1-0.9,2-3.1,1.9c-2.2-0.1-2-2.8-2-2.8s3.1-0.1,5.2,0.7L102.8,52.7z"></path> <path class="st2" d="M248.2,94c0,0-3.6-4.9-11.1-2.3c0,0-3,1-1.3,3.3c0,0,1.6,2.6,8.7,1.2C244.5,96.3,248,95.2,248.2,94L248.2,94z "></path> </g> </g> <g id="FRAME"> <path class="st6" d="M158.3,208.6c-46.6,0-82.4-2.5-104.1-4.5c-10.7-1-20.9-5.7-28.6-13.2s-12.7-17.6-13.9-28.3 c-2.2-19-3.3-38.2-3.3-56.9c0-18.8,1.1-37.9,3.3-56.9C12.9,38,17.8,28,25.5,20.4c7.7-7.5,17.9-12.2,28.6-13.2 c21.8-2.1,57.5-4.5,104.1-4.5s82.4,2.5,104.1,4.5c10.7,1,20.9,5.7,28.6,13.2s12.7,17.6,13.9,28.3c2.2,19,3.3,38.2,3.3,56.9 s-1.1,37.9-3.3,56.9c-1.2,10.7-6.2,20.7-13.9,28.3c-7.7,7.5-17.9,12.2-28.6,13.2C240.6,206.1,204.9,208.6,158.3,208.6z M158.3,11.8 c-46.3,0-81.7,2.4-103.3,4.5c-8.7,0.8-16.9,4.6-23.1,10.7c-6.2,6-10.2,14.1-11.2,22.8c-2.2,18.7-3.3,37.4-3.3,55.9 s1.1,37.2,3.3,55.9c1,8.6,5,16.7,11.2,22.8s14.4,9.9,23.1,10.7c21.6,2,57,4.5,103.3,4.5s81.7-2.4,103.3-4.5 c8.7-0.8,16.9-4.6,23.1-10.7c6.2-6.1,10.2-14.2,11.2-22.8c2.2-18.7,3.3-37.4,3.3-55.9c0-18.4-1.1-37.2-3.3-55.9 c-1-8.6-5-16.7-11.2-22.8s-14.4-9.9-23.1-10.7C240,14.2,204.6,11.8,158.3,11.8z"></path> </g> </svg> 