<?xml version="1.0" encoding="utf-8"?>
<!-- Generator: Adobe Illustrator 26.0.3, SVG Export Plug-In . SVG Version: 6.00 Build 0)  -->
<svg version="1.1" id="Layer_1" xmlns="http://www.w3.org/2000/svg" xmlns:xlink="http://www.w3.org/1999/xlink" x="0px" y="0px"
	 viewBox="0 0 316.5 217.1" style="enable-background:new 0 0 316.5 217.1;" xml:space="preserve">
<style type="text/css">
	.st0{opacity:0.1;fill:#020203;enable-background:new    ;}
	.st1{clip-path:url(#SVGID_00000170266098061296281170000014150990323342804128_);}
	.st2{fill:#FFFFFF;}
	.st3{fill:#EB593B;}
	.st4{fill:#3B86C7;}
</style>
<path id="SHADOW" class="st0" d="M305.8,113.7c0,22.1-1.6,41.8-3.4,57.2c-2.4,20.3-18.6,36.1-39,38c-23.6,2.2-59.2,4.6-105.2,4.6
	s-81.5-2.3-105.2-4.6c-20.3-1.9-36.6-17.7-39-38c-1.8-15.4-3.4-35.1-3.4-57.2s1.6-41.8,3.4-57.2c2.4-20.3,18.6-36.1,39-38
	c23.6-2.2,59.2-4.6,105.2-4.6s81.5,2.3,105.2,4.6c20.3,1.9,36.6,17.7,39,38C304.2,72,305.8,91.7,305.8,113.7z"/>
<g>
	<defs>
		<path id="SVGID_1_" d="M305.7,107.6c0,22.1-1.6,41.8-3.4,57.2c-2.4,20.3-18.6,36.1-39,38c-23.6,2.2-59.2,4.6-105.2,4.6
			s-81.5-2.3-105.2-4.6c-20.3-1.9-36.6-17.7-39-38c-1.8-15.4-3.4-35.1-3.4-57.2s1.6-41.8,3.4-57.2c2.4-20.3,18.6-36.1,39-38
			c23.6-2.2,59.2-4.6,105.2-4.6s81.5,2.3,105.2,4.6c20.3,1.9,36.6,17.7,39,38C304.2,65.8,305.7,85.5,305.7,107.6z"/>
	</defs>
	<clipPath id="SVGID_00000049922245191557132620000005908998205942049457_">
		<use xlink:href="#SVGID_1_"  style="overflow:visible;"/>
	</clipPath>
	<g style="clip-path:url(#SVGID_00000049922245191557132620000005908998205942049457_);">
		<g>
			<rect x="16" y="171.3" class="st2" width="287.2" height="17.3"/>
			<rect x="16" y="188.6" class="st3" width="287.2" height="17.3"/>
			<rect x="16" y="132.4" class="st2" width="287.2" height="17.3"/>
			<rect x="16" y="149.7" class="st3" width="287.2" height="21.6"/>
			<rect x="16" y="97.8" class="st2" width="287.2" height="17.3"/>
			<rect x="16" y="115.1" class="st3" width="287.2" height="17.3"/>
			<rect x="16" y="63.3" class="st2" width="287.2" height="17.3"/>
			<rect x="16" y="80.6" class="st3" width="287.2" height="17.3"/>
			<rect x="16" y="24.4" class="st2" width="287.2" height="17.3"/>
			<rect x="16" y="41.7" class="st3" width="287.2" height="21.6"/>
			<rect x="16" y="7.1" class="st3" width="287.2" height="17.3"/>
		</g>
		<rect x="16" y="7.1" class="st4" width="160.5" height="125.3"/>
		<g>
			<polygon class="st2" points="20.4,11 22.3,16.9 28.4,16.9 23.5,20.6 25.3,26.5 20.4,22.8 15.5,26.5 17.4,20.6 12.5,16.9 
				18.5,16.9 			"/>
			<polygon class="st2" points="55,11 56.8,16.9 62.9,16.9 58,20.6 59.9,26.5 55,22.8 50.1,26.5 51.9,20.6 47,16.9 53.1,16.9 			"/>
			<polygon class="st2" points="89.5,11 91.4,16.9 97.4,16.9 92.5,20.6 94.4,26.5 89.5,22.8 84.6,26.5 86.5,20.6 81.6,16.9 
				87.6,16.9 			"/>
			<polygon class="st2" points="124,11 125.9,16.9 132,16.9 127.1,20.6 128.9,26.5 124,22.8 119.1,26.5 121,20.6 116.1,16.9 
				122.2,16.9 			"/>
			<polygon class="st2" points="158.6,11 160.5,16.9 166.5,16.9 161.6,20.6 163.5,26.5 158.6,22.8 153.7,26.5 155.5,20.6 
				150.6,16.9 156.7,16.9 			"/>
			<polygon class="st2" points="38.2,28.1 40,34 46.1,34 41.2,37.7 43.1,43.6 38.2,39.9 33.3,43.6 35.1,37.7 30.2,34 36.3,34 			"/>
			<polygon class="st2" points="72.7,28.1 74.6,34 80.6,34 75.7,37.7 77.6,43.6 72.7,39.9 67.8,43.6 69.7,37.7 64.8,34 70.8,34 			
				"/>
			<polygon class="st2" points="107.2,28.1 109.1,34 115.2,34 110.3,37.7 112.2,43.6 107.2,39.9 102.3,43.6 104.2,37.7 99.3,34 
				105.4,34 			"/>
			<polygon class="st2" points="141.8,28.1 143.7,34 149.7,34 144.8,37.7 146.7,43.6 141.8,39.9 136.9,43.6 138.8,37.7 133.8,34 
				139.9,34 			"/>
			<polygon class="st2" points="20.4,44.4 22.3,50.3 28.4,50.3 23.5,54 25.3,59.9 20.4,56.2 15.5,59.9 17.4,54 12.5,50.3 18.6,50.3 
							"/>
			<polygon class="st2" points="55,44.4 56.8,50.3 62.9,50.3 58,54 59.9,59.9 55,56.2 50.1,59.9 51.9,54 47,50.3 53.1,50.3 			"/>
			<polygon class="st2" points="89.5,44.4 91.4,50.3 97.4,50.3 92.5,54 94.4,59.9 89.5,56.2 84.6,59.9 86.5,54 81.6,50.3 87.6,50.3 
							"/>
			<polygon class="st2" points="124,44.4 125.9,50.3 132,50.3 127.1,53.9 129,59.8 124,56.2 119.1,59.8 121,53.9 116.1,50.3 
				122.2,50.3 			"/>
			<polygon class="st2" points="158.6,44.4 160.5,50.3 166.5,50.3 161.6,53.9 163.5,59.8 158.6,56.2 153.7,59.8 155.6,53.9 
				150.6,50.3 156.7,50.3 			"/>
			<polygon class="st2" points="38.2,61.5 40,67.4 46.1,67.4 41.2,71.1 43.1,77 38.2,73.3 33.3,77 35.1,71.1 30.2,67.4 36.3,67.4 
							"/>
			<polygon class="st2" points="72.7,61.5 74.6,67.4 80.6,67.4 75.7,71.1 77.6,77 72.7,73.3 67.8,77 69.7,71.1 64.8,67.4 70.8,67.4 
							"/>
			<polygon class="st2" points="107.2,61.5 109.1,67.4 115.2,67.4 110.3,71.1 112.2,77 107.2,73.3 102.3,77 104.2,71.1 99.3,67.4 
				105.4,67.4 			"/>
			<polygon class="st2" points="141.8,61.5 143.7,67.4 149.7,67.4 144.8,71 146.7,76.9 141.8,73.3 136.9,77 138.8,71 133.8,67.4 
				139.9,67.4 			"/>
			<polygon class="st2" points="20.4,77.8 22.3,83.7 28.4,83.7 23.5,87.3 25.3,93.2 20.4,89.6 15.5,93.2 17.4,87.3 12.5,83.7 
				18.6,83.7 			"/>
			<polygon class="st2" points="55,77.8 56.8,83.7 62.9,83.7 58,87.3 59.9,93.2 55,89.6 50.1,93.2 51.9,87.3 47,83.7 53.1,83.7 			
				"/>
			<polygon class="st2" points="89.5,77.8 91.4,83.7 97.4,83.7 92.5,87.3 94.4,93.2 89.5,89.6 84.6,93.2 86.5,87.3 81.6,83.7 
				87.6,83.7 			"/>
			<polygon class="st2" points="124,77.8 125.9,83.7 132,83.7 127.1,87.3 129,93.2 124,89.6 119.1,93.2 121,87.3 116.1,83.7 
				122.2,83.7 			"/>
			<polygon class="st2" points="158.6,77.8 160.5,83.7 166.5,83.7 161.6,87.3 163.5,93.2 158.6,89.6 153.7,93.2 155.6,87.3 
				150.6,83.7 156.7,83.7 			"/>
			<polygon class="st2" points="38.2,94.9 40,100.8 46.1,100.8 41.2,104.4 43.1,110.3 38.2,106.7 33.3,110.3 35.1,104.4 30.2,100.8 
				36.3,100.8 			"/>
			<polygon class="st2" points="72.7,94.9 74.6,100.8 80.7,100.8 75.7,104.4 77.6,110.3 72.7,106.7 67.8,110.3 69.7,104.4 
				64.8,100.8 70.8,100.8 			"/>
			<polygon class="st2" points="107.3,94.9 109.1,100.8 115.2,100.8 110.3,104.4 112.2,110.3 107.3,106.7 102.3,110.3 104.2,104.4 
				99.3,100.8 105.4,100.8 			"/>
			<polygon class="st2" points="141.8,94.9 143.7,100.8 149.7,100.8 144.8,104.4 146.7,110.3 141.8,106.7 136.9,110.3 138.8,104.4 
				133.9,100.8 139.9,100.8 			"/>
			<polygon class="st2" points="20.4,111.2 22.3,117.1 28.4,117.1 23.5,120.7 25.3,126.6 20.4,123 15.5,126.6 17.4,120.7 
				12.5,117.1 18.6,117.1 			"/>
			<polygon class="st2" points="55,111.2 56.8,117.1 62.9,117.1 58,120.7 59.9,126.6 55,123 50.1,126.6 51.9,120.7 47,117.1 
				53.1,117.1 			"/>
			<polygon class="st2" points="89.5,111.2 91.4,117.1 97.5,117.1 92.5,120.7 94.4,126.6 89.5,123 84.6,126.6 86.5,120.7 
				81.6,117.1 87.6,117.1 			"/>
			<polygon class="st2" points="124.1,111.2 125.9,117.1 132,117.1 127.1,120.7 129,126.6 124.1,123 119.1,126.6 121,120.7 
				116.1,117.1 122.2,117.1 			"/>
			<polygon class="st2" points="158.6,111.2 160.5,117.1 166.5,117.1 161.6,120.7 163.5,126.6 158.6,123 153.7,126.6 155.6,120.7 
				150.7,117.1 156.7,117.1 			"/>
		</g>
	</g>
</g>
<g id="FRAME">
	<path class="st2" d="M158.3,208.6c-46.6,0-82.4-2.5-104.1-4.5c-10.7-1-20.9-5.7-28.6-13.2s-12.7-17.6-13.9-28.3
		c-2.2-19-3.3-38.2-3.3-56.9c0-18.8,1.1-37.9,3.3-56.9C12.9,38,17.8,28,25.5,20.4c7.7-7.5,17.9-12.2,28.6-13.2
		c21.8-2.1,57.5-4.5,104.1-4.5s82.4,2.5,104.1,4.5c10.7,1,20.9,5.7,28.6,13.2s12.7,17.6,13.9,28.3c2.2,19,3.3,38.2,3.3,56.9
		s-1.1,37.9-3.3,56.9c-1.2,10.7-6.2,20.7-13.9,28.3c-7.7,7.5-17.9,12.2-28.6,13.2C240.6,206.1,204.9,208.6,158.3,208.6z M158.3,11.8
		c-46.3,0-81.7,2.4-103.3,4.5c-8.7,0.8-16.9,4.6-23.1,10.7c-6.2,6-10.2,14.1-11.2,22.8c-2.2,18.7-3.3,37.4-3.3,55.9
		s1.1,37.2,3.3,55.9c1,8.6,5,16.7,11.2,22.8s14.4,9.9,23.1,10.7c21.6,2,57,4.5,103.3,4.5s81.7-2.4,103.3-4.5
		c8.7-0.8,16.9-4.6,23.1-10.7c6.2-6.1,10.2-14.2,11.2-22.8c2.2-18.7,3.3-37.4,3.3-55.9c0-18.4-1.1-37.2-3.3-55.9
		c-1-8.6-5-16.7-11.2-22.8s-14.4-9.9-23.1-10.7C240,14.2,204.6,11.8,158.3,11.8z"/>
</g>
</svg>
