<?xml version="1.0" encoding="utf-8"?>
<!-- Generator: Adobe Illustrator 26.0.3, SVG Export Plug-In . SVG Version: 6.00 Build 0)  -->
<svg version="1.1" id="Layer_1" xmlns="http://www.w3.org/2000/svg" xmlns:xlink="http://www.w3.org/1999/xlink" x="0px" y="0px"
	 viewBox="0 0 316.5 217.1" style="enable-background:new 0 0 316.5 217.1;" xml:space="preserve">
<style type="text/css">
	.st0{opacity:0.1;fill:#020203;}
	.st1{clip-path:url(#SVGID_00000002342423240165445130000004483815540855312037_);}
	.st2{fill:#EB593B;}
	.st3{fill:#FFFFFF;}
	.st4{fill:#4494D0;}
</style>
<path id="SHADOW" class="st0" d="M305.8,113.7c0,22.1-1.6,41.8-3.4,57.2c-2.4,20.3-18.6,36.1-39,38c-23.6,2.2-59.2,4.6-105.2,4.6
	s-81.5-2.3-105.2-4.6c-20.3-1.9-36.6-17.7-39-38c-1.8-15.4-3.4-35.1-3.4-57.2s1.6-41.8,3.4-57.2c2.4-20.3,18.6-36.1,39-38
	c23.6-2.2,59.2-4.6,105.2-4.6s81.5,2.3,105.2,4.6c20.3,1.9,36.6,17.7,39,38C304.2,72,305.8,91.7,305.8,113.7z"/>
<g>
	<defs>
		<path id="SVGID_1_" d="M306.2,105c0,22.1-1.6,41.8-3.4,57.2c-2.4,20.3-18.6,36.1-39,38c-23.6,2.2-59.2,4.6-105.2,4.6
			s-81.5-2.3-105.2-4.6c-20.3-1.9-36.6-17.7-39-38c-1.8-15.4-3.4-35.1-3.4-57.2c0-22.1,1.6-41.8,3.4-57.2c2.4-20.3,18.6-36.1,39-38
			c23.6-2.2,59.2-4.6,105.2-4.6s81.5,2.3,105.2,4.6c20.3,1.9,36.6,17.7,39,38C304.6,63.3,306.2,83,306.2,105z"/>
	</defs>
	<clipPath id="SVGID_00000127015031762062454650000005712914334715523205_">
		<use xlink:href="#SVGID_1_"  style="overflow:visible;"/>
	</clipPath>
	<g style="clip-path:url(#SVGID_00000127015031762062454650000005712914334715523205_);">
		<rect x="11.2" y="139.8" class="st2" width="295" height="65.1"/>
		<rect x="11.2" y="5.3" class="st3" width="295" height="65.1"/>
		<rect x="11.2" y="70.3" class="st4" width="295" height="69.4"/>
	</g>
</g>
<g id="FRAME">
	<path class="st3" d="M158.3,208.6c-46.6,0-82.4-2.5-104.1-4.5c-10.7-1-20.9-5.7-28.6-13.2c-7.7-7.5-12.7-17.6-13.9-28.3
		c-2.2-19-3.3-38.2-3.3-56.9c0-18.8,1.1-37.9,3.3-56.9C12.9,38,17.8,28,25.5,20.4c7.7-7.5,17.9-12.2,28.6-13.2
		c21.8-2.1,57.5-4.5,104.1-4.5c46.6,0,82.4,2.5,104.1,4.5c10.7,1,20.9,5.7,28.6,13.2c7.7,7.5,12.7,17.6,13.9,28.3
		c2.2,19,3.3,38.2,3.3,56.9s-1.1,37.9-3.3,56.9c-1.2,10.7-6.2,20.7-13.9,28.3c-7.7,7.5-17.9,12.2-28.6,13.2
		C240.6,206.1,204.9,208.6,158.3,208.6z M158.3,11.8c-46.3,0-81.7,2.4-103.3,4.5c-8.7,0.8-16.9,4.6-23.1,10.7
		C25.7,33,21.7,41.1,20.7,49.8c-2.2,18.7-3.3,37.4-3.3,55.9s1.1,37.2,3.3,55.9c1,8.6,5,16.7,11.2,22.8c6.2,6.1,14.4,9.9,23.1,10.7
		c21.6,2,57,4.5,103.3,4.5c46.3,0,81.7-2.4,103.3-4.5c8.7-0.8,16.9-4.6,23.1-10.7c6.2-6.1,10.2-14.2,11.2-22.8
		c2.2-18.7,3.3-37.4,3.3-55.9c0-18.4-1.1-37.2-3.3-55.9c-1-8.6-5-16.7-11.2-22.8c-6.2-6.1-14.4-9.9-23.1-10.7
		C240,14.2,204.6,11.8,158.3,11.8z"/>
</g>
</svg>
