<?xml version="1.0" encoding="utf-8"?>
<!-- Generator: Adobe Illustrator 26.0.3, SVG Export Plug-In . SVG Version: 6.00 Build 0)  -->
<svg version="1.1" id="Layer_1" xmlns="http://www.w3.org/2000/svg" xmlns:xlink="http://www.w3.org/1999/xlink" x="0px" y="0px"
	 viewBox="0 0 316.5 217.1" style="enable-background:new 0 0 316.5 217.1;" xml:space="preserve">
<style type="text/css">
	.st0{opacity:0.1;fill:#020203;enable-background:new    ;}
	.st1{clip-path:url(#SVGID_00000073686427889798750690000003154920182910584488_);fill:#3A3C3D;}
	.st2{clip-path:url(#SVGID_00000120542405743898582290000010524967566111799702_);fill:#34A936;}
	.st3{clip-path:url(#SVGID_00000037657382710506612280000018084396586324172972_);fill:#FFFFFF;}
	.st4{clip-path:url(#SVGID_00000112597414643490970360000007039171248693581712_);fill:#EB593B;}
	.st5{fill:#FFFFFF;}
</style>
<path id="SHADOW" class="st0" d="M305.8,113.7c0,22.1-1.6,41.8-3.4,57.2c-2.4,20.3-18.6,36.1-39,38c-23.6,2.2-59.2,4.6-105.2,4.6
	s-81.5-2.3-105.2-4.6c-20.3-1.9-36.6-17.7-39-38c-1.8-15.4-3.4-35.1-3.4-57.2s1.6-41.8,3.4-57.2c2.4-20.3,18.6-36.1,39-38
	c23.6-2.2,59.2-4.6,105.2-4.6s81.5,2.3,105.2,4.6c20.3,1.9,36.6,17.7,39,38C304.2,72,305.8,91.7,305.8,113.7z"/>
<g>
	<g>
		<g>
			<defs>
				<path id="SVGID_1_" d="M304.1,105.9c0,22-1.5,41.6-3.3,57c-2.3,20.2-18.5,36-38.6,37.9c-23.4,2.2-58.7,4.6-104.3,4.6
					S77,203,53.5,200.7c-20.2-1.9-36.3-17.7-38.6-37.9c-1.8-15.4-3.3-35-3.3-57s1.5-41.6,3.3-57C17.2,28.7,33.4,13,53.5,11
					C77,8.8,112.3,6.5,157.8,6.5s80.9,2.3,104.3,4.6c20.2,1.9,36.3,17.7,38.6,37.9C302.6,64.3,304.1,83.9,304.1,105.9z"/>
			</defs>
			<clipPath id="SVGID_00000005234611611369820230000012925236373649660594_">
				<use xlink:href="#SVGID_1_"  style="overflow:visible;"/>
			</clipPath>
			
				<rect x="11.6" y="143.7" style="clip-path:url(#SVGID_00000005234611611369820230000012925236373649660594_);fill:#3A3C3D;" width="292.6" height="64.8"/>
		</g>
		<g>
			<defs>
				<path id="SVGID_00000068662969006616466880000015511967820248300705_" d="M304.1,105.9c0,22-1.5,41.6-3.3,57
					c-2.3,20.2-18.5,36-38.6,37.9c-23.4,2.2-58.7,4.6-104.3,4.6S77,203,53.5,200.7c-20.2-1.9-36.3-17.7-38.6-37.9
					c-1.8-15.4-3.3-35-3.3-57s1.5-41.6,3.3-57C17.2,28.7,33.4,13,53.5,11C77,8.8,112.3,6.5,157.8,6.5s80.9,2.3,104.3,4.6
					c20.2,1.9,36.3,17.7,38.6,37.9C302.6,64.3,304.1,83.9,304.1,105.9z"/>
			</defs>
			<clipPath id="SVGID_00000097458255740671381030000009411586031867063190_">
				<use xlink:href="#SVGID_00000068662969006616466880000015511967820248300705_"  style="overflow:visible;"/>
			</clipPath>
			
				<rect x="11.6" y="6.5" style="clip-path:url(#SVGID_00000097458255740671381030000009411586031867063190_);fill:#34A936;" width="292.6" height="68.1"/>
		</g>
		<g>
			<defs>
				<path id="SVGID_00000119112268212910714740000014839585707384631224_" d="M304.1,105.9c0,22-1.5,41.6-3.3,57
					c-2.3,20.2-18.5,36-38.6,37.9c-23.4,2.2-58.7,4.6-104.3,4.6S77,203,53.5,200.7c-20.2-1.9-36.3-17.7-38.6-37.9
					c-1.8-15.4-3.3-35-3.3-57s1.5-41.6,3.3-57C17.2,28.7,33.4,13,53.5,11C77,8.8,112.3,6.5,157.8,6.5s80.9,2.3,104.3,4.6
					c20.2,1.9,36.3,17.7,38.6,37.9C302.6,64.3,304.1,83.9,304.1,105.9z"/>
			</defs>
			<clipPath id="SVGID_00000096768297748449157090000001150259849437702033_">
				<use xlink:href="#SVGID_00000119112268212910714740000014839585707384631224_"  style="overflow:visible;"/>
			</clipPath>
			
				<rect x="11.6" y="74.6" style="clip-path:url(#SVGID_00000096768297748449157090000001150259849437702033_);fill:#FFFFFF;" width="292.6" height="69.1"/>
		</g>
		<g>
			<defs>
				<path id="SVGID_00000148657278041892819930000005651325269695962803_" d="M304.1,105.9c0,22-1.5,41.6-3.3,57
					c-2.3,20.2-18.5,36-38.6,37.9c-23.4,2.2-58.7,4.6-104.3,4.6S77,203,53.5,200.7c-20.2-1.9-36.3-17.7-38.6-37.9
					c-1.8-15.4-3.3-35-3.3-57s1.5-41.6,3.3-57C17.2,28.7,33.4,13,53.5,11C77,8.8,112.3,6.5,157.8,6.5s80.9,2.3,104.3,4.6
					c20.2,1.9,36.3,17.7,38.6,37.9C302.6,64.3,304.1,83.9,304.1,105.9z"/>
			</defs>
			<clipPath id="SVGID_00000156581505793054604990000002955219185131078588_">
				<use xlink:href="#SVGID_00000148657278041892819930000005651325269695962803_"  style="overflow:visible;"/>
			</clipPath>
			
				<rect x="11.6" y="6.5" style="clip-path:url(#SVGID_00000156581505793054604990000002955219185131078588_);fill:#EB593B;" width="68.8" height="202.1"/>
		</g>
	</g>
	<g id="FRAME_00000072256864488162761780000008560647973618459808_">
		<path class="st5" d="M158.3,208.6c-46.6,0-82.4-2.5-104.1-4.5c-10.7-1-20.9-5.7-28.6-13.2s-12.7-17.6-13.9-28.3
			c-2.2-19-3.3-38.2-3.3-56.9c0-18.8,1.1-37.9,3.3-56.9C12.9,38,17.8,28,25.5,20.4c7.7-7.5,17.9-12.2,28.6-13.2
			c21.8-2.1,57.5-4.5,104.1-4.5s82.4,2.5,104.1,4.5c10.7,1,20.9,5.7,28.6,13.2s12.7,17.6,13.9,28.3c2.2,19,3.3,38.2,3.3,56.9
			s-1.1,37.9-3.3,56.9c-1.2,10.7-6.2,20.7-13.9,28.3c-7.7,7.5-17.9,12.2-28.6,13.2C240.6,206.1,204.9,208.6,158.3,208.6z
			 M158.3,11.8c-46.3,0-81.7,2.4-103.3,4.5c-8.7,0.8-16.9,4.6-23.1,10.7c-6.2,6-10.2,14.1-11.2,22.8c-2.2,18.7-3.3,37.4-3.3,55.9
			s1.1,37.2,3.3,55.9c1,8.6,5,16.7,11.2,22.8s14.4,9.9,23.1,10.7c21.6,2,57,4.5,103.3,4.5s81.7-2.4,103.3-4.5
			c8.7-0.8,16.9-4.6,23.1-10.7c6.2-6.1,10.2-14.2,11.2-22.8c2.2-18.7,3.3-37.4,3.3-55.9c0-18.4-1.1-37.2-3.3-55.9
			c-1-8.6-5-16.7-11.2-22.8s-14.4-9.9-23.1-10.7C240,14.2,204.6,11.8,158.3,11.8z"/>
	</g>
</g>
<g id="FRAME">
	<path class="st5" d="M158.3,208.6c-46.6,0-82.4-2.5-104.1-4.5c-10.7-1-20.9-5.7-28.6-13.2s-12.7-17.6-13.9-28.3
		c-2.2-19-3.3-38.2-3.3-56.9c0-18.8,1.1-37.9,3.3-56.9C12.9,38,17.8,28,25.5,20.4c7.7-7.5,17.9-12.2,28.6-13.2
		c21.8-2.1,57.5-4.5,104.1-4.5s82.4,2.5,104.1,4.5c10.7,1,20.9,5.7,28.6,13.2s12.7,17.6,13.9,28.3c2.2,19,3.3,38.2,3.3,56.9
		s-1.1,37.9-3.3,56.9c-1.2,10.7-6.2,20.7-13.9,28.3c-7.7,7.5-17.9,12.2-28.6,13.2C240.6,206.1,204.9,208.6,158.3,208.6z M158.3,11.8
		c-46.3,0-81.7,2.4-103.3,4.5c-8.7,0.8-16.9,4.6-23.1,10.7c-6.2,6-10.2,14.1-11.2,22.8c-2.2,18.7-3.3,37.4-3.3,55.9
		s1.1,37.2,3.3,55.9c1,8.6,5,16.7,11.2,22.8s14.4,9.9,23.1,10.7c21.6,2,57,4.5,103.3,4.5s81.7-2.4,103.3-4.5
		c8.7-0.8,16.9-4.6,23.1-10.7c6.2-6.1,10.2-14.2,11.2-22.8c2.2-18.7,3.3-37.4,3.3-55.9c0-18.4-1.1-37.2-3.3-55.9
		c-1-8.6-5-16.7-11.2-22.8s-14.4-9.9-23.1-10.7C240,14.2,204.6,11.8,158.3,11.8z"/>
</g>
</svg>
